<?xml version="1.0" encoding="UTF-8"?>
<svg id="Layer_1" data-name="Layer 1" xmlns="http://www.w3.org/2000/svg" viewBox="0 0 1440 800">
  <defs>
    <style>
      .cls-1 {
        fill: #04514a;
        fill-rule: evenodd;
      }

      .cls-1, .cls-2 {
        stroke-width: 0px;
      }

      .cls-2 {
        fill: #043430;
      }
    </style>
  </defs>
  <rect class="cls-2" x="-480.66" y="-415.22" width="2304" height="1609.57"/>
  <g>
    <path class="cls-1" d="M87.34,153.75c.42-.22,1.03-.66,1.02-.99-.03-.76.54-.92.89-1.3.53-.58,1.09-1.13,1.61-1.72.41-.47.76-.99,1.25-1.62,1.3,1,2.43,1.89,3.59,2.75.39.29.77.28,1.11-.17.62-.83,1.25-1.66,1.95-2.43,1.1-1.21,2.29-2.34,3.4-3.55.89-.97,1.71-1.99,2.55-2.99.67-.79,1.34-1.57,1.99-2.37.71-.87,2-1.47,1.41-2.95-.11-.29-.28-.59-.51-.78-.67-.58-1.38-1.11-2.12-1.7,1-.98,1.91-1.89,2.83-2.77.57-.54,1.22-1,1.75-1.57.67-.71,1.29-1.47,1.87-2.26.16-.22.27-.76.14-.88-.51-.47-1.1-.89-1.71-1.24-1.84-1.03-3.74-1.95-5.53-3.04-1.19-.73-2.27-1.66-3.37-2.53-.76-.6-1.64-.63-2.36-.04-.76.61-1.52,1.22-2.31,1.8-.8.59-1.52.58-2.21-.1-1.37-1.36-2.71-2.75-4.04-4.16-.85-.9-1.63-1.87-2.49-2.77-1.2-1.26-2.42-2.52-3.68-3.72-1.39-1.33-2.81-2.64-4.26-3.9-1.62-1.42-3.54-2.32-5.57-2.97-1-.32-2.01-.58-3.01-.87-1.05-.31-2.1-.63-3.16-.93-1.41-.4-2.83-.78-4.25-1.19-.54-.15-.96-.14-1.32.4-.34.52,0,.89.11,1.33.65,2.5,1.17,5.03,1.93,7.49.66,2.15,1.57,4.22,2.4,6.31,1.58,3.98,3.97,7.44,6.81,10.61,1.25,1.39,2.64,2.65,3.94,4,.49.51.9,1.1,1.39,1.62.62.65,1.36,1.18,1.89,1.89.33.45.54,1.14.49,1.7-.08.93-.37,1.85-.64,2.75-.15.51-.3,1.17-.68,1.43-.72.5-.27.73.02,1.13,1.06,1.45,2.17,2.88,3.1,4.42.77,1.27,1.39,2.64,1.93,4.02.36.92.52,1.94.69,2.93.06.37-.11.77-.17,1.16.44-.06.93,0,1.3-.2ZM95.06,148.21c-.2-.24-.41-.47-.62-.71-.21-.24-.42-.48-.65-.75.51-.92.99-.25,1.36,0,.58.38,1.07.88,1.6,1.33-.64,1.13-.85,1.14-1.68.13ZM97.45,146.5c-.57-.55-1.17-1.07-1.68-1.73,1.3-.22,1.95.95,3.01,1.35-.4.71-.78.9-1.32.38ZM99.89,144.89c-.89-.6-1.75-1.18-2.59-1.75.39-.85.97-.84,1.59-.48.64.36,1.24.78,1.91,1.21-.36.4-.61.69-.91,1.02ZM101.95,142.67c-.86-.59-1.73-1.18-2.6-1.77.03-.09.06-.18.09-.27.4.09.84.1,1.19.29.51.27.96.65,1.43,1,.37.27.35.33-.11.76ZM103.48,140.93c-.85-.65-1.69-1.3-2.52-1.93.23-.53.47-.71.94-.36.7.53,1.44,1.01,2.19,1.54-.23.28-.39.49-.61.75ZM102.75,136.84c.67-.21,1.15.08,2.69,1.69-.55.3-1.7-.45-2.69-1.69ZM88.55,117.33c-.22.61-.42,1.2-.63,1.78h-.21c-.3-1.22-.6-2.44-.94-3.83.65.75,1.22,1.4,1.78,2.04ZM85.08,115.4c.51,1.68,1.01,3.36,1.5,5.05.16.56-.13.92-.65,1.15-.38-2.19-.75-4.34-1.14-6.61.14.19.25.29.29.4ZM83.84,124.44c-.45-2.64-.85-5.03-1.29-7.58.15-.08.48-.23.8-.39.11.31.27.61.34.93.38,1.89.79,3.78,1.04,5.69.05.37-.53.83-.89,1.35ZM71.7,121.63c-1.01-1.84-2.07-3.65-2.99-5.54-.77-1.59-1.5-3.23-2.01-4.92-.59-1.96-.91-3.99-1.36-5.99-.17-.73-.38-1.45-.57-2.19.13-.04.22-.09.28-.07,2.08.68,4.36.55,6.34,1.69.83.47,1.91.5,2.85.82,2.03.69,3.89,1.65,5.47,3.15,1.53,1.45,3.15,2.81,4.73,4.2-.47.64-.77,1.23-1.23,1.64-1.48,1.3-3.03,2.53-4.55,3.78-.91.75-1.76,1.59-2.75,2.22-1.01.64-2.16,1.06-3.23,1.6-.49.25-.76.01-.98-.38ZM82.28,124.05q.24,1.31-1.07,2.13c-.36-2.4-.71-4.78-1.09-7.3.17-.13.5-.4.91-.73.85,1.84,1.26,3.7,1.21,5.66,0,.08.03.16.04.24ZM73.01,123.4c.93-.17,1.22.18,1.44,1.58-.5-.54-.92-1.01-1.44-1.58ZM76.39,126.43c-.13-1.02-.52-2.01-.87-2.99-.35-.95-.3-1.14.79-1.56.96,1.96,1.14,4.07,1.33,6.23-1.04-.39-1.14-.77-1.25-1.68ZM77.9,122.03c-.39-1.19-.41-1.19.89-1.99.26,1.47.53,2.88.77,4.3.1.61.06,1.25.22,1.83.19.69.04,1.13-.69,1.49-.2-1.12-.36-2.21-.58-3.29-.16-.79-.36-1.57-.61-2.34ZM84.6,144.65c-.42-.83-.86-1.69-1.46-2.4-1.12-1.33-.96-2.73-.48-4.19.28-.86.63-1.7,1-2.68.97.97,1.92,1.9,2.86,2.85,1.53,1.54,3.05,3.1,4.61,4.61.19.19.64.11.97.16-.02-.32.09-.75-.07-.95-.73-.88-1.54-1.7-2.32-2.54-1.75-1.89-3.52-3.76-5.26-5.67-.36-.4-.71-.35-1.15-.27-.25.05-.64.08-.78-.06-1.19-1.19-2.34-2.42-3.49-3.64-.1-.1-.13-.27-.1-.22,1.31-.97,2.56-1.87,3.78-2.81,1.09-.84,2.24-1.61,3.18-2.6,1.06-1.11,2.4-2.01,3.05-3.49.14-.32.3-.64.4-.98.15-.52.61-.77.94-.43,1.21,1.27,2.38,2.58,3.56,3.87.04.04.11.08.11.12-.21,1.39,1.15,1.61,1.82,2.27,1.33,1.32,2.82,2.47,4.28,3.64.86.69,1.77,1.3,2.7,1.89.18.11.7.02.76-.11.14-.32.27-.84.1-1.07-.32-.44-.84-.73-1.27-1.09-2.01-1.62-4.02-3.24-6.06-4.89,1.11-1.33,2.3-2.33,3.88-2.77.18-.05.45.08.63.2,1.54,1.02,3.05,2.09,4.61,3.08.99.63,2.06,1.14,3.07,1.74.34.2.66.47.88.79.12.17.1.59-.04.74-1.33,1.53-2.69,3.04-4.06,4.53-.76.83-1.59,1.6-2.34,2.44-1.51,1.7-2.99,3.43-4.48,5.14-1.3,1.49-2.55,3.03-3.92,4.45-1.23,1.28-2.61,2.42-3.9,3.64-.23.22-.37.53-.57.78-.68.83-1.37,1.65-2.16,2.59-1.19-2.44-2.21-4.58-3.28-6.71Z"/>
    <path class="cls-1" d="M98.24,156.36c1.05.96,2.07,1.95,3.09,2.95,4.66,4.6,9.31,9.2,13.97,13.8,1.99,1.97,3.98,3.94,5.98,5.89.21.2.53.3.79.45.09-.1.18-.19.27-.29-1.37-1.67-2.68-3.39-4.13-4.99-2.08-2.29-4.25-4.5-6.39-6.74-1.94-2.02-3.88-4.03-5.85-6.02-2.11-2.13-4.24-4.23-6.37-6.33-.38-.37-.86-.36-1.21.05-.29.35-.71.71-.15,1.23Z"/>
    <path class="cls-1" d="M140.68,152.25c-.2-.36-.25-.62-.41-.72-1.62-1.09-3.22-2.22-4.9-3.2-1.3-.76-2.7-1.35-4.06-1.99-2.62-1.23-5.27-2.42-7.88-3.68-2.92-1.42-5.8-2.91-8.7-4.34-.5-.25-1.06-.53-1.58-.5-.4.03-1.02.47-1.09.82-.08.36.26.96.95.9.22-.02.47.1.68.2,3.37,1.62,6.71,3.29,10.1,4.87,4.32,2.01,8.67,3.95,13.01,5.91,1.21.55,2.43,1.09,3.88,1.74Z"/>
    <path class="cls-1" d="M127.21,168.11c.08-.1.17-.21.25-.31-1-1.09-1.95-2.24-3.02-3.26-1.17-1.12-2.47-2.09-3.67-3.17-2.37-2.11-4.7-4.25-7.07-6.36-2.13-1.89-4.3-3.75-6.44-5.64-.38-.33-.72-.72-1.1-1.05-.41-.37-1.35-.38-1.54,0-.25.48-.11.89.34,1.27.85.71,1.63,1.5,2.46,2.22,2.61,2.25,5.23,4.49,7.86,6.71,3.23,2.74,6.46,5.47,9.72,8.17.67.55,1.47.95,2.21,1.42Z"/>
    <path class="cls-1" d="M109.78,144.24c-.33.6.01.92.51,1.23,2.2,1.41,4.34,2.91,6.57,4.25,1.14.69,2.44,1.12,3.67,1.67.04-.08.09-.17.13-.26-.54-1.05-1.51-1.66-2.47-2.29-1.47-.95-2.93-1.89-4.36-2.89-.84-.58-1.59-1.28-2.39-1.92-.5-.39-1.38-.3-1.65.2Z"/>
    <path class="cls-1" d="M95.08,139.62c.17.16.49.4.6.34.21-.12.31-.42.52-.74-.29-.46-.5-.93-.82-1.29-1.13-1.23-2.27-2.46-3.48-3.62-1.26-1.21-2.6-2.33-3.92-3.48-.45-.39-1.34-.29-1.55.18-.27.58-.26,1.04.51,1.3.46.16.83.58,1.21.92,1.48,1.32,2.95,2.66,4.41,4,.85.78,1.67,1.6,2.52,2.38Z"/>
    <path class="cls-1" d="M90.72,128.82c1.52,1.18,3.03,2.39,4.56,3.56.77.59,1.56,1.14,2.37,1.66.46.29,1-.03,1.02-.75-.19-.25-.4-.71-.76-1-2-1.6-4.04-3.16-6.05-4.74-.64-.5-1.06-.49-1.51.1-.41.54-.03.86.37,1.17Z"/>
  </g>
  <path class="cls-1" d="M55.6,232.38c.32.33.91.38,1.76.72.89-.51,2.3-.87,2.77-1.73.42-.77.17-2.38-.41-3.13-1.85-2.41-3.97-4.62-6.04-6.86-4.48-4.87-6.55-10.4-4.83-17.02.63-2.41,1.11-4.86,1.9-7.22,1.47-4.44,3.13-8.83,6.13-12.51.99-1.21,2.27-2.2,3.47-3.21,1.03-.87,1.62-3.67.84-4.41-1.62-1.54-4.96-.96-6.2.98-.66,1.04-1.4,2.1-2.34,2.86-3.29,2.65-6.88,4.96-10,7.79-4.11,3.73-8.87,3.7-13.86,3.3-3.55-.29-5.88-2.78-8.54-4.63-.86-.6-1.49-1.68-1.96-2.66-1.23-2.58-3.08-3.28-5.76-2.56-.82.22-2.01,1.88-1.82,2.53.45,1.57,1.28,3.43,2.56,4.3,2.98,2.02,3.95,4.98,4.12,8.08.44,7.56-1,14.6-6.91,20.07-1.39,1.29-.67,3.53,1.18,4.02,1.78.46,3.28-.21,4.38-1.51,3.96-4.67,11.92-6.21,17.33-3.09,7.91,4.57,15.76,9.27,22.22,15.9ZM18.85,212.69c2.32-6.07,3.98-11.83,3.16-17.9,10.19,3.03,19.32,2.72,26.63-6.19.11.18.22.37.33.55-.93,2.69-1.92,5.37-2.8,8.09-2.26,7.01-4.17,14.03-.01,21.06.06.1-.02.28-.06.59-2.48-1.47-5.04-2.72-7.31-4.37-6.16-4.5-12.64-5.38-19.95-1.83Z"/>
  <path class="cls-1" d="M665.31,477.61c-1.31.32-1.94,1.22-1.54,2.67.1.36-.05.81-.14,1.21-1.35,6.37-2.72,12.74-4.04,19.11-.25,1.2-.32,2.43-.51,3.92-1.65-1.28-3.04-2.33-4.41-3.41-2.26-1.77-4.47-3.6-6.77-5.32-.77-.57-1.78-1.29-2.6-1.19-1.22.14-2.49.82-2.38,2.29,4.29,3.89,5.93,9.17,8.83,13.92-2.45,1.1-4.5,2.12-6.62,2.94-5.2,2.03-10.44,3.95-15.65,5.96-1.76.68-3.42,1.71-5.23,2.16-1.56.39-1.69,1.36-1.52,2.45.18,1.11.81,2.01,2.2,2.08,2.33.12,4.67.22,6.96.57,2.97.46,5.89,1.22,8.86,1.73,4.22.72,8.47,1.32,12.75,1.98-.05.21-.05.39-.13.53-2.12,3.52-4.17,7.07-6.39,10.53-1.29,2.02-2.63,4.09-4.35,5.72-1.09,1.03-1.41,1.76-.73,2.92.54.92,3.02,1.33,3.72.6,1.35-1.37,2.51-2.93,3.9-4.25,2.84-2.7,5.79-5.29,8.87-8.1.42.84.76,1.25.84,1.72.74,4.24,1.55,8.48,2.1,12.75.31,2.41.2,4.88.27,7.32.08,2.65.28,5.3.18,7.93-.06,1.67,1.09,2.25,2.14,2.59,1.07.35,1.8-.38,2.25-1.61,2.14-5.91,4.39-11.78,6.69-17.63,1.01-2.57,2.39-4.99,3.31-7.59.77-2.17,1.62-2.68,3.66-1.52,2.85,1.63,5.71,3.25,8.56,4.88,1.12.64,2.61,1.06,3.23,2.03.89,1.38,2.08,1.75,3.41,2.1.92.24,1.8.35,2.39-.74.55-1.02.36-1.74-.47-2.49-2.03-1.86-4.25-3.59-5.96-5.72-1.96-2.43-3.51-5.21-5.14-7.89-.85-1.39-.39-2.05,1.27-2.46,4.62-1.13,9.2-2.39,13.84-3.46,5.73-1.32,11.51-2.45,17.24-3.81.73-.17,1.89-1.49,1.76-1.84-.44-1.11-1.21-2.52-2.2-2.89-2.49-.92-5.2-1.24-7.78-1.97-3.34-.94-6.63-2.1-9.97-3.05-5.28-1.52-10.58-2.94-16.1-4.47,1.24-1.4,2.2-2.34,2.99-3.4,1.25-1.68,2.29-3.53,3.59-5.17,2.29-2.88,4.75-5.64,7.06-8.51.72-.9,1.35-2.21.15-3.01-1.04-.68-2.55-1.56-3.55.4-.2.38-.69.64-1.08.9-4,2.73-8.01,5.44-11.99,8.2-1.53,1.06-2.98,2.24-4.52,3.4-.54-.87-1.16-1.59-1.48-2.43-1.3-3.46-2.6-6.92-3.74-10.44-1.2-3.73-2.12-7.54-3.35-11.26-.36-1.09-1.22-2.29-2.73-1.91ZM668.38,494.24c.18.71.83,1.29,1.05,2,1.03,3.27,1.88,6.6,3.01,9.82.4,1.13,1.26,2.38,2.26,2.93.58.32,2.18-.38,2.77-1.08,3.53-4.19,7.99-7.16,12.77-9.85-.6.62-1.25,1.2-1.79,1.88-1.56,1.96-3.02,3.99-4.62,5.92-.84,1.01-1.83,1.94-2.87,2.75-.88.68-1.97,2.93-1.31,3.83.44.61,1.56.79,2.42,1.02,1.86.51,3.75.9,5.61,1.41,5.53,1.53,11.06,3.1,16.58,4.65.23.06.47.09.68.17,2.5,1.02,4.99,2.06,7.56,3.42-1.94.39-3.9.73-5.83,1.18-3.72.87-7.41,1.87-11.14,2.67-4.76,1.02-9.56,1.89-14.33,2.88-.67.14-1.75.58-1.8.98-.08.75.21,1.88.76,2.3,2.92,2.23,3.72,5.81,5.84,8.52-.13.17-.25.35-.38.52-1.82-1.13-3.81-2.05-5.4-3.43-1.87-1.62-2.39-1.89-4.54-.66-.79.45-1.63.79-2.41,1.24-.23.13-.46.48-.48.75-.44,6.3-3.99,11.48-6.13,17.16-.35.92-.76,1.81-1.48,2.7-.15-1.93-.28-3.87-.47-5.8-.22-2.27-.39-4.56-.76-6.81-.53-3.32-1.23-6.61-1.84-9.92-.29-1.57-.79-2.84-2.61-3.31-1.88-.48-2.56,1.01-3.58,1.9-1.2,1.04-2.24,2.27-3.34,3.42-.1-.09-.19-.18-.29-.28,1.47-2.28,2.93-4.58,4.44-6.83.25-.37.8-.53,1.09-.88.54-.66,1.52-1.85,1.38-2.02-.75-.88-1.87-2.21-2.72-2.12-4.94.56-9.62-.74-14.37-1.54-3.4-.57-6.79-1.28-10.18-1.94-.45-.09-.89-.23-1.33-.35-.04-.16-.08-.33-.11-.49,1.21-.47,2.43-.93,3.64-1.4,5.38-2.1,10.77-4.17,16.12-6.33,1.61-.65,3.25-1.37,4.65-2.38,1.63-1.17,1.48-2.11.31-3.72-1.51-2.06-2.84-4.25-4.26-6.39.15-.17.3-.35.45-.52,1.11.73,2.3,1.36,3.29,2.23,1.01.89,1.88,1.96,2.69,3.04,1.23,1.63,2.17,1.72,3.34.06.35-.49.48-1.19.58-1.81.53-3.48.98-6.97,1.53-10.45.46-2.88,1-5.75,1.58-8.61.21-1.02.63-1.99,1.4-3.06.84,3.54,1.65,7.09,2.55,10.61Z"/>
  <g>
    <path class="cls-1" d="M932.42,621.19c-.94.39-2.69.43-3.24-.15-1.29-1.34-.28-6.14,1.09-7.51.72-.72,1.23-1.67,1.76-2.56.32-.54.41-1.23.76-1.74,1.75-2.56,3.67-5,5.28-7.64,1.41-2.32,2.81-4.65,3.46-7.4,1.14-4.81,1.65-9.59.23-14.4-.61-2.06-1.23-4.16-2.25-6.03-.77-1.39-2.28-2.35-3.29-3.64-2.17-2.74-5.21-2.41-8.32-2.75.22,1.32.12,2.52.62,3.39,1.06,1.86,1.29,3.75.8,5.73-.28,1.13-1.34,2.22-1.25,3.26.22,2.68-1.6,3.94-3.12,5.48-1.61,1.63-4.74.97-5.43-1.23-.31-.98-.32-2.06-.38-3.1-.12-2.22-.67-4.55-.18-6.63,1.37-5.8,1.59-11.38-.17-17.22-1.36-4.52-3.98-7.45-7.92-9.59-.5-.27-.89-.76-1.17-1.01-1.08-.28-1.94-.36-2.65-.73-2.26-1.19-4.63-1.09-6.88-.32-.83.29-1.44,1.62-1.8,2.6-.11.29.93,1.1,1.55,1.53,1.65,1.15,3.45,2.11,4.98,3.39.63.53.55,1.83,1.09,2.55,2.23,2.98,2.49,6.29,1.86,9.76-.77,4.24-1.88,8.36-4.31,12.02-2.08,3.13-4.04,6.35-6.24,9.39-1.8,2.47-4,4.65-5.81,7.11-1.54,2.1-2.87,4.39-4.12,6.68-1.09,1.98-2.28,4.01-2.85,6.16-1.54,5.85-.44,11.55,1.77,17.05.71,1.76,2.77,2.91,2.39,5.2-.02.14.37.32.52.52.72.96,1.32,2.03,2.15,2.88,1.76,1.82,3.37,3.99,5.5,5.18,3.13,1.75,6.64,2.83,10.03,4.08.86.32,1.87.3,2.81.3,1.25,0,2.58-.47,3.73-.18,3.08.77,5.44-1.19,8.13-1.83,2.08-.5,4.05-1.48,6.07-2.25.53-.2,1.11-.34,1.55-.67.76-.58,1.36-1.38,2.13-1.93,1.48-1.04,3.17-1.82,4.54-2.99,1.92-1.63,3.63-3.5,5.42-5.28,1.18-1.17,2.4-2.3,3.48-3.55.47-.54.67-1.33.95-2.02.26-.63.33-1.37.71-1.9,3.16-4.41,3.66-9.51,3.87-14.67.03-.77.18-1.89-1.26-1.95-1.18-.05-1.86.2-2.3,1.46-.66,1.86-1.58,3.64-2.48,5.4-2.66,5.18-6.28,9.46-11.79,11.73ZM943.68,616.66c.41-.54.9-1.03,1.36-1.55.17.12.34.24.51.36-1.57,2.29-3.05,4.63-4.71,6.85-2.85,3.79-6.54,6.63-10.39,9.38-3.42,2.44-7.07,3.87-11.07,5.02-2.44.71-4.88,1.4-7.34,1.48-2.75.08-5.51-.34-7.99-2.04-1.43-.98-3.3-1.31-4.98-1.92-.24-.09-.63-.05-.73-.21-1.39-2.26-4.58-2.83-5.12-6.09-.33-1.95-2-3.67-3.01-5.53-.51-.93-.89-1.93-1.33-2.89.17-.09.35-.18.52-.27.86,1.26,1.57,2.67,2.62,3.75,1.07,1.1,2.43,1.96,3.75,2.79,1.36.85,2.27.39,2.52-.86-1.85-1.92-3.64-3.57-5.16-5.44-.68-.83-1.04-2.08-1.16-3.18-.32-2.96-1.04-5.93.71-8.81,1.2-1.98,2.11-4.16,2.98-6.32.26-.64-.07-1.51-.14-2.35-2.16.24-3.77.5-4.26,2.85-.32,1.54-1.13,3-1.88,4.42-.22.42-.94.57-1.44.84,0,0,0,0,0,.01,0,.04,0,.07,0,.11.05.91.11,1.81.17,2.71.16,2.39.34,4.78.29,7.34-.3-1.04-.84-2.09-.85-3.13,0-2.31.24-4.62.39-6.92,0-.04,0-.07,0-.11,0,0,.01,0,.02-.01.25-.4.62-.78.74-1.21,1.59-6.23,5.5-10.88,9.98-15.26,1.79-1.75,3-4.11,4.34-6.28,1.64-2.64,3.2-5.33,4.66-8.07.87-1.64,1.49-3.42,2.22-5.14.39-.9.92-1.77,1.12-2.71.22-1.05.05-2.19.22-3.26.52-3.28.35-6.44-1.1-9.49-.79-1.66-1.49-3.37-2.29-5.16,3.16.87,5.28,2.84,6.62,5.8,1.02,2.26,1.79,4.47,1.5,7.05-.2,1.84.36,3.77.17,5.62-.25,2.38-.94,4.72-1.4,7.08-.79,4-.18,7.88,1.13,11.66.82,2.38,6.05,4.69,8.12,3.3,4.1-2.76,7.6-6.14,8.13-11.52.22-2.22.51-4.44.77-6.66.18-.06.35-.12.53-.17.86,1.28,1.71,2.56,2.57,3.84,1.54,2.32,2.34,4.92,2.57,7.66.13,1.53-.06,3.09-.22,4.63-.18,1.86-.45,3.71-.75,5.56-.12.75-.31,1.53-.68,2.18-1.72,3.04-3.09,6.43-5.39,8.97-3.1,3.41-4.47,7.63-6.55,11.5-.77,1.43-1.07,3.44-.26,5.22.11.23.32.48.29.71-.36,3.36,2.44,3.3,4.43,4.08.3.12.79-.01,1.1-.19,3.37-1.94,6.83-3.75,10.03-5.95,1.34-.92,2.09-2.7,3.14-4.07Z"/>
    <path class="cls-1" d="M947.32,577.46c-.2,1.68.15,3.09.89,4.52.66,1.27,1.15,2.63,1.85,3.88.54.96,1.04,2.42,2.47,1.93,1.22-.42,1.69-1.44,1.2-2.96-.33-1.04-.3-2.54.24-3.44,1.47-2.45,3.23-4.75,5-7,1.09-1.38,2.72-2.39,3.59-3.87,3.37-5.71,2.63-11.68.6-17.61-.15-.44-.88-.68-1.04-.8-2.19.05-3.63,1.65-3.51,3.34.03.41,0,.96-.24,1.22-1.45,1.59-2.87,3.22-4.49,4.63-1.35,1.19-2.78,2.17-4.02,3.61-2.02,2.34-2.65,4.8-2.7,7.62-.03,1.64.35,3.31.15,4.92ZM953.4,567.04c2.19-2.5,4.43-4.95,6.69-7.37.43-.46,1.1-.69,1.86-1.14,0,2.6.3,4.89-.08,7.06-.4,2.28-1.51,4.31-3.48,5.9-2.06,1.66-3.77,3.74-5.63,5.64-.42.43-.81.9-1.26,1.4-2.3-3.78-.42-8.84,1.9-11.48Z"/>
  </g>
  <g>
    <path class="cls-1" d="M685.9,210.62c-.77-4.04-3.08-7.8-4.89-11.61-.86-1.82-2.09-3.36-4.03-4.39-3.48-1.85-6.81-3.89-11.03-2.5-.87.29-1.91.11-2.87.14-1.9.04-4.11-1.42-5.49,1.16-.11.21-.61.18-.88.33-3.27,1.86-6.53,3.73-9.79,5.61-.21.12-.38.34-.55.53-3.45,3.92-6.75,7.97-10.37,11.72-3.4,3.53-6.31,7.31-8.35,11.78-.58,1.26-1.4,2.41-2.2,3.76-1.63-1.87-2.8-3.58-4.31-4.89-3.34-2.89-6.88-5.54-10.27-8.37-2.72-2.27-5.01-5.11-8.71-5.96-.41-.1-.69-.73-1.07-1.06-.31-.27-.67-.5-1.05-.67-1.77-.77-3.56-1.52-5.61-2.39-.03.01-.63.65-.99.53-3.4-1.14-6.69-.23-9.96.49-2.07.45-3.59,2.07-4.58,3.77-1.01,1.74-1.63,3.83-1.89,5.83-.27,2.09.03,4.27.18,6.4.09,1.23-.43,2.75,1.47,3.29.39.11.53.98.85,1.47,2.1,3.26,3.88,6.79,6.4,9.68,3.07,3.53,6.78,6.5,10.18,9.75,1.81,1.73,3.44,3.66,5.33,5.3,2.92,2.56,6.12,4.81,8.96,7.44,3.52,3.26,7.4,5.97,11.42,8.54,2.61,1.67,5.08,3.56,7.43,5.22.19,1.03.1,2.2.51,2.42.88.46,2.13.79,3.01.5.86-.28,1.37-1.49,2.17-2.12,3.58-2.82,7.25-5.52,10.8-8.38,5.01-4.03,9.93-8.19,14.93-12.24,5.24-4.25,10.25-8.74,14.78-13.74,1.73-1.91,3.55-3.86,4.78-6.09,1.8-3.26,3.06-6.81,4.63-10.19,1.65-3.57,1.72-7.54,1.05-11.05ZM580.75,218.86c2.31.7,2.38,1.11.68,3.59-.25-1.31-.44-2.32-.68-3.59ZM584.11,226.91c-.78-1.14-1.32-1.93-1.95-2.85.84-.13,1.55-.25,2.38-.38-.12.92-.24,1.78-.43,3.23ZM591.66,236c-.61-.52-1.06-.89-1.5-1.28-.43-.38-.84-.77-1.27-1.17,2.1-.79,2.87-.2,2.77,2.44ZM590.59,231.21c.65-1.43.8-3.07,2.62-3.98.13,2.18-.45,3.54-2.62,3.98ZM608.64,251.1c-.12.29-.91.32-1.39.46-.12-.17-.24-.34-.37-.5.43-.76.86-1.53,1.29-2.29.24.06.47.12.71.17-.06.73.02,1.51-.24,2.16ZM623.41,261.86c-.62-2.28-.25-2.9,2.08-3.58-.85,1.47-1.47,2.52-2.08,3.58ZM624.79,244.69c.08-1.81-.29-3.67,1.67-4.91.5,2.69-.05,4.36-1.67,4.91ZM630.31,241.11c-.21-.03-.42-.05-.63-.08.13-1.54.26-3.07.39-4.61.25.03.51.06.76.09-.17,1.53-.35,3.07-.52,4.6ZM634.73,233.19c-.21-.05-.43-.1-.64-.14.31-1.82.62-3.64.93-5.45.32.06.64.13.96.19-.42,1.8-.83,3.61-1.25,5.41ZM641.23,219.77c.19.11.38.22.57.33-.8,1.36-1.59,2.72-2.39,4.07-.21-.12-.41-.24-.61-.36.81-1.35,1.62-2.7,2.43-4.05ZM640.62,249.89h-2.12c.6-1.2,1.16-2.34,1.73-3.47.2.05.39.1.59.15-.06,1.08-.13,2.17-.19,3.33ZM639.35,236.84c-.68-2.15-.35-2.94,1.79-5.3.19.13.39.26.58.38-.79,1.64-1.58,3.28-2.37,4.92ZM639.45,230.95c-.15-.07-.3-.15-.45-.22.71-1.45,1.43-2.9,2.14-4.35.29.14.58.28.87.43-.85,1.38-1.71,2.76-2.56,4.14ZM657.79,206.88v7.49c-1.56-1.35-1.86-5.09,0-7.49ZM656.5,217.89c.06-.52.53-1,1.02-1.87,0,2.81.03,5-.04,7.2-.01.35-.5.69-.77,1.03-.18-.34-.52-.69-.51-1.03.04-1.78.11-3.56.3-5.33ZM647.69,242.27c.38-3.84-.33-7.8,1.28-11.5-.92,3.78,1.08,7.87-1.28,11.5ZM647.66,220.81c1.01-2.99-.03-6.12,2.7-8.56.54,5.33.23,6.37-2.7,8.56ZM670.31,222.66c.03.96-.5,2-.95,2.91-1.3,2.64-2.43,5.43-4.13,7.8-2.12,2.97-4.71,5.6-7.15,8.33-.37.42-1.04.58-1.46.8-.61-.72-1.07-1.27-1.53-1.82,1.06-1.18,2.17-2.33,3.17-3.56.4-.49.58-1.16.83-1.77.12-.28.08-.71.28-.87,2.41-2.04,2.67-5.18,3.89-7.81.94-2.02,1.37-4.35,1.65-6.59.18-1.36-.46-2.81-.52-4.23-.11-2.55-.57-5.13.17-7.62.22-.73,1.13-1.36,1.88-1.75.28-.15,1.06.45,1.48.84,1.39,1.28,1.86,2.81,2.23,4.75.67,3.58.07,7.07.18,10.59Z"/>
    <path class="cls-1" d="M517.77,242.81c6.92-.69,13.82-1.62,20.73-2.43,7.84-.91,15.7-1.74,23.54-2.66.99-.12,1.96-.51,2.93-.78-.02-.22-.04-.44-.06-.67-.9-.18-1.81-.54-2.71-.51-7.01.22-14.03.29-21.01.84-8,.63-15.96,1.73-23.94,2.59-1.29.14-2.36.78-1.98,1.96.25.77,1.69,1.74,2.5,1.66Z"/>
    <path class="cls-1" d="M717.79,254.41c-5.63-1.94-11.35-3.64-17.09-5.27-4.68-1.34-9.41-2.51-14.15-3.6-1.29-.3-2.71-.05-4.07-.05-.06.17-.12.35-.18.52.4.35.74.81,1.2,1.02,1.74.8,3.46,1.71,5.28,2.24,5.89,1.73,11.88,3.15,17.74,4.99,4.99,1.57,10.17,2.8,14.48,6.03,1.48,1.11,2.87,1.47,4.4-.6-.46-.58-.87-1.43-1.54-1.86-1.95-1.25-3.9-2.68-6.06-3.42Z"/>
    <path class="cls-1" d="M744.23,226.01c.68-.18,1.6-1.23,1.59-1.86-.03-1.31-1.24-.92-2.1-.8-1.72.23-3.43.52-5.15.75-12.47,1.69-24.94,3.35-37.4,5.08-2.27.32-4.49.94-6.73,1.42.02.22.05.44.07.67.29.03.57.11.86.1,2.68-.13,5.36-.2,8.03-.43,5.76-.48,11.51-.93,17.25-1.58,5.79-.65,11.55-1.51,17.32-2.3,2.1-.29,4.22-.52,6.25-1.05Z"/>
    <path class="cls-1" d="M542.38,267.8c1-.51,1.63-.78,2.21-1.13,1.37-.82,2.63-1.88,4.08-2.47,5.1-2.06,10.28-3.91,15.38-5.97,1.77-.71,3.39-1.79,5.05-2.75.26-.15.54-.64.47-.87-.09-.29-.51-.64-.82-.66-.63-.05-1.3,0-1.9.17-4.91,1.45-9.9,2.7-14.69,4.48-3.7,1.38-7.16,3.41-10.69,5.21-.71.36-1.59.88-.81,1.94.51.69,1.1,1.33,1.71,2.06Z"/>
    <path class="cls-1" d="M538.15,214.31c1.41,0,2.83.09,4.24.25,4.88.55,9.75,1.14,14.63,1.72.03.1.06.2.09.3,1-.29,1.99-.59,2.99-.89-.88-.66-1.67-1.66-2.66-1.93-3.82-1.03-7.7-1.84-11.56-2.72-2.73-.62-5.74.15-8.24-1.87-.49-.39-2,.1-2.79.59-.58.35-.67,1.15-.32,2.19.68,1.98,1.85,2.36,3.62,2.35Z"/>
    <path class="cls-1" d="M699.75,211.14c1.63-.23,3.25-.56,4.86-.91,6.82-1.48,13.16-4.17,19-7.95.68-.44.82-1.72,1.2-2.61-.96-.31-1.98-.97-2.87-.84-.98.15-1.87,1-2.76,1.62-5.24,3.65-11.23,5.64-17.13,7.84-1.36.51-2.65,1.23-3.97,1.86.05.22.1.45.15.67.51.11,1.04.38,1.52.31Z"/>
  </g>
  <g>
    <path class="cls-1" d="M1278.35,100.36c.63-.81,1.18-1.71,1.75-2.58,1.08-1.66,2.15-3.33,3.22-5,0,.6-.16,1.06-.36,1.5-.83,1.82-1.7,3.62-2.51,5.46-.42.95.12,1.65.68,2.05.27.19.94-.1,1.24-.43.4-.44.59-1.16.93-1.7,2.5-3.9,5.01-7.78,7.52-11.66.11-.17.29-.26.57-.49-1.48,3.38-2.9,6.53-4.24,9.75-.78,1.89-1.44,3.87-2.1,5.83-.3.9-.16,1.7.67,2.17.85.48,1.13-.28,1.49-.92,2.41-4.23,4.8-8.48,7.23-12.69.8-1.39,1.7-2.69,2.55-4.03.09.08.18.16.27.25-.42.73-.83,1.47-1.25,2.2-2.08,3.63-4.24,7.2-6.23,10.9-1.98,3.66-3.89,7.39-5.64,11.22-.72,1.59-1.05,3.5-1.31,5.32-.08.54.56,1.47,1.06,1.83.57.41.97-.31,1.33-.9,2.18-3.59,4.37-7.18,6.62-10.71,2.3-3.62,4.67-7.17,7.01-10.76,1.93-2.96,3.8-5.98,5.77-8.9,2.09-3.09,4.26-6.1,6.42-9.11,1.14-1.6,2.35-3.14,3.52-4.7.07.43-.03.69-.16.93-1.66,3.04-3.18,6.23-5.02,9.1-3.95,6.14-8.07,12.11-12.1,18.16-1.17,1.75-2.28,3.56-3.41,5.34-.57.89-.34,1.56.32,2.21.66.66,1.34.73,1.92,0,.77-.97,1.44-2.05,2.16-3.07,3.78-5.36,7.54-10.75,11.35-16.07,1.6-2.22,3.33-4.31,5-6.44,1.54-1.97,3.09-3.94,4.65-5.9.21-.27.49-.46.73-.68-.41,1.19-.97,2.15-1.55,3.08-4.16,6.62-8.37,13.18-12.45,19.87-1.46,2.39-2.58,5.09-3.85,7.65-.47.94-.02,1.6.54,2.1.62.56,1.35.69,1.93-.04.77-.96,1.51-1.97,2.18-3.03,1.02-1.62,1.86-3.41,2.96-4.94,4.2-5.85,8.42-11.68,12.74-17.38,2.15-2.84,4.55-5.4,6.84-8.09.13.47.08.77-.05,1-2.51,4.44-5.06,8.84-7.53,13.31-2.44,4.41-4.81,8.87-7.16,13.35-.33.63-.55,1.48-.53,2.22.02.56.42,1.39.82,1.58.4.19,1.2.03,1.04-1.09-.02-.17.14-.4.25-.56,1.6-2.33,3.18-4.68,4.82-6.97,1.43-2.01,2.92-3.96,4.41-5.91.77-1.01,1.56-2.01,2.38-2.97,1.15-1.36,2.34-2.69,3.51-4.03.07.07.13.15.2.22-.21.41-.41.83-.64,1.23-2.96,5.2-5.23,10.96-8.64,15.8-.36.51-.48,1.07.04,1.57.5.48.96.65,1.48-.06.89-1.21,1.82-2.38,2.77-3.51,1.89-2.24,3.81-4.44,5.74-6.64.52-.59,1.12-1.07,1.68-1.6-.36,1.32-.96,2.42-1.48,3.58-.23.51-.44,1.17-.36,1.7.05.37.69.95.93.86.37-.14.62-.75.91-1.17.07-.1.09-.23.15-.34,1.55-2.73,3.1-5.46,4.65-8.19h-.87c.55-1.06.91-2.06,1.49-2.84.97-1.32,1.57-3.07,3.14-3.75.83-.36.58-1.45.29-2.27-.3-.85-.92-.89-1.41-.43-.63.59-1.13,1.36-1.68,2.07-2,2.63-3.96,5.31-6,7.88-1.1,1.39-2.34,2.6-3.52,3.89-.09-.1-.19-.21-.28-.31,1.83-3.06,3.64-6.14,5.5-9.17,1.74-2.83,3.11-6.01,5.55-8.16.97-.86.89-2.04-.17-3.14-.69-.72-1.13.29-1.64.65-.18.13-.31.36-.45.55-.87,1.14-1.69,2.34-2.61,3.4-1.14,1.32-2.37,2.51-3.54,3.78-2.39,2.59-4.76,5.2-7.15,7.78-.3.33-.66.57-1,.86,0-.4.1-.65.23-.88.96-1.67,1.91-3.35,2.88-5.01,2.77-4.69,5.48-9.44,8.36-14.02,1.32-2.09,3.01-3.82,4.48-5.78.27-.36.27-1.03.39-1.56-.48-.14-.98-.46-1.42-.36-.45.1-.9.53-1.24.94-1.09,1.32-2.02,2.86-3.21,4.02-4.53,4.41-8.85,9.12-12.84,14.25-2.45,3.16-4.8,6.43-7.14,9.72-2.71,3.81-5.36,7.69-8.03,11.53-.25.35-.52.68-.78,1.02.11-.68.37-1.2.67-1.68,2.98-4.69,6.01-9.33,8.95-14.06,3.66-5.89,7.23-11.87,10.87-17.79,1.18-1.93,2.44-3.79,3.71-5.63.33-.49,1.04-.94.53-1.53-.35-.4-1.21-.49-1.7-.26-.55.26-.99.98-1.38,1.58-1.48,2.28-2.78,4.77-4.42,6.86-2.49,3.16-5.25,6.01-7.84,9.08-2.02,2.39-3.93,4.92-5.9,7.37-.86,1.06-1.75,2.09-2.62,3.13.08-.34.22-.64.39-.9,1.41-2.25,2.88-4.44,4.22-6.75,1.73-2.99,3.46-5.99,5.02-9.11,1.6-3.19,2.98-6.54,4.49-9.79.35-.76.75-1.58.13-2.23-.38-.4-1.08-.36-1.65-.52-.23,2.15-2.94,6.93-4.15,8.28-4.41,4.91-8.23,10.47-12.01,16.07-2.55,3.77-4.99,7.63-7.45,11.49-3.03,4.75-6.02,9.52-9.02,14.29-.72,1.14-1.4,2.31-2.1,3.47-.08-.05-.16-.11-.23-.16.15-.51.27-1.04.45-1.54,1.77-4.66,3.99-9.01,6.38-13.22,2.73-4.81,5.6-9.51,8.38-14.28,3.91-6.71,7.8-13.44,11.66-20.2.19-.34.07-1.14-.13-1.56-.11-.22-.82-.27-1.07-.06-.51.44-.97,1.04-1.31,1.69-1.38,2.58-2.9,5.01-4.63,7.28-2.91,3.83-5.74,7.76-8.53,11.72-1.46,2.06-2.77,4.28-4.15,6.43-.07-.06-.15-.12-.22-.17,2.69-5.36,4.77-11.17,8.16-16.37-.46-.39-.92-1.03-1.45-1.14-.29-.06-.74.74-1.06,1.21-.83,1.22-1.6,2.51-2.45,3.71-1.57,2.2-3.21,4.33-4.78,6.52-1.29,1.8-2.52,3.66-3.78,5.5.36-1.13.88-2.14,1.27-3.22.7-1.97,1.32-3.99,1.95-6,.31-.99-.43-1.25-.89-1.43-.27-.11-.83.3-1.04.66-.36.63-.48,1.47-.84,2.1-.95,1.68-1.97,3.3-2.96,4.94-1.42,2.37-2.84,4.74-4.26,7.12-.07-.36,0-.63.09-.89.73-2.05,1.49-4.09,2.17-6.17.12-.36-.06-.85-.1-1.29-.36.24-.91.36-1.06.73-.94,2.2-1.84,4.42-2.66,6.69-.48,1.34-.91,2.74-1.13,4.17-.08.5.46,1.22.83,1.7.08.11.74-.25.99-.57Z"/>
    <path class="cls-1" d="M1340.24,89.94c-.86,1.8-1.76,3.57-2.54,5.41-.16.38-.07,1.24.17,1.49.31.32.98.47,1.34.27.58-.33,1.11-.93,1.53-1.55,1.3-1.88,2.54-3.81,3.81-5.72-.26,1.36-.72,2.63-1.12,3.91-.35,1.11-.76,2.22-.91,3.37-.06.49.4,1.39.79,1.57.33.16,1.02-.31,1.35-.74,1.49-1.94,2.91-3.96,4.28-5.84.31.83.44,1.85.84,2.05.51.25,1.27-.08,1.87-.33.34-.14.57-.64.87-.95.89-.92,1.8-1.83,2.7-2.74-.02.48-.2.76-.32,1.07-.76,1.94.02,3.4,1.76,3.2,1.27-.14,2.54-.39,3.79-.71,2.72-.7,5.41-1.5,8.13-2.19.84-.21,1.73-.18,2.89-.29-1.23,1.33-2.25,2.34-3.17,3.48-.56.7-1.04,1.55-1.39,2.43-.33.83.12,1.42.85,1.15.52-.19,1.03-.52,1.47-.92,2.17-1.97,4.32-3.98,6.48-5.99.16-.14.3-.36.37-.58.42-1.31-.21-2.72-1.65-2.74-1.89-.02-2.77-1.22-3.59-3.03-.27-.6-1.19-.94-1.86-1.05-.42-.06-.91.53-1.36.83.32.68.57,1.43.97,2.03.39.6.92,1.06,1.29,1.48-4.21,1.11-8.36,2.21-12.72,3.36.6-1.34,1.01-2.57,1.66-3.56.51-.78.66-1.59.22-2.17-.29-.38-1.1-.35-1.64-.25-.5.1-.96.53-1.42.84-.45.31-.88.66-1.34,1.01-.33-1.55-1.39-2.22-2.21-1.45-1.18,1.1-2.32,2.26-3.45,3.43-.98,1.01-1.92,2.06-3.07,3.3.2-.74.31-1.24.47-1.71.8-2.36,1.61-4.71,2.4-7.06.79-2.34-1.62-1.54-1.96-2.86-.04-.14-.87.01-1.33.04-.07,0-.15.05-.19.11-2.15,2.78-4.31,5.56-6.45,8.35-.1.14-.07.43-.09.67.67-.7,1.34-1.39,2.02-2.07-.07.66-.29,1.14-.52,1.61Z"/>
  </g>
  <g>
    <path class="cls-1" d="M331.14,655.64c8.07-1.43,15.41-5.04,22.64-8.76,4.06-2.09,8.09-4.31,11.87-6.85,4.46-3,8.74-6.3,12.93-9.67,4.5-3.61,7.93-8.25,11.55-12.69,4.63-5.68,8.75-11.7,11.71-18.43,3.37-7.67,5.85-15.63,6.45-24.04.43-6.01-.05-11.98-1.91-17.73-2.17-6.72-5.58-12.63-11.19-17.26-3.5-2.88-7.39-4.77-11.55-6.1-7.65-2.45-15.36-1.74-23,.38-1.84.51-3.67,1.42-5.53,1.47-4.12.11-8.08.71-11.91,2.22-4.31,1.7-8.32,3.91-11.49,7.33-2.24,2.41-4.07,5.21-6.39,7.53-4.28,4.27-8.5,8.53-11.8,13.67-2.01,3.15-4.31,6.19-6.87,8.89-6.42,6.77-11.26,14.42-13.93,23.38-.5,1.66-.68,3.42-1.01,5.13.22.09.45.18.67.27,3.29-8.21,6.82-16.28,13.03-23.18-.23.77-.34,1.26-.52,1.72-1.26,3.13-2.6,6.22-3.8,9.37-2.79,7.32-4.81,14.85-4.61,22.74.11,4.11.73,8.22,1.28,12.3.88,6.52,3.29,12.37,8.26,16.85,2.52,2.27,5.6,3.95,7.98,6.35,4.86,4.89,10.73,6.24,17.12,5.11ZM377.68,627.1c-9.39,8.89-20.4,15.2-32.11,20.45-5.24,2.35-10.52,4.53-16.27,5.33-3.77.53-7.28,0-10.62-2.16.2-.11.31-.22.43-.23,4.05-.19,8.1-.35,12.15-.55,5.92-.29,11.51-1.87,16.9-4.31,9.11-4.13,17.28-9.7,25.06-15.91,3.15-2.51,6.18-5.18,9.26-7.77.1.1.2.2.3.31-1.7,1.61-3.4,3.22-5.1,4.84ZM384.39,550.49c4.18,1.18,5.44,4.71,6.58,8.27,1.51,4.72,1.41,9.62,1.38,15.21.36,6.95-.61,14.39-3.58,21.49-2.45,5.86-5.79,11.17-10.06,15.89-2.17,2.41-4.19,4.96-6.44,7.3-3.53,3.68-7.13,7.29-10.81,10.81-2.59,2.47-5.38,4.74-8.09,7.09-3.51,3.04-7.94,4.3-12.09,6.05-2.34.99-4.84,1.61-7.23,2.5-5.45,2.02-10.2.75-14.25-3.15-3.44-3.32-5.81-7.35-7.08-12-.66-2.4-1.22-4.84-2.06-7.17-1.18-3.26-.58-6.45.15-9.62,2.7-11.69,6.57-23.02,11.87-33.76,3.86-7.83,9.08-14.73,15.98-20.32,4.91-3.98,10.29-7.17,15.64-10.44,2.7-1.65,5.69-1.49,8.64-1.5,7.32-.02,14.44,1.38,21.46,3.35ZM365.76,544.16c5.04-2.22,9.44-1.06,13.92,2.01-4.8-.69-9.26-1.34-13.92-2.01ZM403.36,574.77c-1.96,8.39-5.18,16.22-9.56,23.61-5.74,9.71-12.65,18.45-21.06,25.99-1.82,1.63-3.76,3.12-5.65,4.67-.2-.22-.4-.43-.6-.65,1.11-.96,2.32-1.83,3.3-2.9,4.95-5.43,10.09-10.72,14.67-16.45,3.54-4.42,6.06-9.53,8.14-14.88,2.72-7.01,3.08-14.25,3.16-21.59.05-4.85-.39-9.63-1.55-14.34-.28-1.12-.71-2.2-1.18-3.62,3.31,1.59,5.78,3.8,7.91,6.37,3.41,4.11,3.6,8.75,2.42,13.79ZM383.36,545.03c.13-.2.25-.4.38-.61,6.56,1.71,11.84,5.39,16.03,10.81-5.47-3.4-10.94-6.8-16.41-10.2ZM398.44,548.82c-6.86-5.79-14.98-8.11-23.74-8.9-2.31-.21-4.55-1.27-6.82-1.95-1.3-.39-2.59-.8-4.26-1.32,16.28-4.3,30.07,3,34.83,12.17ZM329.32,553.77c7.39-5.82,15.6-10.3,24.24-14,3.48-1.49,6.84-.54,10.25.09.67.12,1.32.4,2.43.76-5.42,1.86-10.38,3.77-15.46,5.24-4.15,1.2-8.2,2.5-12.02,4.54-1.11.59-2.48.67-3.72,1.03-3.02.88-4.72,3.46-6.85,5.46-.79.75-1.32,1.78-1.97,2.68-.29-.25-.57-.51-.86-.76,1.31-1.7,2.33-3.74,3.96-5.03ZM327.2,561.71c4.67-4.41,10.13-7.88,16.24-10.38-4,3.47-8,6.7-11.72,10.22-4.69,4.43-8.19,9.78-11.05,15.54-4.1,8.26-6.99,17-9.93,25.71-.49,1.45-.81,2.96-1.21,4.44-.17-.02-.35-.05-.52-.07.23-2.9.29-5.82.72-8.69.94-6.3,2.96-12.3,5.6-18.07,3.1-6.77,6.4-13.54,11.88-18.7ZM313.32,572.26c.23.12.47.24.7.36-2.26,4.34-4.52,8.68-6.79,13.02-.18-.09-.36-.18-.53-.27,2.21-4.37,4.41-8.73,6.62-13.1ZM312.9,644.85c-2.6-4.22-5.11-8.51-7.44-12.89-2.52-4.73-4.08-9.85-5.05-15.1-.95-5.17-.43-10.33,1.73-15.14,2.42-5.39,5.14-10.64,7.75-15.94.23-.46.57-.85.79-1.18-.97,4.25-1.89,8.54-2.95,12.8-1.23,4.97-.96,10-.88,15.03.06,3.65.03,7.29,0,10.94-.06,7.11,1.51,13.73,6.23,19.22,1.56,1.82,3.68,3.14,5.46,4.62-1.97.59-4.26-.13-5.65-2.37Z"/>
    <path class="cls-1" d="M355.04,594.36c1.53-4.22,3.19-8.4,4.61-12.66.33-.99-.08-2.23-.15-3.36-.89.2-1.8.33-2.65.64-.3.11-.52.62-.64.99-1.65,5-3.28,10.01-4.91,15.02-.17.53-.28,1.07-.43,1.64-3.67-.4-6.99-1.37-10.04-3.09-1.51-.85-2.97-.76-3.66.56-.87,1.65.61,2.14,1.56,2.5,3.55,1.34,7.18,2.51,11.35,3.93-.57,2.16-1.19,4.72-1.93,7.25-.52,1.78-1.22,3.5-1.76,5.27-.12.38.1.85.16,1.29.4-.14.92-.16,1.18-.43.73-.73,1.61-1.47,1.96-2.38,1.22-3.16,2.26-6.4,3.33-9.62.31-.92.58-1.38,1.81-1.23,4.39.54,8.82.8,13.18-.29.75-.19,1.45-.6,2.17-.91-.05-.19-.09-.38-.14-.57-5.22-.51-10.44-1.01-15.76-1.53.3-1.22.45-2.14.77-3.01Z"/>
  </g>
  <g>
    <path class="cls-1" d="M267.04,333.87c2.18,6.02,5.9,11.24,9.23,16.64,1.68,2.73,3.84,5.16,5.79,7.72,3.69,4.83,7.38,9.66,11.09,14.48,1.09,1.42,2.32,1.03,3.38-.01,1.06-1.05.26-1.79-.61-2.46-1.54-1.19-2.4-2.74-2.56-4.72-.07-.89-.25-1.82-.61-2.63-1.75-4.01-4.32-7.64-5.12-12.09-.8-4.46-1.9-8.86-2.87-13.29.2-.04.4-.08.6-.12.2-5.48.13-11,3.81-15.68,1.2-1.53,4.72-3.43,6.57-3.27,6.34.53,9.12,4.86,10.63,10.22.71,2.51.58,5.26.79,7.91.12,1.5.38,3.04.18,4.5-.44,3.21-1.1,6.39-1.72,9.56-.89,4.55-2.1,8.95-4.68,12.93-.64.98-.63,2.73-.24,3.89.2.62,1.85.99,2.88,1.05,1.88.12,5.01-3.52,5.04-5.49.01-.69.25-1.41.53-2.06,2.39-5.49,5.17-10.85,7.12-16.49,1.44-4.15,1.95-8.65,2.61-13.04.66-4.34,1.44-8.71.53-13.13-.4-1.95-.8-3.91-1.31-5.84-.97-3.67-2.39-7.15-5.1-9.91-3.94-4-8.1-7.61-14.1-8.03-3.47-.24-6.92-.87-10.39-.91-5.38-.05-10.26,2.09-14.66,4.86-2.77,1.74-4.9,4.56-7.15,7.05-.83.92-1.35,2.21-1.73,3.42-1.73,5.53-1.9,11.11-.27,16.71.79,2.73,1.36,5.54,2.32,8.21ZM271.62,306.4c2.87-2.89,5.81-5.46,9.59-7.15,3.97-1.77,7.97-2.06,12.16-1.37,1.84.31,3.71.52,5.57.66,2.67.2,4.71,1.48,6.88,3,3.67,2.57,6.23,5.89,7.5,9.95,1.55,4.93,2.69,10.03,1.7,15.32-.84,4.51-1.58,9.05-2.72,13.55-.19-2.57-.33-5.15-.58-7.71-.47-4.83-1.93-9.36-5.03-13.13-2.9-3.52-7.06-4.36-11.38-5.08-3.13-.52-5.15,1.19-7.22,2.62-4.13,2.85-5.95,7.46-6.59,12.08-.69,4.97-1.28,10.13.37,15.17,1.04,3.2,1.84,6.47,2.73,9.71.19.69.33,1.4.5,2.1-.24.13-.49.25-.73.38-2.1-3.3-4.22-6.58-6.31-9.89-.74-1.17-1.42-2.37-2.11-3.57-1.29-2.24-2.77-4.4-3.83-6.75-2.64-5.87-4.76-11.95-4.74-18.48.01-4.25,1-8.18,4.23-11.44Z"/>
    <path class="cls-1" d="M299.42,383.54c-.49-1.13-3.42-.87-4.51.28-3.11,3.29-6.65,6.41-5.63,11.24-.17,4.86.83,8.79,4.54,11.66,2.57,1.99,5.56,2.46,8.67,2.99,3.91.67,6.99-.9,9.55-3.25,1.95-1.79,3.26-4.34,4.6-6.69,1.91-3.34,1.34-7.8-1.16-10.78-1.03-1.23-2.17-2.39-3.18-3.64-1.85-2.29-7.34-3.8-10-2.59-.54.24-1.25.95-1.22,1.4.05.61.63,1.3,1.16,1.72.64.5,1.5.72,2.22,1.14,2.16,1.27,5.19,4.97,4.31,7.2-.91,2.3-5.14,4.87-7.44,3.88-1.19-.51-2.77-1.91-2.8-2.94-.06-2.38.83-4.77,1.11-7.18.17-1.47.31-3.15-.24-4.43ZM299.73,402.25c3.31.35,6.76.63,9.68-1.62.95-.73,1.78-1.62,2.81-2.57-1.75,5.36-5.64,9.25-12.56,7.04-4.4-1.4-7.04-5.31-5.8-9.57.29.82.66,1.42.71,2.04.24,3.23,2.55,4.39,5.17,4.66Z"/>
  </g>
  <path class="cls-1" d="M1044.58,343.08c-1.55-.63-3.29-.79-4.95-1.18-4.24-1.01-8.52-1.9-12.7-3.13-2.13-.63-4.97-1.38-5.88-2.99-1.4-2.47-3.09-2.63-5.29-2.68-.39,0-.8-.26-1.14-.49-3.46-2.31-6.93-4.6-10.35-6.98-7-4.88-13.97-9.81-20.95-14.73-5.95-4.2-12.13-7.9-19.06-10.4-7.77-2.79-15.54-4.14-23.56-1.68-4.23,1.3-8.52,2.68-12.41,4.74-3.76,1.99-7.19,4.71-10.46,7.46-2.24,1.89-3.92,4.45-5.97,6.6-.45.47-1.64.9-2.05.65-5.11-3.2-10.36-6.24-15.1-9.94-2.3-1.79-3.58-4.87-5.41-7.31-.65-.87-1.43-1.85-2.37-2.22-.55-.22-2.12.56-2.21,1.07-.22,1.2-.27,2.85.39,3.74,4.79,6.41,10.21,12.28,17.65,15.58,5.04,2.23,6.98,5.85,6.98,11.04,0,1.3.33,2.66.81,3.87,2.2,5.65,3.9,11.62,6.97,16.77,2.18,3.67,6.11,6.38,9.51,9.21,4.97,4.12,10.92,6.36,17.13,7.83,3.09.73,6.24,1.53,9.39,1.68,11.28.53,22.39-.58,33.34-3.64,4.72-1.32,9.68-1.73,14.54-2.56.13.26.25.51.38.77.76-.62,1.55-1.22,2.28-1.87.58-.52,1.02-1.35,1.69-1.6,4.15-1.5,8.42-2.71,12.52-4.34,5.82-2.31,11.5-4.97,17.3-7.34,1.92-.79,4.03-1.1,6.01-1.77,1.24-.42,2.53-.93,3.49-1.75.33-.28-.05-2.23-.51-2.41ZM1024.53,343.39c-6.43-.73-12.8-1.45-19.84-2.25,9.09-2.71,14.26-2.05,19.84,2.25ZM1009.34,335.08c-2.95.74-5.68,1.24-8.27,2.14-1.62.56-3.02,1.75-4.51,2.65-.57.34-1.16.99-1.72.98-5.77-.11-11.53-.33-17.29-.52-.07-.3-.14-.6-.21-.9,7.19-2.31,14.33-4.77,21.59-6.87,3.54-1.03,7.15-.8,10.43,2.52ZM986.39,322.54c.16.05.36.09.5.02,5.66-2.64,7.96,2.6,11.89,4.89-4.04,1.24-7.78,2.22-11.4,3.53-4.33,1.56-8.59,3.32-12.82,5.15-2.33,1.01-4.4,3-6.78,3.39-2.8.45-5.82-.23-8.7-.66-1.71-.26-3.36-.99-5.03-1.51-.05-.38-.11-.76-.16-1.14,7.67-4.06,15.26-8.29,23.06-12.09,2.83-1.38,6.04-2.56,9.43-1.57ZM975.61,311.44c.39.02.81.23,1.14.46,2.2,1.59,4.38,3.2,6.22,4.56-5.88,2.58-12,5.06-17.93,7.94-5.97,2.9-11.67,6.32-16.81,11.11-3.23-1.06-6.86-2.25-11.24-3.68,3.69-3.07,6.91-6.1,10.48-8.62,4.47-3.16,9.07-6.2,13.9-8.74,4.36-2.29,9.22-3.32,14.24-3.02ZM958.61,303.85c.75-.24,1.78.22,2.63.52,2.15.77,4.27,1.64,6.04,2.32-4.25,1.95-8.59,3.7-12.68,5.92-2.99,1.62-5.71,3.76-8.44,5.81-4.37,3.27-8.67,6.62-12.93,10.02-.47.38-.52,1.28-.94,2.41-2.25-1.46-4.41-2.86-6.91-4.48.98-1.44,1.9-2.92,2.95-4.31,4.37-5.81,9.96-10.25,16.46-13.32,4.4-2.08,9.17-3.38,13.83-4.88ZM920.77,345.99c-3.54-6-6.21-12.27-6.71-19.8,2.23,1.07,3.89,1.95,3.21,4.46-.08.31-.17.76-.02.99,2.72,4.04,1.05,9.37,3.9,13.37.14.19-.05.6-.38.98ZM919.05,324.01c-1.24-.44-2.44-1.18-3.42-2.06-1.83-1.63.38-2.09,1.03-3.02,4.84-6.96,11.53-11.26,19.53-13.73,2.6-.81,5.19-1.69,7.78-2.54.09.27.19.55.28.82-1.33.56-2.8.91-3.97,1.7-4.99,3.35-10.2,6.46-13.93,11.35-1.59,2.09-3.47,4.08-4.54,6.42-.78,1.7-1.79,1.4-2.74,1.07ZM944.18,362.9c-3.34-1.4-6.7-2.78-10.01-4.24-.34-.15-.44-.8-.68-1.21-.92-1.53-1.91-3.03-2.78-4.58-1.15-2.04-2.4-4.05-3.29-6.2-1.63-3.93-3.49-7.71-3.33-12.3.08-2.26.58-1.6,1.85-1.4,5.77.92,8,4.76,9.27,10.04.91,3.78,1.99,7.6,4.64,10.84,2,2.44,3.26,5.49,4.85,8.27-.17.26-.33.51-.5.77ZM948.86,359.82c-3.59-6.51-8.77-12.27-9.94-19.98-.13-.82-.25-1.64-.4-2.69,2.95.91,5.83,1.56,8.47,2.74,1.14.51,2.53,2.14,2.52,3.25-.02,4.08,2.6,7.16,3.54,10.82.98,3.85,3.65,6.33,6.67,8.58.32.24.63.53.88.85.14.17.15.44.31.95-5.02.63-9.58-.04-12.05-4.51ZM964.71,360.52c-.4-.41-.88-.77-1.38-1.04-5.55-2.99-6.48-8.89-8.73-13.93-.4-.89-.21-2.04-.3-3.15,3.14.65,6.27,1.16,9.32,2,.86.24,1.78,1.3,2.1,2.19,1.23,3.42,3.4,6.16,5.77,8.82,2.09,2.36,4,4.87,5.99,7.31-4.82,2.38-8.97,1.68-12.76-2.2ZM993.75,359.91c-3.28.43-6.55.89-9.83,1.26-.44.05-1-.19-1.37-.48-5.19-4.07-8.7-9.53-12.25-14.95-.12-.19-.07-.48-.11-.83,3.29,0,6.6-.37,9.75.16,1.47.25,2.72,2.2,3.95,3.48,2.74,2.85,5.39,5.79,8.13,8.63.62.64,1.47,1.05,2.22,1.57-.16.38-.33.76-.49,1.14ZM999,356.61c-1.52-.75-2.86-1.96-4.1-3.15-2.5-2.41-4.88-4.95-7.59-7.72,9.48-1.94,14.92,3.45,20.74,9.41-3.36.29-5.85,3.04-9.05,1.47ZM1025.65,348.5c-3.22,1.29-6.44,2.6-9.67,3.86-.43.17-1.08.33-1.4.13-2.76-1.74-5.47-3.55-8.18-5.36-.14-.1-.13-.42-.3-1.07,6.67.68,13.12,1.33,19.56,1.99,0,.15-.01.3-.02.45Z"/>
  <path class="cls-1" d="M1178.84,666.71c2.15.48,4.41.49,6.62.73.59.06,1.16.3,1.75.36,2.43.26,4.86.47,7.29.74.62.07,1.28.52,1.83.38,2.62-.63,5.23.46,7.89-.16,2.01-.47,4.1-.71,5.86-1.81,3.17-1.98,5.69-4.71,8.27-7.39,3.42-3.55,6.96-6.96,10.46-10.43.12-.12.24-.25.39-.32,2.06-.9,3.16-2.84,4.68-4.33.7-.69,1.47-.95,2.36-.38.91.58,1.76,1.3,2.73,1.72.6.26,1.46.26,2.08.03.72-.26,1.32-.89.71-1.84-.1-.16-.1-.41-.1-.62.05-1.92.16-3.84.14-5.76-.01-1.48-.26-2.95-.27-4.43-.01-2.96.08-5.91.1-8.87,0-1.32-1.75-2.22-2.95-1.74-1.61.64-3.29,1.12-4.96,1.56-3.04.79-6.11,1.43-9.13,2.27-1.89.53-3.67,1.44-5.55,1.98-1.24.36-2.55,1.41-2.82,2.65,2.15,1.86,4.26,3.68,6.54,5.66-1.2,1.29-2.4,2.46-3.45,3.75-2.96,3.65-5.68,7.52-8.85,10.98-2.24,2.45-4.94,4.54-7.67,6.45-1.28.9-3.17,1.48-4.72,1.36-4.45-.32-8.86-1.12-13.29-1.63-3.29-.38-6.59-.57-9.88-.9-4.24-.42-7.83.91-10.43,4.24-3.44,4.4-6.66,8.97-9.94,13.48-1.11,1.53-2.13,3.12-3.18,4.69-.98,1.47-1.96,2.95-2.91,4.44-.99,1.56-1.68,3.34-3.31,4.47.26,1.21,1.09,1.85,1.73,1.26,1.08-1.01,2.19-2.01,3.21-3.09,3.99-4.16,7.82-8.48,11.97-12.48,2.47-2.38,5.11-4.71,8.47-5.91.22-.08.37-.33.58-.44.62-.34,1.27-.93,1.9-.92,1.94.03,3.88-.22,5.85.22ZM1167.86,665.84c-2.06,1.45-4.09,2.96-6.04,4.55-.95.77-1.68,1.82-2.56,2.69-1.16,1.16-2.36,2.28-3.71,3.32.76-1.07,1.5-2.15,2.28-3.2,1.64-2.21,3.15-4.55,4.99-6.58,1.81-2,2.96-4.57,5.35-6.07,1.8-1.13,3.71-1.88,5.83-1.83,2.38.05,4.76.16,7.13.39,2.84.29,5.66.72,8.48,1.12,3.11.44,6.2,1.03,9.31,1.32,1.05.1,2.26-.31,3.25-.79,1.56-.77,3.04-1.72,4.46-2.72,1.45-1.02,2.84-2.14,4.15-3.33,1.09-1,2.05-2.14,3.02-3.27,1.77-2.08,3.53-4.17,5.24-6.3,1.37-1.72,2.6-3.54,3.98-5.25.84-1.03,1.86-1.91,2.76-2.89.35-.39.58-.88.94-1.44-.93-.74-1.42-1.88-2.95-1.24-.45.19-1.42-.63-2.05-1.11-.79-.6-1.49-1.33-2.38-2.14,6.21-3.36,12.8-4.85,19.85-5.5-.34,5.8.67,11.57-.39,17.27-2.61-.09-3.55-3.22-6.24-3.09-.65,3.24-2.72,5.43-5.21,7.4-1.49,1.18-2.71,2.68-4.11,3.98-1.39,1.3-2.91,2.47-4.26,3.8-.95.93-1.64,2.12-2.6,3.03-2.17,2.06-4.38,4.09-6.68,6.02-2.33,1.95-5.19,2.39-8.13,2.54-3.54.19-7.06-.07-10.56-.51-2.28-.29-4.54-.76-6.82-1.14-.33-.06-.7-.19-.99-.1-1.84.56-3.56-.26-5.33-.39-3.42-.25-6.94-.68-10.01,1.48Z"/>
  <path class="cls-1" d="M120.98,611.43c-1.17.29-1.73,1.09-1.37,2.38.09.32-.05.72-.12,1.08-1.2,5.69-2.42,11.37-3.6,17.06-.22,1.07-.29,2.17-.46,3.49-1.48-1.14-2.71-2.08-3.93-3.04-2.01-1.58-3.99-3.21-6.04-4.74-.68-.51-1.59-1.15-2.32-1.07-1.09.12-2.22.73-2.13,2.04,3.83,3.47,5.29,8.18,7.88,12.42-2.18.98-4.01,1.89-5.91,2.63-4.64,1.81-9.31,3.52-13.96,5.31-1.57.61-3.05,1.53-4.67,1.93-1.39.35-1.51,1.21-1.36,2.18.16.99.72,1.79,1.96,1.86,2.08.11,4.16.2,6.21.51,2.65.41,5.26,1.09,7.9,1.54,3.77.64,7.56,1.18,11.38,1.77-.04.19-.04.35-.12.47-1.89,3.14-3.72,6.31-5.7,9.39-1.15,1.8-2.35,3.65-3.88,5.1-.97.92-1.26,1.57-.65,2.61.49.82,2.69,1.18,3.32.54,1.2-1.22,2.24-2.61,3.48-3.79,2.54-2.41,5.16-4.72,7.92-7.23.37.75.67,1.12.75,1.53.66,3.79,1.38,7.57,1.88,11.38.28,2.15.18,4.35.24,6.53.07,2.36.25,4.73.16,7.08-.06,1.49.97,2,1.91,2.31.95.32,1.61-.34,2.01-1.44,1.91-5.27,3.92-10.51,5.97-15.74.9-2.29,2.13-4.46,2.96-6.77.69-1.94,1.45-2.39,3.27-1.35,2.55,1.45,5.1,2.9,7.64,4.36,1,.57,2.33.95,2.89,1.81.79,1.23,1.86,1.56,3.05,1.87.82.22,1.6.31,2.13-.66.49-.91.32-1.55-.42-2.23-1.81-1.66-3.79-3.2-5.32-5.1-1.75-2.17-3.13-4.65-4.59-7.04-.76-1.24-.35-1.83,1.13-2.2,4.12-1.01,8.21-2.13,12.35-3.09,5.12-1.18,10.28-2.19,15.38-3.4.65-.16,1.69-1.33,1.57-1.64-.39-.99-1.08-2.25-1.96-2.58-2.23-.82-4.64-1.11-6.94-1.75-2.98-.84-5.92-1.87-8.9-2.73-4.71-1.35-9.44-2.63-14.37-3.99,1.11-1.25,1.96-2.08,2.67-3.03,1.12-1.5,2.04-3.15,3.21-4.61,2.04-2.57,4.24-5.03,6.3-7.59.64-.8,1.21-1.98.14-2.68-.92-.61-2.27-1.39-3.16.36-.18.34-.61.57-.96.81-3.57,2.44-7.15,4.85-10.7,7.31-1.37.95-2.66,2-4.03,3.03-.48-.77-1.04-1.42-1.32-2.16-1.16-3.08-2.32-6.18-3.33-9.31-1.07-3.32-1.89-6.73-2.99-10.04-.32-.98-1.09-2.04-2.44-1.71ZM123.72,626.27c.16.63.74,1.15.94,1.78.92,2.92,1.67,5.88,2.69,8.76.36,1.01,1.12,2.12,2.02,2.61.52.28,1.95-.34,2.47-.97,3.15-3.74,7.13-6.39,11.4-8.79-.53.56-1.11,1.07-1.59,1.68-1.39,1.75-2.69,3.56-4.12,5.28-.75.91-1.63,1.73-2.56,2.46-.78.61-1.76,2.61-1.17,3.42.4.54,1.4.7,2.16.91,1.66.46,3.35.8,5.01,1.26,4.94,1.37,9.87,2.77,14.8,4.15.2.06.42.08.61.16,2.23.91,4.45,1.83,6.75,3.05-1.74.35-3.48.65-5.2,1.05-3.32.77-6.61,1.67-9.94,2.38-4.25.91-8.53,1.68-12.79,2.57-.6.12-1.56.52-1.61.87-.07.67.18,1.68.68,2.06,2.61,1.99,3.32,5.18,5.22,7.61-.11.16-.23.31-.34.47-1.62-1.01-3.4-1.83-4.82-3.06-1.67-1.45-2.13-1.69-4.05-.59-.7.4-1.46.7-2.15,1.11-.21.12-.41.43-.43.67-.39,5.62-3.56,10.24-5.47,15.31-.31.82-.68,1.62-1.32,2.41-.14-1.73-.25-3.45-.42-5.17-.2-2.03-.35-4.07-.68-6.08-.48-2.96-1.09-5.9-1.64-8.85-.26-1.4-.71-2.53-2.33-2.95-1.68-.43-2.29.9-3.19,1.69-1.07.93-2,2.03-2.98,3.05-.09-.08-.17-.16-.26-.25,1.32-2.04,2.62-4.08,3.96-6.1.22-.33.71-.47.97-.79.48-.59,1.36-1.65,1.23-1.81-.66-.79-1.67-1.97-2.43-1.89-4.41.5-8.58-.66-12.82-1.37-3.04-.51-6.06-1.14-9.08-1.73-.4-.08-.79-.21-1.18-.31-.03-.15-.07-.29-.1-.44,1.08-.42,2.17-.83,3.25-1.25,4.8-1.87,9.61-3.72,14.38-5.64,1.44-.58,2.9-1.22,4.15-2.12,1.46-1.05,1.32-1.88.28-3.32-1.35-1.84-2.54-3.79-3.8-5.7.13-.16.26-.31.4-.47.99.65,2.06,1.21,2.94,1.99.9.79,1.67,1.75,2.4,2.72,1.1,1.46,1.93,1.53,2.98.06.31-.44.43-1.06.51-1.62.47-3.1.87-6.22,1.37-9.32.41-2.57.89-5.13,1.41-7.68.18-.91.56-1.78,1.25-2.73.75,3.16,1.47,6.32,2.28,9.47Z"/>
  <path class="cls-1" d="M499.16,696.13c2.68,1.69,5.5,3.21,8.38,4.55,4.85,2.27,9.85,4.18,15.18,5.06,5.18.86,10.37,1.64,15.64,1.58.76,0,1.52-.02,2.29,0,1.27.05,1.51.29,1.67,1.51.07.52.21,1.03.25,1.55.21,2.61,1.48,5.1.79,7.83-.19.76.58,1.3,1.35,1.27.85-.03,1.4-.27,1.34-1.25,0-.16.19-.35.32-.5.69-.82,1.59-1.54,2.06-2.47,1.04-2.07,1.91-4.23,2.78-6.37.85-2.09,1.55-4.24,1.59-6.52.03-1.82,1.08-2.78,2.61-3.41,1.42-.59,2.85-1.16,4.25-1.8,2.01-.92,4.01-1.86,6-2.83,1.83-.9,3.7-1.75,5.44-2.81,3.73-2.25,7.61-4.3,10.77-7.4,1.57-1.54,3.22-2.98,3.8-5.22.67-2.57.56-4.34-2.51-5.49-1.69-.63-3.46-1.07-5.21-1.53-4.32-1.14-8.74-1.71-13.2-1.77-3.55-.04-7.11.07-10.66.25-4.83.25-9.66.59-14.49.97-5.83.46-11.65.99-17.38,2.22-3.41.73-6.85,1.36-10.26,2.1-2.25.49-4.47,1.09-6.7,1.65-2.55.64-4.84,1.81-6.78,3.61-1.45,1.34-2.78,2.75-3.34,4.76-.72,2.57-.61,4.99.98,7.17.88,1.21,1.83,2.52,3.06,3.29ZM496.82,685.48c.94-2.16,2.65-3.54,4.62-4.83,3.55-2.32,7.64-2.68,11.55-3.66,3.63-.91,7.32-1.64,11.02-2.25,3.52-.59,7.08-1.01,10.64-1.35,5.56-.53,11.13-.96,16.71-1.39,2.07-.16,4.16-.23,6.23-.25,2.63-.03,5.26.02,7.89.04,4.06.04,8.03.67,11.94,1.69,1.75.45,3.52.9,5.22,1.52,1.77.65,1.86.97,1.51,2.85-.34,1.85-1.52,3.15-2.77,4.45-3.02,3.16-6.71,5.38-10.46,7.46-3.92,2.18-7.98,4.1-12.02,6.05-1.36.66-2.84,1.04-4.25,1.6-1.05.41-2.09.87-3.11,1.36-.57.28-.71.69-.49,1.4.21.68.09,1.49.03,2.24-.23,2.56-.9,5.04-1.93,7.37-.65,1.49-1.67,2.82-2.52,4.23-.23.37-.43.76-.66,1.13-.15.22-.34.42-.52.62-.1-.03-.21-.06-.31-.09-.44-2.36-.89-4.73-1.31-7.1-.04-.25.02-.63.19-.78.53-.48.39-1.07.15-1.5-.28-.53-.82-.86-1.52-.78-.94.11-1.89.21-2.83.24-4.93.15-9.79-.46-14.66-1.16-4.12-.6-8.1-1.63-11.93-3.19-2.79-1.13-5.5-2.44-8.22-3.73-1.51-.71-3-1.47-4.42-2.34-1.99-1.23-3.45-3.01-4.22-5.2-.54-1.54-.21-3.16.44-4.63Z"/>
  <g>
    <path class="cls-1" d="M1168.38,486.95c-.25.34-.25.87-.36,1.32.49-.03,1.08.11,1.44-.12.87-.55,1.57-1.38,2.45-1.91,3.5-2.09,6.97-4.25,10.6-6.11,5.64-2.88,11.65-4.74,17.89-5.8,1.58-.27,3.2-.33,4.81-.49.03.12.05.24.08.36-.65.45-1.29.93-1.96,1.34-5.03,3.09-10.51,5.19-16.05,7.13-4.05,1.42-8.16,2.67-12.18,4.14-2.01.73-3.91,1.79-5.86,2.69.03.17.05.35.08.52.38.05.77.2,1.13.14.97-.14,1.95-.28,2.87-.58,3.92-1.27,7.84-2.58,11.74-3.92,6.07-2.09,12.12-4.26,17.82-7.24,1.8-.94,3.51-2.05,5.16-3.23.5-.36,1.01-1.27.89-1.78-.13-.58-.94-1.04-1.52-1.46-.24-.18-.65-.14-.99-.18-3.4-.34-6.69.36-9.98,1.04-7.1,1.48-13.7,4.29-19.98,7.86-2.97,1.69-5.99,3.4-8.07,6.25Z"/>
    <path class="cls-1" d="M1190.38,532.18c-.36-.14-.7-.3-1.04-.47-4.93-2.51-8.45-6.59-11.93-10.71-2.16-2.56-4.25-5.18-6.38-7.77-1.89-2.3-3.89-4.51-5.62-6.92-.62-.87-1.31-.9-1.91-.68-.48.18-.99.99-.99,1.51,0,.47.65.98,1.08,1.4.31.3.83.41,1.1.73,2.42,2.91,4.81,5.84,7.2,8.78,3.55,4.36,7.02,8.8,11.45,12.34,2.09,1.67,4.2,3.41,6.95,3.84.78.12,1.79-.12,2.43-.56.81-.56.3-1.43-.11-2.15-.95-1.64-1.78-3.36-2.83-4.93-1.69-2.54-3.22-5.3-5.36-7.42-5.37-5.31-11.04-10.33-16.63-15.41-.63-.57-1.54-.88-2.36-1.19-.31-.12-.75.11-1.38.23.81.67,1.35,1.08,1.85,1.54,3.36,3.07,6.63,6.24,10.08,9.2,4.59,3.93,8.78,8.19,12,13.34,1.09,1.75,2.25,3.46,3.37,5.19-.09.1-.18.19-.28.28-.24-.05-.48-.08-.7-.17Z"/>
    <path class="cls-1" d="M1175.23,442.3c-.86.03-1.77.27-2.54.66-3.91,1.97-6.87,5.07-9.72,8.3-2.97,3.35-5.73,6.9-7.56,10.98-2.95,6.58-5.62,13.29-8.36,19.96-.27.65-.44,1.49-.24,2.11.13.38,1.05.49,1.56.71-.21.67-.43,1.34-.66,2.07,1.31.01,2.78-1.2,3.68-2.63,1.92-3.03,3.72-6.17,5.92-8.98,4.6-5.89,9.58-11.49,14.11-17.43,2.62-3.43,4.79-7.24,4.75-11.86,0-.53.31-1.08.52-1.61.55-1.34-.02-2.33-1.48-2.28ZM1173.18,449.25c-2.32,5.9-6.08,10.84-10.22,15.54-4.42,5.02-8.97,9.94-12.34,15.78-.07.13-.19.23-.29.35-.07-.06-.15-.11-.22-.17,2.66-6.07,5.13-12.24,8.02-18.2,2.87-5.9,6.97-10.97,12.01-15.21,1.38-1.16,3.05-1.97,4.58-2.94.12.11.24.23.36.34-.64,1.5-1.31,2.99-1.9,4.5Z"/>
    <path class="cls-1" d="M1150.47,515.95c1.57-2.02,3.56-3.76,4.41-6.61-.44.18-.78.23-.97.42-2.23,2.25-4.58,4.4-6.6,6.82-2.84,3.39-5.47,6.94-8.11,10.49-2.18,2.94-4.19,6-6.36,8.94-1.01,1.37-2.22,2.58-3.34,3.87-.15-.09-.3-.18-.45-.27-.06-.24-.12-.49-.16-.73-.03-.21-.06-.42-.06-.63-.04-2.59.9-4.9,2-7.17,2.73-5.65,7.01-10.13,11.2-14.64,2.44-2.62,5.24-4.9,7.84-7.37.28-.27.29-.82.42-1.23-.49-.11-.98-.28-1.48-.31-.2-.01-.45.22-.64.39-1.54,1.45-3.11,2.86-4.58,4.37-2.04,2.1-4.04,4.24-6,6.41-3.59,3.99-7.07,8.06-9.3,13.03-1.05,2.33-1.72,4.71-1.56,7.29.14,2.16,1.82,3.44,3.55,2.61.66-.31,1.25-.9,1.7-1.49,2.86-3.74,5.65-7.54,8.51-11.28,3.3-4.32,6.64-8.61,9.98-12.9Z"/>
    <path class="cls-1" d="M1134.3,495.8c.47-.31,1.24-.37,1.82-.26,1.66.31,1.69.34,2.01-1.4-.44-.23-.79-.56-1.18-.61-1.46-.17-2.94-.21-4.41-.36-2.94-.29-5.87-.64-8.81-.91-1.01-.09-2.05-.08-3.07-.03-2.12.12-4.24.49-6.35.42-2.4-.09-4.72.13-6.89,1.06-2.44,1.04-5.01,2.11-5.23,5.37,0,.07,0,.14,0,.12.22.2.4.37.58.53,1.18.98,2.31,1.84,4.07,1.49,2.32-.47,4.7-.72,7.06-.98,3.12-.35,6.25-.7,9.39-.88,4-.23,7.67-1.32,11.02-3.55ZM1110.95,498.37c-1.39.14-2.76.55-4.15.66-.52.04-1.1-.37-1.59-.67-.09-.06,0-.75.2-.9,2.65-2.02,5.63-2.89,9-2.8,2.54.06,5.08-.33,7.63-.44.97-.04,1.95.11,2.92.22,2.17.24,4.34.5,6.52.76.04.09.07.19.11.28-2.14.53-4.26,1.29-6.43,1.55-4.72.58-9.48.87-14.21,1.34Z"/>
    <path class="cls-1" d="M1127.48,457.96c1.23,1.17,2.42,2.38,3.62,3.59,2.85,2.89,4.69,6.47,6.76,9.88,1.38,2.28,2.61,4.66,3.99,6.94.36.59,1.02,1.01,1.54,1.51.04-.8.32-1.69.07-2.38-.56-1.53-1.31-3.01-2.11-4.44-1.7-3.01-3.2-6.2-5.3-8.91-2.31-2.98-5.17-5.56-7.87-8.23-.77-.76-1.98-1.43-2.97-.79-.73.46-1.04,1.6-1.48,2.46-.14.28-.09.66-.08,1,.18,3.67,1.26,6.96,3.77,9.77,1.46,1.63,2.63,3.53,3.95,5.28.71.94,1.42,1.88,2.21,2.74,1.83,1.99,3.7,3.94,5.56,5.89.26.27.57.55.91.69.3.12.67.03,1.01.03,0-.35.14-.82-.04-1.03-1.21-1.44-2.47-2.85-3.75-4.23-.77-.83-1.72-1.52-2.41-2.41-2.09-2.67-4.12-5.37-6.12-8.11-.89-1.22-1.81-2.48-2.39-3.86-.82-1.95-1.25-4.02-.26-6.32.56.37,1.03.59,1.39.93Z"/>
    <path class="cls-1" d="M1194.99,501.87c-.52-.31-1.01-.8-1.57-.91-3.42-.68-6.86-1.25-10.28-1.91-4.51-.88-9.02-1.81-13.52-2.71-1.18-.24-2.37-.45-3.56-.67-.05.11-.11.23-.16.34.29.24.54.59.87.72,2.48.97,4.92,2.06,7.47,2.8,3,.87,6.09,1.46,9.15,2.12,2.7.58,5.44.98,8.11,1.65,2.04.51,2.17.58,3.49-1.42Z"/>
    <path class="cls-1" d="M1140.22,503.42c.59-.46,1-1.15,1.61-1.88-1.7-.39-2.86.17-3.9.9-3.42,2.38-6.79,4.83-10.18,7.24-1.84,1.31-3.66,2.63-5.54,3.87-1.06.7-1.42,1.49-.79,2.48.72,1.14,1.51.39,2.17-.06,1.64-1.14,3.24-2.36,4.84-3.57,3.94-2.98,7.89-5.96,11.8-8.98Z"/>
    <path class="cls-1" d="M1182.01,460.27c-1.9,1.63-3.83,3.25-5.54,5.06-2.8,2.97-5.47,6.06-8.1,9.18-.76.9-1.2,2.08-1.78,3.13.11.06.21.12.32.17.97-.59,2.07-1.04,2.87-1.8,1.96-1.86,3.74-3.91,5.68-5.81,2.65-2.6,5.34-5.17,8.08-7.68.92-.84,1.3-1.86.53-2.7-.82-.89-1.52-.02-2.05.44Z"/>
    <path class="cls-1" d="M1114.16,478.13c.96.39,2,.58,2.95.99,6.3,2.77,12.59,5.58,18.89,8.35.42.18.92.19,1.39.27.03-.11.06-.23.1-.34-.13-.16-.23-.36-.4-.46-2.35-1.42-4.67-2.89-7.07-4.22-2.67-1.47-5.41-2.81-8.13-4.18-2.13-1.07-4.27-2.13-6.43-3.12-.88-.41-1.83.19-2.18,1.18-.31.88.28,1.27.9,1.52Z"/>
    <path class="cls-1" d="M1160.31,514.15c-.07-.38-.3-.73-.46-1.1-.14,0-.29,0-.43,0-.14.37-.4.74-.4,1.11-.01,1.94-.08,3.89.1,5.82.33,3.68.86,7.34,1.21,11.02.16,1.67.08,3.36.12,5.04.02.89.94,1.7,1.8,1.49.83-.21,1.42-.67,1.04-1.73-.17-.46-.11-1-.16-1.5-.3-3.09-.5-6.19-.93-9.25-.52-3.65-1.23-7.27-1.88-10.9Z"/>
    <path class="cls-1" d="M1149.09,475.39c.12-.25.41-.58.39-.89-.15-2.54-.16-5.12-.62-7.61-.49-2.7-1.49-5.3-2.13-7.98-.57-2.38-.95-4.81-1.42-7.21-.23-1.17-1.2-.92-1.93-.83-.23.03-.59.86-.5,1.23,1.03,4.4,2.08,8.79,3.24,13.16.89,3.36,1.94,6.67,2.96,10.13Z"/>
    <path class="cls-1" d="M1113.19,519.82c-.09.78.82,1.78,1.56,1.81.78.03,1.93-1.17,1.96-2.04.03-.79-.97-1.6-2.22-1.59-.87.1-1.2.9-1.31,1.82Z"/>
    <path class="cls-1" d="M1188.7,457.71c.61-.2,1.68-.13,1.43-1.41-.14-1.84-.35-2.19-1.36-2.13-.77.05-1.82,1.23-1.8,2.04.01.71,1.07,1.73,1.74,1.5Z"/>
    <path class="cls-1" d="M1142.55,443.13c0-.57-1.15-1.7-1.57-1.42-.66.45-1.88.27-1.93,1.5-.04,1.11.62,1.75,1.81,1.74.86,0,1.68-.9,1.69-1.83Z"/>
    <path class="cls-1" d="M1161.1,544.32c.09,1.13,1,1.33,2.28,1.57.29-.27.98-.62,1.14-1.13.21-.68-1.24-2.19-1.87-2.21-.86-.01-1.63.8-1.55,1.76Z"/>
    <path class="cls-1" d="M1106.67,474.22c.87.23,2.31-.97,2.19-1.79-.08-.52-.59-.97-.76-1.24-1.48-.05-3.25,1.15-2.98,1.82.21.54.94,1.05,1.54,1.21Z"/>
    <path class="cls-1" d="M1202.78,503.91c-.43-.08-1.24.47-1.45.93-.5,1.12.04,2,1.17,2.59.73-.67,2.23-.84,1.84-2.3-.14-.53-.96-1.11-1.56-1.22Z"/>
  </g>
  <path class="cls-1" d="M495.33,398.76c-.4-1.17-.77-2.35-1.17-3.53-.73-2.19-1.49-4.38-2.21-6.58-.38-1.18-.72-2.38-1.04-3.59-.23-.86-.41-1.74-.63-2.6-.33-1.29-.67-2.58-1.04-3.85-.24-.82-.6-1.6-.82-2.42-.23-.88-1.15-1.72-2.25-1.54-.57.09-1.33.78-1.5,1.35-.6,2.02-1.53,3.8-3.12,5.39-.56-.28-1.16-.56-1.74-.89-1.86-1.07-3.73-2.11-5.54-3.25-2.2-1.38-4.38-2.79-6.5-4.28-1.44-1.01-2.71-2.26-4.16-3.24-1.88-1.26-3.88-2.33-5.79-3.55-1.18-.75-2.28-1.63-3.44-2.43-2.58-1.78-5.18-3.52-7.75-5.32-2.59-1.82-5.13-3.72-7.72-5.55-2.4-1.7-4.85-3.33-7.24-5.05-.57-.41-1.18-.83-1.15-1.8.02-.66-.34-1.46-1.25-1.57-1.35-.17-2.29.95-2.13,2.29.1.8.53,1.11,1.13,1.46.37.22.71.6.92.99.71,1.28,1.33,2.6,2.02,3.89.61,1.15,1.3,2.27,1.88,3.44.36.73.58,1.52.88,2.3-2.08-.12-4.02-.32-5.97-.32-1.79,0-3.59.2-5.38.39-.94.1-1.89.28-2.79.55-.52.15-.93.56-.74,1.25.17.61.36,1.09,1.07,1.32,4.17,1.38,8,3.49,11.79,5.65,2.34,1.34,4.59,2.84,6.89,4.24,2.92,1.79,5.9,3.5,8.78,5.36,2.87,1.85,5.66,3.84,8.48,5.78,1.74,1.2,3.48,2.39,5.19,3.64,2.62,1.91,5.19,3.87,7.81,5.77,1.24.9,2.55,1.7,4.15,2.76-1.59.75-2.95,1.34-4.25,2.03-.36.19-.66.61-.84.99-.06.14.3.52.52.73.82.81,1.9.54,2.88.62,2.94.26,5.9.35,8.83.65,2.75.28,5.49.68,8.21,1.18,1.65.3,3.24.9,4.86,1.32.29.07.65-.09.97-.18.17-.05.3-.23.47-.28,1.12-.35,1.52-1.39.94-2.43-.2-.36-.38-.73-.52-1.12ZM482.44,398.78c-3.58-.44-7.19-.63-10.89-.94,1.02-.65,1.98-1.3,2.99-1.88.57-.32.82-.69.61-1.32-.23-.71-.67-.57-1.22-.38-.25.08-.66-.07-.9-.25-2.58-1.89-5.17-3.77-7.7-5.71-3.03-2.32-5.97-4.76-9.02-7.04-2.49-1.86-5.05-3.62-7.65-5.32-3.76-2.46-7.55-4.87-11.36-7.23-4.4-2.72-8.81-5.42-13.59-7.44-.11-.05-.22-.12-.44-.23,2.59-.64,5.1-.63,7.61-.42,1.59.13,3.16.55,4.75.67.53.04,1.22-.32,1.62-.72.5-.49-.11-.9-.39-1.34-.65-1.06-1.22-2.17-1.82-3.26-.67-1.23-1.32-2.47-1.98-3.71-.12-.22-.2-.45-.18-.81.78.5,1.59.95,2.33,1.5,2.14,1.6,4.21,3.27,6.37,4.84,3.23,2.35,6.49,4.66,9.78,6.92,2.32,1.59,4.73,3.07,7.08,4.62.4.26.72.63,1.1.93.62.5,1.01,1,.16,1.66-.09.07,0,.37,0,.57.24-.03.6.03.69-.1.63-.96,1.1-.43,1.75.03,2.11,1.48,4.3,2.85,6.43,4.29,1.95,1.32,3.83,2.76,5.82,4.02,1.36.86,2.87,1.49,4.3,2.25.38.21.67.59,1.05.81.51.29,1.12.77,1.58.68.86-.18,1.69-.57,2.06-1.61.37-1.05.96-2.01,1.46-3.02.15.01.31.02.46.03,2.68,6.87,5.36,13.73,8.05,20.63-3.78-.61-7.33-1.28-10.9-1.72Z"/>
  <g>
    <path class="cls-1" d="M101.87,508.24c.75.32,1.8.44,2.6.28,1.32-.27,2.58-.81,3.82-1.3,5.01-2,10.01-4.01,14.99-6.05,5.6-2.3,11.1-4.8,16.78-6.93,4.89-1.84,9.99-3.29,15-4.92.6-.2,1.17-.47,1.75-.73,1.19-.52,2.54-.9,3.52-1.62,3.15-2.31,8.83-1.22,10.42-5.57.02-.05.09-.08.14-.12,1.94-1.48,2.11-2.61.74-4.47-.27-.36-.42-.81-.52-1.23-.47-2.13-.94-4.26-1.32-6.39-.38-2.12-.61-4.26-1-6.38-.43-2.3-.98-4.59-1.44-6.89-.12-.63,0-1.29-.13-1.91-.59-2.76-1.29-5.5-1.84-8.26-.48-2.4-.71-4.83-1.24-7.22-.65-2.93-1.74-5.8-1.02-8.78-.53-.31-.98-.6-1.46-.85-1.54-.82-5.51.87-5.89,2.34-.48,1.85-1.05,3.65-2.61,5.22-1.24,1.24-2.02,2.85-2.82,4.36-1,1.91-1.78,3.89-2.71,5.83-.33.69-.9,1.3-1.22,1.99-1.23,2.7-2.33,5.44-3.63,8.11-.73,1.51-1.74,2.93-2.55,4.28-1.72-1.17-3.56-2.39-5.35-3.67-3.24-2.31-6.46-4.64-9.67-6.98-2.98-2.17-5.97-4.34-8.89-6.57-4.16-3.18-8.28-6.39-12.37-9.64-.84-.67-1.48-1.53-2.17-2.32-.58-.66-3.59-1.15-3.94-.51-.81,1.49-1.59,3.06-1.88,4.67-.28,1.54.12,3.16.15,4.74.11,6,.21,12,.27,18,.02,2.23-.19,4.46-.11,6.68.16,4.81.53,9.62.61,14.44.05,2.82-1.75,4.87-4.78,5.01-4.53.21-9.11,1.61-13.65-.01-.29-.1-.64-.06-.97-.08-3.23-.2-6.46-.42-9.7-.6-2.15-.12-4.3-.27-6.44-.22-.68.01-1.9.6-1.91.95-.02.76.31,1.82.97,2.25,2.01,1.32,4.22,2.41,6.38,3.57,3.25,1.74,6.52,3.45,9.79,5.17,4.79,2.51,9.54,5.1,14.4,7.5,3.54,1.75,7.22,3.29,10.89,4.84ZM157.09,437.04c.19.02.38.04.57.06.32.87.64,1.75.99,2.72-1.35.31-2.37.54-3.97.91.97-1.49,1.69-2.58,2.41-3.68ZM74.05,491.41c-2.14-1.15-4.21-2.4-6.31-3.6.07-.18.14-.36.22-.54,2.17.31,4.34.75,6.53.91,3.12.22,6.26.3,9.39.32,2.85.02,5.71-.23,8.55-.17,2.93.06,4.75-1.58,6.82-2.85.3-.18.4-.68.46-1.05.65-4.09,1.05-8.17.54-12.32-.33-2.69,0-5.44-.04-8.16-.01-1.11-.26-2.21-.28-3.32-.07-3.92-.05-7.83-.13-11.75-.06-3.05-.24-6.09-.31-9.14-.01-.66.24-1.33.46-2.45,1.53,1.24,2.63,2.13,3.73,3.03,2.88,2.37,5.79,4.71,8.63,7.11,4.2,3.55,8.14,7.34,12.58,10.66,3.7,2.76,6.85,6.11,11.39,8.07,2.82,1.22,4.83.91,6.11-1.56,1.28-2.48,2.28-5.06,3.5-7.57,1.92-3.95,3.92-7.88,5.91-11.8.17-.33.51-.73.87-.83,2.06-.54,4.16-.99,6.47-1.52.15.82.56,1.76.37,2.61-.12.55-1.04,1.09-1.75,1.41-1.27.57-2.72.87-3.96,1.47-1.55.75-.54,1.83.21,2.26.71.4,1.98.37,2.89.17,1-.22,1.88-.85,3.12-1.45.17,1.77.29,3.04.43,4.5-.8.16-1.78.29-2.69.57-1.83.58-3.65,1.18-5.39,1.93-.57.24-1.3,1.14-1.14,1.46.34.7,1.08,1.4,1.88,1.74.5.22,1.4-.19,2.11-.36,1.64-.39,3.25-.94,4.92-1.1.4-.04,1.13,1.12,1.42,1.82.24.58.05,1.29.05,1.95-2.88.16-5.68.67-8.08,2.08-.7.41-1.17,1.32-1.32,2.07-.08.38.71,1.23,1.2,1.28.87.1,2.37-.01,2.62-.45.71-1.21,1.97-.9,3-1.2.96-.28,1.95-.51,3.01-.78.13,1.29.28,2.84.46,4.61-4.11-.27-7.38.91-9.96,3.42,1.18,1.83,2.49,2.03,4.67,1.12,1.88-.78,3.93-1.25,6.09-1.91.27,1.45.49,2.6.71,3.77-2.82.13-5.66.82-8.08,2.35-.66.41-1.38,1.57-1.14,2,.35.62,1.58,1.27,2.41,1.24,1.25-.04,2.6-.49,3.69-1.05,1.79-.93,3.22-.98,4.47.12-2.18,3.05-6.26,3.78-9.56,5.41-2.55,1.27-5.6,1.8-8.36,2.8-3.61,1.3-7.15,2.72-10.71,4.11-5.21,2.03-10.43,4.04-15.61,6.13-2.56,1.03-4.99,2.28-7.54,3.32-2.15.87-4.32,2.01-6.6,2.26-3.57.39-7.18-.16-10.41-1.7-3.77-1.79-7.53-3.6-11.23-5.48-3.8-1.93-7.55-3.94-11.29-5.95Z"/>
    <path class="cls-1" d="M116.27,477.46c.93,1.63,2.17,3.14,3.37,4.65,1.19,1.49,2.44,2.97,3.79,4.36.93.96,2.34,1.65,3.06,2.7,1.25,1.82,2.93.97,4.13.45.7-.31,1.19-1.78.99-2.6-.52-2.15-1.47-4.23-2.22-6.35-.49-1.39-.63-2.93-1.45-4.15-1.29-1.93-1.87-4.1-3.79-5.87-1.51-1.39-2.99-1.91-4.38-2.14-3.45.02-5.86,1.98-5.37,4.2.35,1.63,1.03,3.25,1.88,4.75ZM118.88,472.05c2.91-.28,3.64,1.82,4.38,3.18,1.57,2.86,2.49,5.98,3.68,8.99-.28.11-.56.21-.84.32-1.23-1.6-2.48-3.18-3.67-4.79-.47-.64-.81-1.34-1.25-2-.87-1.29-1.87-2.52-2.58-3.87-.26-.49.17-1.23.28-1.82Z"/>
  </g>
  <path class="cls-1" d="M1077.93,125.56c-.25-3.03-.85-5.76-4.39-7.04-2.95-1.07-5.73-3.28-8.96-.56-.44.37-1.28.3-1.78.64-2.43,1.62-5.2,2.98-7.12,5.03-3.95,4.2-5.23,9.51-5.62,14.99-.28,3.98-.53,7.97-.81,12.27-.67-.12-1.12-.14-1.53-.29-5.31-1.96-10.8-3.58-15.85-6.01-5.45-2.62-10.54-1.23-15.62.23-3.83,1.1-5.18,6.29-2.2,8.64,3.67,2.9,7.74,5.46,11.95,7.62,4.92,2.52,10.18,4.46,15.3,6.64.5.21,1,.42,1.52.57,5.56,1.5,11.13,3.01,16.7,4.47.48.13,1.21.19,1.52-.06,2.28-1.79,5.67-2.88,4.83-6.74-.2-.91.26-2.02.65-2.96,1.29-3.12,2.8-6.16,4-9.31,1.5-3.96,2.69-8.02,4.19-11.99,1.96-5.23,3.7-10.47,3.23-16.12ZM1062.37,156.71c-1.19,2.85-2.01,5.84-3.29,8.65-.56,1.24-1.52,2.58-3.6,1.84-5.25-1.87-10.93-2.4-15.93-5.18-3.86-2.14-8.39-3.18-12.35-5.2-2.77-1.41-5.17-3.54-7.52-5.57-1.12-.97-1.3-2.26.96-2.52,1.35-.16,2.68-.53,4.82-.97,1.54.71,3.61,1.64,5.66,2.61.72.34,1.34.87,2.07,1.16,4.73,1.93,9.43,3.95,14.26,5.64,1.56.55,3.79.78,5.16.13,1.94-.92,2.36-2.89,2.05-5.2-.42-3.16-.41-6.47.09-9.63.66-4.16,1.46-8.42,3.14-12.28,1.54-3.56,3.84-7.08,8.72-7.82,3.54-.54,5.38,1.39,5.32,4.73-.18,10.76-5.52,19.97-9.56,29.6Z"/>
  <path class="cls-1" d="M298.92,191.92c1.37.06,3.05-.69,4.12-1.64,1.15-1.02,1.53-2.87,2.62-3.98,2.77-2.83,5.79-5.41,8.65-8.17,4.34-4.19,8.72-8.34,12.9-12.68,3.38-3.51,6.98-6.97,9.6-11.02,3.53-5.46,6.79-11.25,7.76-17.89.36-2.46.62-5,.39-7.45-.2-2.1-.92-4.25-1.84-6.16-1.65-3.39-3.75-6.52-7.82-7.4-3.91-.85-7.78.15-11.23,1.54-7.03,2.82-13.74,6.4-18.68,12.4-1.3-3.14-2.53-6.13-3.79-9.11-3.2-7.55-8.75-12.3-16.8-14.03-3.28-.7-6.69-.49-9.06,1.81-2.12,2.05-3.75,4.84-4.9,7.6-3.26,7.79-3.32,15.81-.29,23.69,1.74,4.52,3.63,9.03,5.96,13.27,3.13,5.7,6.71,11.16,10.17,16.69,1.55,2.48,3.13,4.95,4.9,7.26,2.14,2.8,4.53,5.4,6.74,8.15.84,1.04.78,2.06-.54,2.85-.43.26-1.02,1.04-.9,1.27.57,1.13,1.31,2.99,2.05,3.03ZM302.64,138.99c.22.04.44.07.66.11,0,3.91.2,7.84-.08,11.73-.15,2.07-1.25,4.06-1.76,6.12-.46,1.87-1.24,1.6-2.36.59-1.46-1.31-2.27-2.74-1.57-4.79,1.32-3.86,2.51-7.76,3.82-11.61.26-.77.85-1.44,1.28-2.15ZM294.13,173.49c-4.58-6.55-9.35-13.01-13.27-19.95-3.27-5.77-6.15-11.96-7.9-18.33-1.85-6.74-1.49-13.91,2.05-20.29,1.97-3.54,4.43-6.44,10.35-4.74,4.08,1.17,6.88,3.43,9.39,6.73,3.53,4.66,5.32,9.93,6.47,15.5.17.83-.12,2.02-.64,2.69-3,3.85-4.57,8.3-5.9,12.9-.89,3.08-1.21,6.09-.08,9.13.26.7.82,1.31,1.29,1.92.65.83,1.27,1.72,2.06,2.4.88.76,1.94,1.83,2.91,1.81.99-.02,2.06-1.09,2.9-1.9.71-.68,1.06-1.72,1.72-2.47,2.45-2.81,1.98-6.4,2.14-9.59.23-4.51-.6-9.06-.89-13.61-.05-.77.1-1.84.59-2.31,2.51-2.37,5.06-4.71,7.79-6.81,2.16-1.66,4.43-3.4,6.94-4.3,3.68-1.31,7.59-2.23,11.47-2.62,1.42-.14,3.61,1.35,4.48,2.71,3.15,4.94,3.19,10.34,1.65,15.92-2.7,9.77-8.2,17.74-15.33,24.73-3.76,3.68-7.5,7.37-11.31,10.99-2.71,2.56-5.55,4.98-8.28,7.52-.72.67-1.24,1.54-2.2,2.75-2.93-3.74-5.85-7.14-8.4-10.79Z"/>
  <path class="cls-1" d="M820.71,80.1c-.74-.32-1.53-.57-2.33-.68-2.13-.3-4.26-.55-6.4-.73-2.93-.25-5.87-.49-8.81-.59-2.37-.08-4.75.05-7.13.11-2.13.05-4.26.1-6.39.19-5.07.21-10.14.43-15.2.67-3.31.15-6.61.34-9.92.51-2.27.12-4.54.18-6.8.35-2.43.18-4.85.5-7.28.7-.81.07-1.63,0-2.45-.07-.58-.05-1.1.36-1.01,1,.09.67.39,1.33.42,2,.06,1.53-.03,3.07,0,4.6.07,3.44.24,6.88.26,10.33.02,3.97.51,7.89,1.16,11.8.44,2.65.82,5.32,1.12,7.99.13,1.18.04,2.4-.03,3.59-.08,1.42.23,1.65,1.55,1.15,1.56-.59,3.12-1.28,4.74-1.62,3.73-.8,7.47-1.55,11.25-2.08,6.14-.86,12.3-1.57,18.46-2.25,3.84-.43,7.7-.81,11.56-.98,4.54-.2,9.08-.18,13.62-.17,1.13,0,2.35.1,3.35.56.78.36,1.41.67,2.11.23.31-.33.61-.67,1.01-1.1,0-.07.04-.37-.09-.56-.45-.71-.49-1.43-.17-2.19.04-.1.01-.22.02-.33.16-2.05.27-4.11.48-6.15.48-4.71,1-9.41,1.53-14.11.39-3.5.82-7,1.25-10.5.02-.19.09-.43.22-.54.55-.46.58-.84-.09-1.14ZM753.86,81.58c4.93-.31,9.87-.6,14.8-.84,6.43-.32,12.86-.6,19.29-.87,3.98-.17,7.96-.4,11.94-.41,3.53,0,7.06.2,10.58.42,2.29.14,4.58.45,6.86.69.15.02.3.09.64.21-1.08.71-1.98,1.39-2.96,1.91-1.36.71-2.8,1.26-4.18,1.93-3.38,1.64-6.79,3.21-10.09,5-2.87,1.56-5.59,3.38-8.35,5.07.04-.7.17-1.46.09-2.2-.14-1.42-1.84-2.34-3.21-1.91-1.68.53-2.77,1.78-3.84,3.02-1.15,1.33-2.19,2.75-3.34,4.2-.37-.65-.82-1.34-1.18-2.08-.61-1.25-1.4-2.28-2.75-2.78-.16-.06-.3-.14-.46-.21-.43-.18-1.04-.62-1.27-.48-.81.52-1.5,1.22-2.19,1.9-.09.09.07.44.16.87-1.11-.79-2.08-1.48-3.06-2.17-.18-.13-.37-.26-.58-.34-1.4-.55-2.8-1.08-4.21-1.62-.05-.02-.12,0-.16-.04-2.02-1.69-4.58-2.37-6.84-3.62-1.42-.78-3-1.28-4.51-1.93-.36-.15-.76-.31-1-.58-1.14-1.29-2.8-1.6-4.25-2.3-.17-.08-.36-.12-.54-.34,1.54-.17,3.07-.4,4.6-.5ZM790.73,92.75c-.03.73-.19,1.48-.45,2.17-.26.7-.56,1.49-1.1,1.96-1.01.89-1.25,2.25-2.18,3.17-1.04,1.04-1.98,2.18-2.99,3.26-.73.79-.89.81-1.71.09-.6-.53-1.18-1.11-1.67-1.74-1.3-1.67-2.59-3.36-3.81-5.09-.42-.6-.63-1.35-.93-2.01.9-.54,2.14-.25,2.72.62.57.85,1.08,1.74,1.56,2.65.35.66.59,1.37.91,2.04.25.52.65.85,1.29.76.59-.09.84-.43,1.07-.99.42-1.02.93-2.03,1.59-2.91.84-1.14,1.82-2.2,2.82-3.21.54-.54,1.24-.93,1.9-1.32.58-.34,1-.01.98.56ZM749.08,83.62c1.39.56,2.8.85,3.97,1.91.8.72,1.9,1.11,2.89,1.58,1.81.86,3.64,1.69,5.48,2.51,1.56.7,3.13,1.35,4.44,2.5.12.1.31.13.46.19.98.38,1.96.76,3.17,1.24-1.12,1.26-1.95,2.37-2.96,3.3-2.09,1.93-4,4.01-5.56,6.37-2.03,3.06-3.98,6.16-5.93,9.26-.77,1.23-1.45,2.52-2.2,3.76-.37.61-.81,1.19-1.16,1.7-2.38-11.26-3.14-22.69-2.6-34.32ZM813.78,114.7c-.47.04-.95-.04-1.43-.05-2.15-.05-4.3-.12-6.45-.13-2.01-.01-4.03-.04-6.03.08-3.62.21-7.23.5-10.84.78-2.55.2-5.09.4-7.63.67-2.79.3-5.58.65-8.36,1.04-3.22.46-6.45.93-9.65,1.49-3.61.63-7.26,1.15-10.74,2.41-.31.11-.63.21-.95.31-.08-.04-.16-.09-.24-.13.24-.48.43-.98.72-1.43,1-1.57,2.08-3.09,3.05-4.68,1.28-2.1,2.36-4.32,3.73-6.35,1.68-2.5,3.53-4.89,5.39-7.26,1.33-1.69,2.8-3.26,4.58-4.52.61-.43.93-1.25,1.43-1.84.55-.65.95-.66,1.37.07.53.91,1.52,1.2,2.32,1.49,1.35.5,1.98,1.56,2.81,2.53,1.52,1.78,3.1,3.51,4.66,5.26.13.15.28.28.38.45.62,1,2.27,1.24,3.16.45.04-.04.1-.07.12-.12,1.31-2.9,3.88-4.83,5.67-7.37.56-.79,1.63-1.23,2.47-1.83.39-.28.83-.5,1.15-.84.67-.69,1.4-.61,2.19.16,1.19,1.17,2.3,2.41,3.43,3.63,1.45,1.55,2.9,3.09,4.32,4.66,1.82,2.02,3.57,4.1,5.42,6.08,1.03,1.09,2.21,2.04,3.33,3.05.37.34.75.66,1.08,1.04.3.35.05.84-.48.89ZM817.16,97.6c-.42,5.03-.98,10.04-1.48,15.06-.08.05-.15.11-.23.16-1.18-1.11-2.39-2.19-3.53-3.34-1.51-1.53-2.96-3.12-4.43-4.68-.53-.57-1.07-1.12-1.6-1.7-1.63-1.76-3.24-3.53-4.87-5.28-1.04-1.11-2.11-2.19-3.17-3.29-.25-.26-.48-.54-.76-.87,3.37-2.31,6.89-4.08,10.51-5.68,1.79-.79,3.49-1.78,5.26-2.62,1.77-.85,3.58-1.62,5.37-2.45.19-.09.34-.26.72-.56-.23,5.25-1.36,10.21-1.79,15.25Z"/>
  <g>
    <path class="cls-1" d="M1282.3,228.8c-1.4-.28-2.49,0-3.03,1.66-.64,1.97-1.3,4.04-2.43,5.74-5.85,8.85-10.76,18.12-12.79,28.64-.92,4.78-1.52,9.64-1.92,14.48-.3,3.64-.06,7.32-.06,10.98-.18.04-.36.08-.54.12-.35-.55-.69-1.11-1.04-1.66-4.32-6.78-8.59-13.59-12.99-20.32-3.29-5.04-7.13-9.66-11.54-13.78-1.71-1.6-3.5-3.11-5.31-4.58-1.18-.96-2.57-.45-3.31.42-.4.48-.02,1.96.43,2.76,2.63,4.74,5.61,9.3,8.04,14.14,4.12,8.21,8.77,16.09,13.91,23.68.45.67.8,1.41,1.46,2.59-4.78-1.18-9-2.3-13.25-3.26-4.16-.94-8.33-2.15-12.55-2.45-7.56-.54-15.14-.28-22.63,1.24-1.27.26-2.34.81-2.19,1.97.08.6,1.48,1.33,2.36,1.46,4.42.62,8.91.81,13.3,1.61,10.96,2.01,21.33,5.75,30.72,11.81,2.59,1.67,6.05,2.68,6.86,6.41.07.31.93.63,1.43.64.66.02,1.4-.13,1.97-.45.52-.28,1.19-.87,1.21-1.35.03-.61-.4-1.38-.87-1.83-.61-.59-1.47-.91-2.2-1.38-3.56-2.34-6.92-5.08-10.71-6.96-5.02-2.49-10.29-4.55-15.61-6.37-4.18-1.43-8.59-2.22-12.9-3.3-.47-.12-.93-.28-1.39-.42,5.46-.45,10.87-.53,16.15.87,7.46,1.98,14.88,4.08,22.36,5.97.84.21,2.05-.44,2.87-1.01.39-.28.59-1.5.32-1.95-2.36-3.84-4.85-7.61-7.29-11.4-2.12-3.3-4.38-6.52-6.3-9.93-1.78-3.17-3.19-6.56-4.77-9.84-.45-.93-.93-1.84-1.39-2.76,1.83,1.6,3.49,3.29,4.76,5.22,5.92,8.99,11.73,18.06,17.61,27.08.93,1.42,1.94,2.83,3.15,3.99.44.43,1.7.39,2.37.09.6-.27,1.3-1.21,1.29-1.83-.07-4-.49-7.99-.5-11.99-.02-11.34,1.82-22.33,6.74-32.65,1.95-4.1,4.26-8.04,6.4-12.05.18.06.35.12.53.18,0,5.17.09,10.34-.02,15.5-.17,8.36-.89,16.68-2.54,24.89-1.25,6.25-2.75,12.46-3.82,18.74-1.21,7.12-1.04,14.12,3.54,20.29.32.43.74.79,1.42,1.51.16-1.1.41-1.73.31-2.29-.32-1.82-.58-3.69-1.21-5.41-1.82-4.97-1.44-10.01-.6-15.02,1.17-6.95,2.67-13.84,3.88-20.78,1.61-9.18,2.35-18.43,2.43-27.75.05-5.81.54-11.62.94-17.42.08-1.13.34-2.18-1.09-2.46Z"/>
    <path class="cls-1" d="M1250.47,230.98c-.46.03-1.31,1.28-1.19,1.79,1.43,6.05,2.89,12.1,4.58,18.08,1.23,4.36,2.8,8.63,4.22,12.94.21.02.42.03.63.05.2-.75.65-1.53.56-2.24-.43-3.3-.92-6.6-1.56-9.87-1.28-6.46-2.65-12.9-4.03-19.34-.39-1.8-2.01-1.48-3.2-1.4Z"/>
    <path class="cls-1" d="M1258.02,240.19h.67c.16-1.05.5-2.11.44-3.14-.28-4.93-.63-9.85-1.03-14.77-.12-1.51-.47-3.01-.68-4.52-.17-1.23-.67-2.25-2.07-2.06-1.35.18-1.87,1.01-1.58,2.5.95,4.83,1.76,9.68,2.67,14.51.47,2.51,1.05,5,1.58,7.49Z"/>
    <path class="cls-1" d="M1212.96,269.22c.63.5,1.25,1.01,1.89,1.5.64.49,1.31.93,1.94,1.42,2.86,2.25,5.72,4.49,8.57,6.76,1.02.82,1.87.83,2.56-.35-.73-1.14-1.18-2.31-2.01-3.07-2.96-2.69-5.99-5.3-9.12-7.8-.51-.41-1.69-.3-2.42-.03-.58.21-.95,1.02-1.41,1.57Z"/>
  </g>
  <path class="cls-1" d="M1396.9,664.68c-1.54-.3-3.11-.44-4.68-.63-2.95-.35-5.9-.66-8.84-1.03-2.1-.26-4.26-.34-6.26-.93-2.05-.6-3.96-1.7-5.91-2.61-.79-.37-1.11-1.03-1.05-1.93.14-2.1,1.34-3.68,2.57-5.22,1.97-2.46,4.03-4.86,6.04-7.29,1.31-1.59,2.59-3.19,3.98-4.9-.45-1.35-1.08-1.59-2.47-.72-1.01.63-2.04,1.22-3.01,1.9-4.83,3.38-9.65,6.79-14.48,10.17-.43.3-.95.48-1.41.71-.12-.22-.18-.28-.19-.35,0-.14,0-.29.02-.44.52-4.74,2.61-8.89,4.87-12.99,2.56-4.63,5.25-9.19,7.53-13.96,1.77-3.72,2.98-7.7,4.46-11.56.58-1.52,1.28-3.01,1.78-4.55.15-.47,0-1.31-.35-1.61-.6-.52-1.32-.28-1.8.44-.6.9-1.14,1.84-1.83,2.66-4.18,4.97-8.45,9.87-12.6,14.87-2.78,3.35-5.51,6.76-8.11,10.25-1.94,2.6-3.64,5.36-5.47,8.05-.17.25-.55.64-.66.59-.34-.16-.74-.45-.86-.78-.33-.94-.64-1.92-.78-2.91-.65-4.86-1.21-9.73-1.89-14.59-.05-.36-.79-.76-1.28-.87-.52-.12-.95.17-.99.9-.05.92-.18,1.86-.43,2.74-.92,3.22-1.91,6.41-2.85,9.62-.66,2.25-1,4.64-2.47,6.56-1.1,1.43-1.73,1.96-3.07.51-.74-.8-1.49-1.65-2.03-2.59-.81-1.45-1.44-3-2.16-4.5-1.76-3.67-3.62-7.29-5.26-11.01-2.54-5.74-4.93-11.53-7.38-17.31-.32-.74-.49-1.56-.87-2.26-.26-.48-.77-.82-1.17-1.22-.32.5-.92,1-.91,1.49.09,2.14.35,4.28.55,6.42.38,4,.34,8.04,1.32,11.98.8,3.21,1.36,6.48,2.13,9.71.71,3,1.56,5.97,2.32,8.95.13.52.11,1.08.18,1.86-.66-.38-1.09-.59-1.47-.87-2.32-1.68-4.62-3.37-6.93-5.06-1.56-1.14-3.14-2.25-4.65-3.46-1.42-1.13-2.76-2.35-4.12-3.54-.58-.5-1.21-.7-1.72-.02-.49.66-.16,1.23.41,1.74.86.76,1.76,1.51,2.49,2.38,3.52,4.21,6.13,9,8.61,13.86.16.31.24.66.41,1.11-.5.05-.84.15-1.15.09-1.89-.36-3.79-.67-5.64-1.18-2.93-.81-5.83-1.74-8.73-2.66-.65-.21-1.42-.42-1.25-1.42.02-.1-.12-.26-.23-.34-.46-.35-2.01-.14-2.41.4-.38.51-.74,1.1.04,1.67.17.12.14.49.27.7.66,1.11,1.15,2.41,2.07,3.24.85.76,1.17,1.61,1.77,2.88-1.19-.11-2.1-.12-2.98-.3-1.67-.34-3.32-.82-4.99-1.16-2.92-.6-5.86-1.12-8.78-1.7-1.21-.24-2.4-.53-3.59-.82-1.13-.28-1.15.81-1.66,1.31.34.29.64.65,1.02.87.61.34,1.27.57,1.91.85,2.54,1.14,5.04,2.38,7.63,3.41,3.87,1.54,7.83,2.86,11.71,4.4,3.04,1.2,6.02,2.57,9.01,3.9.43.19.79.56,1.2.85-3.79,1.07-7.45,2.08-11.09,3.13-2.54.73-5.04,1.66-7.61,2.24-3.48.78-7.01,1.29-10.52,1.96-.82.15-1.1.81-.97,1.57.15.85.76.57,1.32.47.8-.15,1.61-.34,2.42-.32,3.74.1,7.48.3,11.22.4,3.05.08,6.11.13,9.16.1,1.72-.02,3.42-.12,5.05.57,1.01.43,1.4,1.05.91,1.88-1.02,1.76-2.22,3.41-3.24,5.17-.22.38-.08,1.04.05,1.53.05.19.56.42.79.36.53-.14,1.12-.34,1.5-.71,1.54-1.52,3.45-1.81,5.45-1.68.32.02.85.68.83,1.01-.06.76-.32,1.54-.64,2.24-2.31,5.09-4.66,10.16-6.97,15.24-1.12,2.47-2.22,4.96-3.21,7.48-.72,1.82-1.26,3.71-1.84,5.59-.16.53-.34,1.19-.16,1.65.11.28.9.29,1.35.41.28-.58.4-.96.62-1.28.52-.77,1.05-1.54,1.62-2.28,3.1-3.94,6.16-7.92,9.36-11.78,2.25-2.72,4.7-5.28,7.08-7.89,1.3-1.42,2.63-2.81,4-4.16,1.12-1.11,2.93-.78,3.39.64.32.97.52,2.02.53,3.04.07,4.87.1,9.74.07,14.61-.01,1.81-.26,3.62-.34,5.43-.02.43.21.88.32,1.31.5-.31,1.24-.49,1.46-.94.54-1.08.79-2.29,1.24-3.42,1.48-3.72,3.02-7.42,4.5-11.14,1.05-2.65,2-5.35,3.08-8,.51-1.25,1.06-1.4,2.41-1.1,1.86.41,2.8,1.89,3.68,3.33.92,1.5,1.64,3.13,2.48,4.68.38.71.99.88,1.71.47.66-.38.86-.84.4-1.56-.18-.28-.13-.72-.15-1.09-.07-1.79-.12-3.57-.21-5.36-.04-.75-.16-1.49-.27-2.42.36.25.54.36.7.5,2.56,2.24,4.87,4.71,6.91,7.44,2.07,2.77,4.31,5.41,6.34,8.21,1.97,2.72,3.78,5.56,5.62,8.37.23.35.14.9.37,1.26.71,1.12,1.48,1.02,2.66-.27-.25-.45-.61-.87-.73-1.35-.76-3.07-1.45-6.15-2.2-9.22-.72-2.93-1.48-5.85-2.22-8.77-.68-2.71-1.37-5.41-2.05-8.12-.19-.76.1-1.08.88-.9.91.21,1.83.4,2.73.64,3.54.94,6.83,2.49,10.09,4.14,3.48,1.76,7.15,3.15,10.13,5.78.17.15.66.11.9-.02.83-.47.76-1.39-.01-2.11-2.73-2.56-5.45-5.13-8.13-7.74-2.64-2.57-5.25-5.17-7.85-7.78-1.59-1.61-3.29-3.12-4.23-5.27-.31-.71-.15-1.08.46-1.31,1.49-.58,2.95-1.28,4.5-1.63,5.31-1.2,10.63-2.33,15.97-3.34,1.89-.36,3.79-1.18,5.79-.53,1.07.35,1.5-.44,1.48-1.2,0-.33-.87-.82-1.4-.92ZM1384.71,667.26c-4.62,1.04-9.22,2.14-13.82,3.23-.32.08-.63.23-.94.38-1.79.86-2.05,2.13-1.09,3.93,1.31,2.45,3.38,4.17,5.33,6.03,2.18,2.07,4.22,4.28,6.33,6.42,1.83,1.85,3.68,3.68,5.42,5.68-2.35-1.21-4.71-2.42-7.06-3.64-4.22-2.19-8.67-3.78-13.29-4.89-.48-.12-1.28-.05-1.52.25-.28.36-.23,1.09-.13,1.62.35,1.9.71,3.81,1.19,5.68,1.6,6.25,3.25,12.49,4.87,18.73.02.06-.03.13-.12.44-.83-1.2-1.57-2.26-2.3-3.33-1.25-1.85-2.42-3.74-3.73-5.54-1.57-2.16-3.18-4.3-4.9-6.34-1.92-2.29-3.96-4.47-5.99-6.66-.87-.94-1.81-1.82-2.77-2.68-.23-.21-.72-.4-.93-.29-.31.16-.7.62-.67.92.15,1.77.43,3.54.61,5.31.11,1.04.11,2.1.16,3.15-.12.04-.24.09-.36.13-.39-.68-.83-1.34-1.17-2.05-1.11-2.36-2.74-4.12-5.38-4.73-1.11-.25-2.18.19-2.81,1.12-1.41,2.09-2.43,4.33-2.92,6.83-.19.97-.66,1.9-1.03,2.83-1.2,3.08-2.41,6.15-3.62,9.22-.12.31-.32.58-.61,1.11,0-1.38.02-2.48,0-3.59-.04-2.23-.11-4.46-.13-6.68-.03-2.61,0-5.22-.03-7.82-.03-2.51-1.77-4.28-4.17-3.84-1.08.2-2.15,1.15-2.95,2.01-2.75,2.94-5.43,5.95-8.06,9-3.43,3.98-6.78,8.03-10.14,12.07-.7.85-1.26,1.81-1.88,2.72-.1-.05-.2-.1-.29-.15.98-2.42,1.88-4.88,2.94-7.26,1.35-3.04,2.83-6.03,4.24-9.05,1.72-3.67,3.42-7.35,5.11-11.04.24-.53.44-1.1.57-1.67.27-1.24-.41-2.09-1.69-2.25-2.13-.26-4.16,0-6.19.96.71-1.33,1.4-2.66,2.12-3.98.77-1.4.47-2.28-.86-3.16-1.43-.94-3.03-1.12-4.6-.98-4.29.38-8.55.11-12.83-.06-1.55-.06-3.1-.01-4.65-.01,0-.1-.01-.21-.02-.31,1.01-.24,2.03-.44,3.03-.73,4.95-1.41,9.87-2.89,14.84-4.24,1.9-.52,3.89-.72,5.82-1.15.47-.11.88-.52,1.32-.8-.31-.43-.53-.98-.93-1.27-3.73-2.67-8.04-4.09-12.29-5.66-4.74-1.75-9.44-3.61-14.15-5.43-.33-.13-.62-.36-.86-.76,1.41.27,2.82.49,4.22.81,2.42.55,4.84,1.15,7.25,1.75.54.13,1.07.31,1.6.51.83.31,1.98-.02,2.45-.77.42-.67.81-1.37,1.16-1.96-.75-1.51-1.45-2.93-2.16-4.36.11-.08.21-.17.32-.25.5.09,1.02.15,1.51.28,3.01.81,6.03,1.61,9.03,2.47,1.7.49,3.4.79,5.16.5.42-.07,1.04-.23,1.17-.53.15-.35-.04-.93-.25-1.33-.57-1.11-1.22-2.17-1.84-3.25-.92-1.59-1.82-3.19-2.77-4.76-.84-1.38-1.74-2.73-2.44-4.28.51.32,1.04.6,1.51.96,2.82,2.13,5.6,4.32,8.44,6.41.77.57,1.68,1.01,2.6,1.27.52.15,1.22-.1,1.74-.37.14-.07-.05-.87-.16-1.32-.43-1.84-.88-3.68-1.34-5.51-.77-3.05-1.59-6.09-2.33-9.15-.52-2.12-.86-4.29-1.43-6.4-1.21-4.49-1.02-9.13-1.61-13.69-.01-.09.08-.19.22-.5.98,2.26,1.91,4.34,2.81,6.44,2.26,5.29,4.47,10.62,6.79,15.89,1.44,3.28,2.98,6.52,4.62,9.7.84,1.63,2.11,2.97,3.89,3.67.98.38,2.89-.52,3.74-1.69,1.41-1.95,2.01-4.22,2.64-6.49.87-3.17,1.78-6.33,2.92-9.48.35,2.09.69,4.19,1.05,6.28.45,2.6.94,5.19,1.37,7.79.2,1.23,1.12,1.68,2.1,1.86,1.11.2,1.89-.53,2.41-1.46,2.18-3.92,4.7-7.6,7.68-10.97,1.62-1.84,3.02-3.87,4.59-5.76,1.88-2.27,3.85-4.45,5.75-6.71,1.82-2.17,3.58-4.38,5.38-6.56.61-.74,1.28-1.42,1.92-2.13.12.07.24.14.35.21-1.46,3.74-2.67,7.59-4.42,11.18-2.72,5.57-5.83,10.95-8.73,16.43-1.87,3.53-3.67,7.11-4.08,11.18-.09.85-.55,1.81.38,2.44,1.07.73,2.23.36,3.17-.25,2.83-1.86,5.58-3.83,8.37-5.76,2.35-1.62,4.71-3.23,7.22-4.72-.79,1.09-1.53,2.22-2.39,3.25-1.81,2.18-3.77,4.24-5.49,6.49-.95,1.25-1.7,2.73-2.22,4.21-.68,1.97.24,3.35,2.25,4.51,4.54,2.63,9.47,3.41,14.62,3.55,2.18.06,4.34.55,6.51.84,0,.12,0,.23,0,.35-2.42.48-4.84.9-7.24,1.44Z"/>
  <g>
    <path class="cls-1" d="M755.53,699.73c1.54,2.32,2.86,4.79,4.24,7.21.3.53.52,1.11.7,1.7.13.44-.03,1.06.22,1.36.33.4.91.72,1.44.84,2.61.58,5.27.96,7.85,1.65,7.14,1.92,14.24,3.97,21.37,5.93.55.15,1.21.1,1.77-.05,1.63-.42,2.29-1.64,2.67-3.21.87-3.57,3.17-6.41,5.08-9.44.6-.95,1.44-1.74,2.14-2.62.31-.4.77-.83.79-1.27.09-1.4-2.16-2.5-3.45-1.85-1.47.74-2.96,1.54-4.53,1.98-3.21.9-6.49,1.57-9.88,2.37-.84-.33-1.98-.43-2.43-1.04-.95-1.29-1.74-2.77-2.21-4.29-.88-2.82-.2-5.73.14-8.55.42-3.48,1.18-6.92,1.88-10.36.31-1.56.93-3.06,1.19-4.62.12-.74-.09-1.67-.49-2.3-.19-.31-1.36-.38-1.75-.09-.78.57-1.5,1.37-1.94,2.23-1.22,2.39-2.32,4.84-3.4,7.3-1.32,3.02-2.55,6.08-3.85,9.11-1.15,2.69-2.23,5.44-4.24,7.63-.75.82-1.42,1.71-2.89,1.59-1.41-.11-2.38-.85-3.36-1.58-3.17-2.34-6.29-4.76-9.37-7.22-.95-.76-1.86-.45-2.43.18-.73.81.09,1.54.63,2.21,1.4,1.72,2.9,3.37,4.13,5.21ZM764.33,704.01c.68.53.92,1.61,2.19,1.34.84-.18,2.42-1.13,2.69-1.96.1-.32.16-.72.39-.92,3.31-2.97,4.62-7.04,6.19-10.99,1.36-3.41,2.9-6.75,4.36-10.12.14.03.28.06.42.08-.24,1.28-.44,2.58-.74,3.85-.89,3.82-1.43,7.68-1.43,11.61,0,3.28,1.39,6.02,3.3,8.55.82,1.09,2.09,1.41,3.3,1.23,3.22-.46,6.42-1.08,9.61-1.67,1.11-.2,2.2-.51,3.31-.76.08.09.15.18.23.28-.51.84-1.07,1.65-1.53,2.52-1.28,2.4-2.56,4.81-3.77,7.24-.55,1.12-1.2,1.34-2.43.99-6.69-1.88-13.41-3.67-20.13-5.45-1.87-.49-3.81-.74-5.67-1.26-.83-.23-1.83-.68-2.27-1.35-1.64-2.5-3.07-5.12-4.58-7.71-.1-.18-.14-.39-.23-.66,2.31,1.75,4.56,3.43,6.77,5.16Z"/>
    <path class="cls-1" d="M802.03,672.12c.54-.66,1.45-1.04,1.89-1.74.42-.66.77-1.65.58-2.33-.14-.49-1.19-.89-1.88-1.01-.85-.14-1.4.38-1.3,1.37.02.17-.19.37-.31.54-.93,1.33-1.9,2.63-2.79,3.99-.21.32-.14.81-.22,1.34,1.89-.28,3.07-.99,4.03-2.17Z"/>
    <path class="cls-1" d="M767.66,659.25c.55,1.42,1.07,2.85,1.75,4.2.2.4.88.7,1.37.75.25.02.57-.61.69-.74-.26-2.19-.48-4.05-.7-5.91,0-.09.01-.23-.04-.25-.73-.43-1.44-1.13-2.2-1.19-.79-.06-1.41.68-1.26,1.65.08.51.21,1.03.39,1.51Z"/>
    <path class="cls-1" d="M784.11,664.4c.64-.25,1.33-.67,1.72-1.22.71-1.03,1.29-2.18,1.76-3.34.22-.55.29-1.68.04-1.81-.74-.38-1.7-.62-2.5-.47-.73.14-1.48.75-1.09,1.86.12.36-.07.84-.18,1.25-.2.8-.45,1.59-.76,2.68.33.36.83,1.11,1.01,1.04Z"/>
    <path class="cls-1" d="M751.32,663.34c.6.5,1.11,1.1,1.68,1.64.82.79,1.6,1.62,2.48,2.35.25.21.96.28,1.12.1.24-.27.39-.91.23-1.21-.84-1.62-1.73-3.23-2.74-4.74-.34-.51-1.11-.74-1.81-1.18-.41.3-.97.5-1.15.88-.31.69-.61,1.48.2,2.16Z"/>
    <path class="cls-1" d="M815.57,680.82c.33-.23.22-1.5-.07-2.08-.37-.73-1.24-1.07-2.04-.45-1.42,1.1-2.81,2.24-4.17,3.4-.33.28-.51.73-.75,1.1.36.21.72.42,1.15.67,2.2-.52,4.14-1.41,5.88-2.64Z"/>
    <path class="cls-1" d="M740.29,711.05c-.22-.28-.81-.34-1.23-.34-.42,0-.87.15-1.27.32-1.54.69-3.08,1.36-4.56,2.16-.29.16-.55.94-.41,1.23.27.53.84.91,1.21,1.27.3-.1.38-.14.47-.15,2.27-.42,3.77-2.14,5.59-3.31.24-.16.38-.96.2-1.18Z"/>
    <path class="cls-1" d="M812.65,696.49c.34.26.67.75,1.01.75,1.65.03,3.3,0,4.94-.12,2.93-.22,3.17-.68,1.82-3.39-2.34.63-4.62,1.22-6.88,1.88-.35.1-.6.57-.89.88Z"/>
    <path class="cls-1" d="M739.13,674.7c1.18.39,2.23,1.2,3.41,1.61.95.33,2.07,1.23,3.05-.13-.72-.76-1.24-1.51-1.94-2.02-1.16-.86-2.42-1.6-3.67-2.34-.74-.44-1.69-.07-1.66.56.03.72-.58,1.86.8,2.32Z"/>
    <path class="cls-1" d="M753.38,735.88c-.65.98.04,1.86,1.54,1.87.25-.12.87-.21,1.16-.57.45-.56.69-1.3,1-1.97.47-.99.99-1.96,1.35-2.99.13-.37-.16-.88-.26-1.32-.42.13-1.01.12-1.24.4-1.24,1.48-2.48,2.98-3.54,4.59Z"/>
    <path class="cls-1" d="M731.88,699.45c2.03-.15,4.04-.46,6.05-.76.24-.04.59-.45.59-.69,0-.26-.29-.69-.53-.76-1.17-.33-2.36-.57-3.55-.84-.01.1-.03.19-.04.29-.88,0-1.76-.03-2.63,0-.79.03-1.24.52-1.19,1.28.05.76.45,1.55,1.3,1.48Z"/>
    <path class="cls-1" d="M739.8,727.91c.89-.66,1.67-1.16,2.36-1.77.93-.82,1.84-1.68,2.64-2.62.2-.24.11-.94-.11-1.25-.14-.2-.85-.24-1.14-.07-1.55.9-3.11,1.82-4.54,2.89-.39.29-.59,1.14-.51,1.68.05.37.73.66,1.3,1.14Z"/>
    <path class="cls-1" d="M733.43,684.85c1.96,1.09,4.12,1.52,6.34,1.67.2.01.4-.11.61-.16.1-.15.19-.31.29-.46-.73-.61-1.38-1.37-2.21-1.81-1.42-.75-2.8-1.92-4.59-1.32-.4.13-.87.57-.97.95-.08.32.23.96.54,1.13Z"/>
    <path class="cls-1" d="M783.81,736.98c-.17.02-.33.04-.5.07-.06.42-.27.88-.16,1.25.6,2.06,1.41,4,2.83,5.7.89,1.06,1.52.29,2.28.15-.13-.65-.09-1.39-.41-1.92-.47-.77-1.23-1.35-1.79-2.08-.79-1.03-1.51-2.11-2.25-3.17Z"/>
    <path class="cls-1" d="M769.33,734.01c-.24.57-.58,1.12-.71,1.71-.33,1.46-.49,2.96-.88,4.4-.2.76-.36,1.48.4,1.84.52.24,1.44.34,1.8.04.42-.35.53-1.19.58-1.83.06-.81-.06-1.64-.14-2.45-.13-1.23-.29-2.45-.44-3.67-.2-.01-.4-.03-.6-.04Z"/>
    <path class="cls-1" d="M814.59,710.62c-.27-.08-.69.08-.93.27-.1.08.01.56.14.79,1.1,1.97,3.19,2.3,5.24,3.25.54-.42,1.35-.75,1.53-1.28.11-.35-.59-1.26-1.1-1.47-1.58-.64-3.23-1.09-4.88-1.56Z"/>
    <path class="cls-1" d="M800.51,733.86c-.15-.13-.46-.08-.7-.11-.03.28-.19.63-.08.84.76,1.46,1.55,2.91,2.4,4.31.22.36.71.55,1.2.91.44-.34.97-.54,1.11-.9.17-.43.21-1.18-.05-1.44-1.22-1.27-2.56-2.44-3.89-3.62Z"/>
    <path class="cls-1" d="M812.25,728.96c.47.24,1.51.16,1.79-.18.6-.75.31-1.57-.6-2.07-.61-.33-1.19-.76-1.83-1.01-.94-.36-1.94-.6-3.19-.98.51,2.56,2.21,3.41,3.83,4.24Z"/>
  </g>
  <path class="cls-1" d="M589.64,87.65c.31.14,1.11-.16,1.31-.48.81-1.29,1.47-2.66,1.94-3.56-1.57-3.39-4.63-3.47-7.2-4.46-.39-.15-.75-.41-1.08-.68-3.17-2.65-6.23-5.44-9.57-7.86-.74-.53-2.78-.14-3.6.56-1.04.88-.09,2.09.88,2.84,1.73,1.34,3.48,2.66,5.22,3.97,1.29.97,2.59,1.92,3.88,2.89-.08.25-.16.49-.24.74-2.42.23-4.84.47-7.26.7-4.08.39-8.22.47-12.23,1.23-9.18,1.75-18.32,3.74-27.43,5.84-4.27.99-8.5,2.27-12.63,3.74-6.15,2.18-12.13,4.85-18.32,6.94-8.04,2.71-15.94,5.73-23.35,9.88-7.39,4.14-14.72,8.39-22.02,12.71-3.46,2.05-6.79,4.3-10.11,6.55-3.97,2.69-8.1,5.27-10.19,9.88-.3.67-.05,1.59-.05,2.39.75-.2,1.58-.25,2.22-.63.57-.34.84-1.14,1.38-1.57,3.82-3.08,7.58-6.26,11.56-9.12,4.49-3.22,9.06-6.37,13.84-9.12,6.6-3.8,13.39-7.28,20.18-10.73,4.69-2.38,9.43-4.72,14.32-6.62,6-2.32,12.13-4.34,18.29-6.17,9.65-2.88,19.3-5.79,29.09-8.12,6.97-1.66,14.15-2.53,21.27-3.47,3.85-.51,7.79-.43,11.68-.61-3.5,3.61-7.21,6.64-10.78,9.82-.62.56-1.11,1.85-.91,2.59.21.79,1.28,1.76,2.07,1.85.76.09,1.71-.75,2.44-1.35.59-.49.9-1.32,1.47-1.84,2.48-2.26,4.85-4.71,7.6-6.59,1.77-1.22,3.53-3.4,6.31-2.13Z"/>
  <path class="cls-1" d="M692.09,398.34c4.6.33,9.24.21,13.86.31,3.46.08,6.93.2,10.55.3-2.42,6.68-.54,12.14,4.8,16,3.68,2.66,7.86,4.9,12.15,6.37,5.88,2.02,12.04,3.25,18.12,4.59,4.9,1.08,9.88,1.82,15.02,2.75-.22.68-.41,1.34-.65,1.98-1.15,3.12-.99,6,1.1,8.8,2.79,3.74,6.77,5.62,10.87,7.22,7,2.73,14.38,3.85,21.83,4.53,3.88.35,7.76.72,11.45,1.06.38,1.92.49,3.74,1.09,5.37,1.7,4.64,5.79,6.46,10.07,7.79,8.95,2.79,18.28,3.25,27.8,4.19-.17.65-.25,1.21-.46,1.73-1.25,3.22-1.06,6.42.85,9.2,1.45,2.11,3.18,4.35,5.33,5.61,4.07,2.39,8.42,4.4,12.84,6.06,7.12,2.68,14.43,4.84,21.59,7.42,10.1,3.64,20.2,7.28,30.16,11.26,6.25,2.5,12.24,5.66,18.38,8.44.74.34,2.04.56,2.5.16.62-.53,1.03-1.78.87-2.6-.18-.89-.93-2.06-1.72-2.39-3.73-1.54-7.59-2.73-11.34-4.23-6.41-2.57-12.71-5.41-19.16-7.87-5.94-2.27-12.01-4.22-18.03-6.27-4.89-1.67-9.82-3.21-14.69-4.96-5.76-2.07-11.51-4.2-17.18-6.5-2.87-1.16-5.25-3.13-6.94-5.8-1.66-2.63-.59-5.12.6-7.46,1.01-1.97,3.02-1.69,4.9-1.65,4.96.12,9.92.1,14.88.19,1.53.03,2.27-1.04,2.06-2.11-.24-1.26-.95-2.8-1.95-3.46-2.06-1.35-4.41-2.3-6.73-3.19-1.13-.43-2.46-.53-3.69-.48-3.44.12-6.16,1.91-8.77,3.98-.7.56-1.77,1.05-2.61.98-6.15-.52-12.33-.98-18.43-1.89-4.47-.67-8.87-1.9-13.25-3.07-2.11-.56-3.91-1.8-4.78-3.97-1.19-2.95-.24-4.26,2.76-4.27,9.6-.02,19.19-.11,28.79-.25.58,0,1.57-.56,1.65-1,.25-1.31.49-2.8.11-4.02-.84-2.68-3.42-3.55-5.75-4.3-10.55-3.4-20.44-2.66-29.17,4.96-.59.51-1.71.72-2.52.62-8.45-1.01-16.91-2.01-25.33-3.22-4.98-.72-9.71-2.42-13.81-5.37-1.45-1.04-2.98-2.74-3.32-4.38-.78-3.74,2.31-6.65,6.05-6.23.92.1,1.82.34,2.73.44,12.71,1.31,25.42,2.63,38.14,3.86.62.06,1.58-.43,1.89-.96.31-.51.2-1.51-.11-2.08-.34-.63-1.07-1.13-1.73-1.51-9.87-5.67-20.6-8.04-31.87-8.3-4.38-.1-8.68.6-12.33,3.06-1.88,1.27-3.51,1.39-5.55,1.03-3.71-.67-7.48-1.02-11.19-1.72-9.08-1.7-18.26-3.14-26.65-7.32-5.57-2.78-10.89-6.25-8.75-13.83.54-1.93,1.32-3.05,3.56-3.02,9.04.12,17.96-1.11,26.83-2.74,2.41-.44,3.63-2.48,2.74-4.77-.74-1.91-2.27-2.96-4.26-3.01-4.46-.12-8.93-.2-13.39-.08-4.92.13-9.8,1.07-13.48,4.48-2.47,2.29-5.15,2.49-7.98,2.33-11.42-.66-22.93.14-34.26-2.07-2.76-.54-5.64-.9-6.88-4.1-.33-.85-1.06-1.54-1.75-2.49-1.23,1.91-2.36,3.67-.93,5.38,1.18,1.41,2.81,2.68,4.5,3.38,5.71,2.37,11.85,2.69,17.92,3.13ZM870.25,465.77c0,.21,0,.43,0,.64-3.22-.05-6.45-.1-9.68-.16,3.24-2.05,6.47-2.3,9.69-.49ZM846.14,448.7c-8.97.79-17.66.23-26.36.03,6.93-5.66,23.06-4.71,26.36-.03ZM810.79,429.76c-11.67-1.25-22.74-2.44-34.07-3.66,5.98-4.17,26.34-.98,34.07,3.66ZM749.05,391.79c-7.46,3.09-15.37,2.66-23.18,3.01,7.29-4.41,15.25-3.56,23.18-3.01Z"/>
  <path class="cls-1" d="M1342.87,515.22c.94-.49,2.31-1.49,2.28-2.22-.07-1.7,1.22-2.05,2-2.91,1.19-1.3,2.45-2.53,3.6-3.86.91-1.05,1.71-2.21,2.8-3.64,2.9,2.23,5.45,4.23,8.05,6.16.88.65,1.73.63,2.5-.38,1.4-1.86,2.8-3.73,4.36-5.44,2.47-2.71,5.14-5.24,7.62-7.95,1.99-2.17,3.82-4.47,5.72-6.71,1.5-1.77,3-3.53,4.47-5.32,1.59-1.94,4.49-3.29,3.16-6.6-.26-.64-.63-1.31-1.14-1.75-1.49-1.3-3.08-2.49-4.75-3.81,2.24-2.2,4.27-4.24,6.35-6.22,1.27-1.21,2.73-2.25,3.93-3.52,1.5-1.59,2.89-3.3,4.2-5.07.37-.5.6-1.71.32-1.97-1.15-1.06-2.46-2-3.83-2.77-4.11-2.31-8.37-4.38-12.4-6.83-2.68-1.63-5.08-3.72-7.55-5.67-1.7-1.34-3.68-1.41-5.3-.1-1.7,1.37-3.41,2.73-5.17,4.03-1.79,1.32-3.42,1.29-4.95-.23-3.07-3.06-6.08-6.17-9.06-9.32-1.91-2.02-3.66-4.19-5.58-6.2-2.7-2.83-5.42-5.64-8.24-8.34-3.12-2.99-6.3-5.91-9.55-8.75-3.63-3.18-7.93-5.19-12.49-6.65-2.23-.72-4.51-1.3-6.76-1.96-2.36-.69-4.71-1.42-7.07-2.09-3.17-.9-6.35-1.76-9.52-2.66-1.2-.34-2.16-.32-2.96.9-.77,1.17-.01,1.99.25,2.99,1.46,5.59,2.62,11.28,4.32,16.8,1.49,4.81,3.53,9.45,5.39,14.15,3.54,8.92,8.91,16.69,15.27,23.77,2.8,3.12,5.92,5.95,8.84,8.96,1.11,1.14,2.02,2.48,3.12,3.63,1.38,1.45,3.06,2.65,4.23,4.24.75,1.01,1.21,2.56,1.11,3.81-.17,2.08-.83,4.14-1.43,6.17-.34,1.14-.67,2.63-1.52,3.21-1.62,1.12-.62,1.63.04,2.53,2.37,3.26,4.85,6.46,6.94,9.9,1.72,2.84,3.11,5.91,4.33,9.01.82,2.07,1.17,4.34,1.54,6.56.14.82-.24,1.73-.39,2.6.99-.12,2.1,0,2.92-.44ZM1360.19,502.8c-.45-.54-.93-1.06-1.39-1.59-.47-.54-.94-1.08-1.46-1.68,1.15-2.06,2.21-.56,3.04-.02,1.29.84,2.4,1.97,3.58,2.98-1.43,2.52-1.92,2.56-3.77.3ZM1365.54,498.99c-1.29-1.22-2.62-2.4-3.78-3.87,2.91-.5,4.36,2.12,6.74,3.02-.89,1.58-1.74,2.02-2.96.85ZM1371.01,495.36c-1.99-1.34-3.92-2.64-5.81-3.92.87-1.9,2.17-1.87,3.56-1.09,1.43.81,2.78,1.76,4.28,2.72-.8.89-1.38,1.55-2.03,2.28ZM1375.62,490.38c-1.94-1.32-3.88-2.65-5.82-3.98.07-.2.13-.41.2-.61.89.2,1.88.23,2.66.64,1.14.6,2.16,1.46,3.2,2.24.82.62.79.74-.24,1.7ZM1379.05,486.5c-1.91-1.47-3.78-2.9-5.64-4.33.51-1.2,1.06-1.6,2.11-.81,1.58,1.18,3.22,2.27,4.9,3.44-.51.63-.88,1.09-1.37,1.69ZM1377.42,477.31c1.51-.47,2.57.19,6.02,3.79-1.24.67-3.81-1.01-6.02-3.79ZM1345.59,433.6c-.48,1.36-.95,2.68-1.42,4h-.47c-.67-2.74-1.34-5.47-2.1-8.58,1.46,1.68,2.73,3.14,3.99,4.58ZM1337.8,429.26c1.14,3.77,2.27,7.54,3.35,11.32.36,1.27-.3,2.06-1.45,2.59-.84-4.9-1.67-9.72-2.55-14.81.31.43.56.64.64.91ZM1335.03,449.53c-1-5.91-1.92-11.27-2.89-16.99.34-.17,1.07-.52,1.79-.87.26.69.61,1.36.76,2.08.84,4.24,1.77,8.48,2.34,12.77.11.83-1.19,1.85-2,3.02ZM1307.83,443.23c-2.25-4.13-4.64-8.19-6.7-12.41-1.74-3.57-3.37-7.25-4.52-11.04-1.32-4.38-2.04-8.95-3.05-13.43-.37-1.64-.85-3.26-1.28-4.92.3-.08.49-.21.63-.16,4.66,1.52,9.77,1.24,14.22,3.78,1.87,1.06,4.28,1.13,6.38,1.83,4.54,1.54,8.72,3.7,12.27,7.06,3.43,3.25,7.06,6.29,10.6,9.41-1.05,1.43-1.72,2.76-2.76,3.67-3.33,2.91-6.79,5.67-10.2,8.48-2.04,1.68-3.94,3.56-6.16,4.97-2.26,1.44-4.84,2.37-7.25,3.58-1.11.56-1.71.03-2.19-.85ZM1331.53,448.66q.55,2.94-2.4,4.78c-.8-5.39-1.59-10.73-2.43-16.38.37-.3,1.12-.9,2.03-1.63,1.9,4.13,2.82,8.29,2.71,12.69,0,.18.07.35.1.53ZM1310.75,447.2c2.09-.37,2.74.41,3.22,3.54-1.11-1.22-2.06-2.27-3.22-3.54ZM1318.34,453.98c-.29-2.28-1.16-4.51-1.96-6.7-.77-2.13-.66-2.55,1.77-3.5,2.16,4.38,2.55,9.12,2.99,13.96-2.32-.88-2.55-1.73-2.81-3.77ZM1321.71,444.12c-.87-2.68-.92-2.66,2-4.47.59,3.3,1.19,6.46,1.72,9.64.23,1.36.13,2.8.5,4.11.43,1.54.1,2.53-1.54,3.33-.44-2.51-.81-4.96-1.31-7.38-.36-1.77-.82-3.52-1.37-5.24ZM1336.73,494.83c-.94-1.87-1.93-3.79-3.26-5.37-2.51-2.98-2.16-6.12-1.07-9.4.64-1.93,1.41-3.8,2.24-6.01,2.18,2.18,4.3,4.27,6.4,6.38,3.44,3.46,6.83,6.96,10.33,10.34.43.42,1.43.25,2.17.35-.04-.72.2-1.67-.16-2.12-1.64-1.98-3.45-3.82-5.2-5.7-3.93-4.23-7.9-8.44-11.78-12.71-.81-.89-1.59-.8-2.57-.6-.57.11-1.43.18-1.75-.14-2.67-2.66-5.25-5.42-7.83-8.16-.22-.23-.29-.61-.23-.48,2.94-2.18,5.74-4.2,8.47-6.3,2.43-1.87,5.03-3.62,7.13-5.82,2.38-2.5,5.37-4.51,6.84-7.82.32-.73.68-1.45.91-2.2.34-1.15,1.37-1.73,2.11-.95,2.72,2.84,5.34,5.78,7.99,8.68.08.09.25.19.24.26-.47,3.12,2.57,3.6,4.07,5.09,2.97,2.95,6.32,5.53,9.6,8.16,1.92,1.54,3.98,2.92,6.06,4.23.39.25,1.58.05,1.71-.24.32-.72.6-1.88.23-2.39-.71-.98-1.87-1.64-2.85-2.43-4.5-3.63-9.01-7.26-13.59-10.96,2.49-2.97,5.16-5.23,8.71-6.21.4-.11,1.01.18,1.42.45,3.46,2.29,6.85,4.69,10.34,6.91,2.22,1.42,4.61,2.56,6.88,3.91.75.45,1.49,1.06,1.98,1.77.26.37.21,1.32-.09,1.67-2.98,3.43-6.02,6.81-9.1,10.16-1.71,1.86-3.57,3.58-5.25,5.47-3.39,3.81-6.7,7.68-10.05,11.53-2.91,3.34-5.71,6.79-8.78,9.98-2.76,2.87-5.85,5.43-8.75,8.17-.52.49-.82,1.19-1.28,1.74-1.53,1.86-3.08,3.69-4.84,5.8-2.66-5.46-4.95-10.28-7.36-15.04Z"/>
</svg>