<?xml version="1.0" encoding="UTF-8"?>
<svg id="Layer_1" data-name="Layer 1" xmlns="http://www.w3.org/2000/svg" viewBox="0 0 430 796">
  <defs>
    <style>
      .cls-1 {
        fill: #04514a;
        fill-rule: evenodd;
      }

      .cls-1, .cls-2 {
        stroke-width: 0px;
      }

      .cls-2 {
        fill: #043430;
      }
    </style>
  </defs>
  <rect class="cls-2" x="-310.86" y="-376.04" width="1040.07" height="1609.57"/>
  <g>
    <path class="cls-1" d="M64.79,104.09c.42-.22,1.03-.66,1.02-.99-.03-.76.54-.92.89-1.3.53-.58,1.09-1.13,1.61-1.72.41-.47.76-.99,1.25-1.62,1.3,1,2.43,1.89,3.59,2.75.39.29.77.28,1.11-.17.62-.83,1.25-1.66,1.95-2.43,1.1-1.21,2.29-2.34,3.4-3.55.89-.97,1.71-1.99,2.55-2.99.67-.79,1.34-1.57,1.99-2.37.71-.87,2-1.47,1.41-2.95-.11-.29-.28-.59-.51-.78-.67-.58-1.38-1.11-2.12-1.7,1-.98,1.91-1.89,2.83-2.77.57-.54,1.22-1,1.75-1.57.67-.71,1.29-1.47,1.87-2.26.16-.22.27-.76.14-.88-.51-.47-1.1-.89-1.71-1.24-1.84-1.03-3.74-1.95-5.53-3.04-1.19-.73-2.27-1.66-3.37-2.53-.76-.6-1.64-.63-2.36-.04-.76.61-1.52,1.22-2.31,1.8-.8.59-1.52.58-2.21-.1-1.37-1.36-2.71-2.75-4.04-4.16-.85-.9-1.63-1.87-2.49-2.77-1.2-1.26-2.42-2.52-3.68-3.72-1.39-1.33-2.81-2.64-4.26-3.9-1.62-1.42-3.54-2.32-5.57-2.97-1-.32-2.01-.58-3.01-.87-1.05-.31-2.1-.63-3.16-.93-1.41-.4-2.83-.78-4.25-1.19-.54-.15-.96-.14-1.32.4-.34.52,0,.89.11,1.33.65,2.5,1.17,5.03,1.93,7.49.66,2.15,1.57,4.22,2.4,6.31,1.58,3.98,3.97,7.44,6.81,10.61,1.25,1.39,2.64,2.65,3.94,4,.49.51.9,1.1,1.39,1.62.62.65,1.36,1.18,1.89,1.89.33.45.54,1.14.49,1.7-.08.93-.37,1.85-.64,2.75-.15.51-.3,1.17-.68,1.43-.72.5-.27.73.02,1.13,1.06,1.45,2.17,2.88,3.1,4.42.77,1.27,1.39,2.64,1.93,4.02.36.92.52,1.94.69,2.93.06.37-.11.77-.17,1.16.44-.06.93,0,1.3-.2ZM72.52,98.55c-.2-.24-.41-.47-.62-.71-.21-.24-.42-.48-.65-.75.51-.92.99-.25,1.36,0,.58.38,1.07.88,1.6,1.33-.64,1.13-.85,1.14-1.68.13ZM74.91,96.84c-.57-.55-1.17-1.07-1.68-1.73,1.3-.22,1.95.95,3.01,1.35-.4.71-.78.9-1.32.38ZM77.35,95.23c-.89-.6-1.75-1.18-2.59-1.75.39-.85.97-.84,1.59-.48.64.36,1.24.78,1.91,1.21-.36.4-.61.69-.91,1.02ZM79.4,93c-.86-.59-1.73-1.18-2.6-1.77.03-.09.06-.18.09-.27.4.09.84.1,1.19.29.51.27.96.65,1.43,1,.37.27.35.33-.11.76ZM80.94,91.27c-.85-.65-1.69-1.3-2.52-1.93.23-.53.47-.71.94-.36.7.53,1.44,1.01,2.19,1.54-.23.28-.39.49-.61.75ZM80.21,87.18c.67-.21,1.15.08,2.69,1.69-.55.3-1.7-.45-2.69-1.69ZM66.01,67.67c-.22.61-.42,1.2-.63,1.78h-.21c-.3-1.22-.6-2.44-.94-3.83.65.75,1.22,1.4,1.78,2.04ZM62.53,65.74c.51,1.68,1.01,3.36,1.5,5.05.16.56-.13.92-.65,1.15-.38-2.19-.75-4.34-1.14-6.61.14.19.25.29.29.4ZM61.3,74.78c-.45-2.64-.85-5.03-1.29-7.58.15-.08.48-.23.8-.39.11.31.27.61.34.93.38,1.89.79,3.78,1.04,5.69.05.37-.53.83-.89,1.35ZM49.16,71.97c-1.01-1.84-2.07-3.65-2.99-5.54-.77-1.59-1.5-3.23-2.01-4.92-.59-1.96-.91-3.99-1.36-5.99-.17-.73-.38-1.45-.57-2.19.13-.04.22-.09.28-.07,2.08.68,4.36.55,6.34,1.69.83.47,1.91.5,2.85.82,2.03.69,3.89,1.65,5.47,3.15,1.53,1.45,3.15,2.81,4.73,4.2-.47.64-.77,1.23-1.23,1.64-1.48,1.3-3.03,2.53-4.55,3.78-.91.75-1.76,1.59-2.75,2.22-1.01.64-2.16,1.06-3.23,1.6-.49.25-.76.01-.98-.38ZM59.73,74.39q.24,1.31-1.07,2.13c-.36-2.4-.71-4.78-1.09-7.3.17-.13.5-.4.91-.73.85,1.84,1.26,3.7,1.21,5.66,0,.08.03.16.04.24ZM50.47,73.74c.93-.17,1.22.18,1.44,1.58-.5-.54-.92-1.01-1.44-1.58ZM53.85,76.77c-.13-1.02-.52-2.01-.87-2.99-.35-.95-.3-1.14.79-1.56.96,1.96,1.14,4.07,1.33,6.23-1.04-.39-1.14-.77-1.25-1.68ZM55.36,72.37c-.39-1.19-.41-1.19.89-1.99.26,1.47.53,2.88.77,4.3.1.61.06,1.25.22,1.83.19.69.04,1.13-.69,1.49-.2-1.12-.36-2.21-.58-3.29-.16-.79-.36-1.57-.61-2.34ZM62.05,94.99c-.42-.83-.86-1.69-1.46-2.4-1.12-1.33-.96-2.73-.48-4.19.28-.86.63-1.7,1-2.68.97.97,1.92,1.9,2.86,2.85,1.53,1.54,3.05,3.1,4.61,4.61.19.19.64.11.97.16-.02-.32.09-.75-.07-.95-.73-.88-1.54-1.7-2.32-2.54-1.75-1.89-3.52-3.76-5.26-5.67-.36-.4-.71-.35-1.15-.27-.25.05-.64.08-.78-.06-1.19-1.19-2.34-2.42-3.49-3.64-.1-.1-.13-.27-.1-.22,1.31-.97,2.56-1.87,3.78-2.81,1.09-.84,2.24-1.61,3.18-2.6,1.06-1.11,2.4-2.01,3.05-3.49.14-.32.3-.64.4-.98.15-.52.61-.77.94-.43,1.21,1.27,2.38,2.58,3.56,3.87.04.04.11.08.11.12-.21,1.39,1.15,1.61,1.82,2.27,1.33,1.32,2.82,2.47,4.28,3.64.86.69,1.77,1.3,2.7,1.89.18.11.7.02.76-.11.14-.32.27-.84.1-1.07-.32-.44-.84-.73-1.27-1.09-2.01-1.62-4.02-3.24-6.06-4.89,1.11-1.33,2.3-2.33,3.88-2.77.18-.05.45.08.63.2,1.54,1.02,3.05,2.09,4.61,3.08.99.63,2.06,1.14,3.07,1.74.34.2.66.47.88.79.12.17.1.59-.04.74-1.33,1.53-2.69,3.04-4.06,4.53-.76.83-1.59,1.6-2.34,2.44-1.51,1.7-2.99,3.43-4.48,5.14-1.3,1.49-2.55,3.03-3.92,4.45-1.23,1.28-2.61,2.42-3.9,3.64-.23.22-.37.53-.57.78-.68.83-1.37,1.65-2.16,2.59-1.19-2.44-2.21-4.58-3.28-6.71Z"/>
    <path class="cls-1" d="M75.69,106.7c1.05.96,2.07,1.95,3.09,2.95,4.66,4.6,9.31,9.2,13.97,13.8,1.99,1.97,3.98,3.94,5.98,5.89.21.2.53.3.79.45.09-.1.18-.19.27-.29-1.37-1.67-2.68-3.39-4.13-4.99-2.08-2.29-4.25-4.5-6.39-6.74-1.94-2.02-3.88-4.03-5.85-6.02-2.11-2.13-4.24-4.23-6.37-6.33-.38-.37-.86-.36-1.21.05-.29.35-.71.71-.15,1.23Z"/>
    <path class="cls-1" d="M118.13,102.59c-.2-.36-.25-.62-.41-.72-1.62-1.09-3.22-2.22-4.9-3.2-1.3-.76-2.7-1.35-4.06-1.99-2.62-1.23-5.27-2.42-7.88-3.68-2.92-1.42-5.8-2.91-8.7-4.34-.5-.25-1.06-.53-1.58-.5-.4.03-1.02.47-1.09.82-.08.36.26.96.95.9.22-.02.47.1.68.2,3.37,1.62,6.71,3.29,10.1,4.87,4.32,2.01,8.67,3.95,13.01,5.91,1.21.55,2.43,1.09,3.88,1.74Z"/>
    <path class="cls-1" d="M104.67,118.45c.08-.1.17-.21.25-.31-1-1.09-1.95-2.24-3.02-3.26-1.17-1.12-2.47-2.09-3.67-3.17-2.37-2.11-4.7-4.25-7.07-6.36-2.13-1.89-4.3-3.75-6.44-5.64-.38-.33-.72-.72-1.1-1.05-.41-.37-1.35-.38-1.54,0-.25.48-.11.89.34,1.27.85.71,1.63,1.5,2.46,2.22,2.61,2.25,5.23,4.49,7.86,6.71,3.23,2.74,6.46,5.47,9.72,8.17.67.55,1.47.95,2.21,1.42Z"/>
    <path class="cls-1" d="M87.24,94.58c-.33.6.01.92.51,1.23,2.2,1.41,4.34,2.91,6.57,4.25,1.14.69,2.44,1.12,3.67,1.67.04-.08.09-.17.13-.26-.54-1.05-1.51-1.66-2.47-2.29-1.47-.95-2.93-1.89-4.36-2.89-.84-.58-1.59-1.28-2.39-1.92-.5-.39-1.38-.3-1.65.2Z"/>
    <path class="cls-1" d="M72.54,89.96c.17.16.49.4.6.34.21-.12.31-.42.52-.74-.29-.46-.5-.93-.82-1.29-1.13-1.23-2.27-2.46-3.48-3.62-1.26-1.21-2.6-2.33-3.92-3.48-.45-.39-1.34-.29-1.55.18-.27.58-.26,1.04.51,1.3.46.16.83.58,1.21.92,1.48,1.32,2.95,2.66,4.41,4,.85.78,1.67,1.6,2.52,2.38Z"/>
    <path class="cls-1" d="M68.17,79.15c1.52,1.18,3.03,2.39,4.56,3.56.77.59,1.56,1.14,2.37,1.66.46.29,1-.03,1.02-.75-.19-.25-.4-.71-.76-1-2-1.6-4.04-3.16-6.05-4.74-.64-.5-1.06-.49-1.51.1-.41.54-.03.86.37,1.17Z"/>
  </g>
  <path class="cls-1" d="M138.08,285.47c.32.33.91.38,1.76.72.89-.51,2.3-.87,2.77-1.73.42-.77.17-2.38-.41-3.13-1.85-2.41-3.97-4.62-6.04-6.86-4.48-4.87-6.55-10.4-4.83-17.02.63-2.41,1.11-4.86,1.9-7.22,1.47-4.44,3.13-8.83,6.13-12.51.99-1.21,2.27-2.2,3.47-3.21,1.03-.87,1.62-3.67.84-4.41-1.62-1.54-4.96-.96-6.2.98-.66,1.04-1.4,2.1-2.34,2.86-3.29,2.65-6.88,4.96-10,7.79-4.11,3.73-8.87,3.7-13.86,3.3-3.55-.29-5.88-2.78-8.54-4.63-.86-.6-1.49-1.68-1.96-2.66-1.23-2.58-3.08-3.28-5.76-2.56-.82.22-2.01,1.88-1.82,2.53.45,1.57,1.28,3.43,2.56,4.3,2.98,2.02,3.95,4.98,4.12,8.08.44,7.56-1,14.6-6.91,20.07-1.39,1.29-.67,3.53,1.18,4.02,1.78.46,3.28-.21,4.38-1.51,3.96-4.67,11.92-6.21,17.33-3.09,7.91,4.57,15.76,9.27,22.22,15.9ZM101.33,265.78c2.32-6.07,3.98-11.83,3.16-17.9,10.19,3.03,19.32,2.72,26.63-6.19.11.18.22.37.33.55-.93,2.69-1.92,5.37-2.8,8.09-2.26,7.01-4.17,14.03-.01,21.06.06.1-.02.28-.06.59-2.48-1.47-5.04-2.72-7.31-4.37-6.16-4.5-12.64-5.38-19.95-1.83Z"/>
  <path class="cls-1" d="M347.47,507.59c-.46.11-.68.43-.54.94.04.13-.02.28-.05.42-.47,2.24-.96,4.48-1.42,6.73-.09.42-.11.85-.18,1.38-.58-.45-1.07-.82-1.55-1.2-.79-.62-1.57-1.27-2.38-1.87-.27-.2-.63-.45-.91-.42-.43.05-.88.29-.84.81,1.51,1.37,2.08,3.23,3.11,4.9-.86.39-1.58.74-2.33,1.04-1.83.71-3.67,1.39-5.51,2.1-.62.24-1.2.6-1.84.76-.55.14-.6.48-.53.86.06.39.28.71.77.73.82.04,1.64.08,2.45.2,1.05.16,2.07.43,3.12.61,1.49.25,2.98.46,4.49.7-.02.07-.02.14-.05.19-.74,1.24-1.47,2.49-2.25,3.7-.45.71-.93,1.44-1.53,2.01-.38.36-.5.62-.26,1.03.19.32,1.06.47,1.31.21.47-.48.88-1.03,1.37-1.49,1-.95,2.04-1.86,3.12-2.85.15.29.27.44.29.6.26,1.49.54,2.98.74,4.49.11.85.07,1.72.1,2.57.03.93.1,1.86.06,2.79-.02.59.38.79.75.91.38.12.63-.13.79-.57.75-2.08,1.55-4.15,2.36-6.2.36-.9.84-1.76,1.17-2.67.27-.76.57-.94,1.29-.53,1,.57,2.01,1.14,3.01,1.72.39.23.92.37,1.14.71.31.48.73.62,1.2.74.32.09.63.12.84-.26.19-.36.13-.61-.16-.88-.72-.65-1.49-1.26-2.1-2.01-.69-.86-1.23-1.83-1.81-2.78-.3-.49-.14-.72.45-.87,1.62-.4,3.24-.84,4.87-1.22,2.02-.47,4.05-.86,6.07-1.34.26-.06.67-.52.62-.65-.15-.39-.43-.89-.77-1.02-.88-.32-1.83-.44-2.74-.69-1.18-.33-2.33-.74-3.51-1.07-1.86-.53-3.72-1.04-5.67-1.57.44-.49.77-.82,1.05-1.2.44-.59.81-1.24,1.26-1.82.81-1.01,1.67-1.98,2.48-2.99.25-.32.48-.78.05-1.06-.36-.24-.9-.55-1.25.14-.07.14-.24.22-.38.32-1.41.96-2.82,1.91-4.22,2.88-.54.37-1.05.79-1.59,1.2-.19-.3-.41-.56-.52-.85-.46-1.22-.92-2.43-1.31-3.67-.42-1.31-.75-2.65-1.18-3.96-.13-.38-.43-.8-.96-.67ZM348.55,513.44c.06.25.29.45.37.7.36,1.15.66,2.32,1.06,3.46.14.4.44.84.79,1.03.2.11.77-.13.98-.38,1.24-1.47,2.81-2.52,4.49-3.47-.21.22-.44.42-.63.66-.55.69-1.06,1.41-1.63,2.08-.3.36-.64.68-1.01.97-.31.24-.69,1.03-.46,1.35.16.21.55.28.85.36.65.18,1.32.31,1.97.5,1.95.54,3.89,1.09,5.83,1.64.08.02.16.03.24.06.88.36,1.76.72,2.66,1.2-.68.14-1.37.26-2.05.41-1.31.3-2.61.66-3.92.94-1.68.36-3.36.66-5.04,1.01-.24.05-.62.2-.63.34-.03.26.07.66.27.81,1.03.79,1.31,2.04,2.06,3-.04.06-.09.12-.13.18-.64-.4-1.34-.72-1.9-1.21-.66-.57-.84-.67-1.6-.23-.28.16-.57.28-.85.44-.08.05-.16.17-.17.26-.15,2.22-1.4,4.04-2.16,6.04-.12.32-.27.64-.52.95-.05-.68-.1-1.36-.17-2.04-.08-.8-.14-1.6-.27-2.4-.19-1.17-.43-2.33-.65-3.49-.1-.55-.28-1-.92-1.16-.66-.17-.9.36-1.26.67-.42.37-.79.8-1.18,1.2-.03-.03-.07-.06-.1-.1.52-.8,1.03-1.61,1.56-2.4.09-.13.28-.19.38-.31.19-.23.54-.65.48-.71-.26-.31-.66-.78-.96-.74-1.74.2-3.38-.26-5.06-.54-1.2-.2-2.39-.45-3.58-.68-.16-.03-.31-.08-.47-.12-.01-.06-.03-.11-.04-.17.43-.16.85-.33,1.28-.49,1.89-.74,3.79-1.47,5.67-2.23.57-.23,1.14-.48,1.64-.84.57-.41.52-.74.11-1.31-.53-.73-1-1.5-1.5-2.25.05-.06.1-.12.16-.18.39.26.81.48,1.16.78.36.31.66.69.95,1.07.43.57.76.61,1.17.02.12-.17.17-.42.2-.64.19-1.22.34-2.45.54-3.68.16-1.01.35-2.02.55-3.03.07-.36.22-.7.49-1.08.3,1.25.58,2.49.9,3.73Z"/>
  <g>
    <path class="cls-1" d="M355.4,92.45c-.68.28-1.93.31-2.33-.11-.92-.96-.2-4.41.78-5.39.52-.52.88-1.2,1.26-1.83.23-.39.3-.88.55-1.25,1.25-1.83,2.64-3.58,3.79-5.48,1.01-1.66,2.02-3.34,2.49-5.31.82-3.45,1.18-6.88.16-10.33-.44-1.48-.88-2.99-1.62-4.32-.55-1-1.63-1.69-2.36-2.61-1.56-1.96-3.74-1.73-5.97-1.98.15.94.09,1.81.44,2.44.76,1.33.93,2.69.57,4.11-.2.81-.96,1.59-.9,2.34.16,1.92-1.14,2.83-2.24,3.93-1.15,1.17-3.4.69-3.9-.89-.22-.7-.23-1.48-.27-2.23-.09-1.59-.48-3.27-.13-4.76.98-4.16,1.14-8.16-.12-12.36-.98-3.24-2.86-5.35-5.68-6.88-.36-.19-.64-.54-.84-.72-.77-.2-1.39-.26-1.9-.52-1.62-.85-3.33-.78-4.93-.23-.59.21-1.03,1.16-1.29,1.86-.08.21.67.79,1.11,1.1,1.18.83,2.48,1.51,3.57,2.43.45.38.39,1.31.78,1.83,1.6,2.14,1.78,4.51,1.33,7-.55,3.04-1.35,6-3.09,8.62-1.5,2.25-2.9,4.56-4.48,6.74-1.29,1.77-2.87,3.33-4.17,5.1-1.11,1.51-2.06,3.15-2.96,4.79-.78,1.42-1.64,2.87-2.04,4.42-1.1,4.2-.31,8.29,1.27,12.23.51,1.26,1.99,2.09,1.72,3.73-.02.1.27.23.38.38.52.69.95,1.46,1.54,2.07,1.26,1.31,2.42,2.86,3.95,3.72,2.24,1.26,4.77,2.03,7.2,2.93.62.23,1.34.22,2.02.21.9,0,1.85-.34,2.68-.13,2.21.55,3.91-.85,5.83-1.31,1.5-.36,2.91-1.06,4.36-1.61.38-.15.8-.24,1.11-.48.54-.42.97-.99,1.53-1.39,1.06-.75,2.27-1.31,3.26-2.14,1.38-1.17,2.6-2.51,3.89-3.79.84-.84,1.72-1.65,2.5-2.55.34-.39.48-.95.68-1.45.18-.45.24-.98.51-1.36,2.27-3.16,2.63-6.82,2.78-10.53.02-.55.13-1.36-.91-1.4-.84-.03-1.33.15-1.65,1.05-.47,1.33-1.13,2.61-1.78,3.87-1.91,3.72-4.51,6.78-8.46,8.42ZM363.48,89.19c.3-.39.65-.74.97-1.11.12.09.25.17.37.26-1.12,1.64-2.19,3.32-3.38,4.91-2.04,2.72-4.69,4.76-7.46,6.73-2.45,1.75-5.08,2.77-7.94,3.6-1.75.51-3.5,1.01-5.27,1.06-1.98.06-3.95-.25-5.73-1.46-1.03-.7-2.37-.94-3.58-1.38-.17-.06-.45-.04-.52-.15-1-1.62-3.29-2.03-3.68-4.37-.23-1.4-1.44-2.63-2.16-3.96-.36-.67-.64-1.38-.95-2.08.12-.07.25-.13.37-.2.62.91,1.13,1.92,1.88,2.69.77.79,1.74,1.41,2.69,2,.97.61,1.63.28,1.81-.61-1.33-1.38-2.61-2.56-3.7-3.9-.49-.6-.74-1.49-.83-2.28-.23-2.12-.74-4.26.51-6.32.86-1.42,1.52-2.98,2.14-4.53.18-.46-.05-1.08-.1-1.69-1.55.17-2.71.36-3.06,2.04-.23,1.11-.81,2.15-1.35,3.17-.16.3-.67.41-1.03.6,0,0,0,0,0,0,0,.03,0,.05,0,.08.04.65.08,1.3.12,1.95.12,1.72.24,3.43.21,5.27-.22-.75-.61-1.5-.61-2.25,0-1.66.17-3.31.28-4.97,0-.03,0-.05,0-.08,0,0,.01,0,.02,0,.18-.29.45-.56.53-.87,1.14-4.47,3.95-7.81,7.16-10.95,1.28-1.25,2.15-2.95,3.11-4.51,1.17-1.9,2.3-3.82,3.35-5.79.63-1.18,1.07-2.46,1.59-3.69.28-.65.66-1.27.8-1.95.16-.76.04-1.57.16-2.34.38-2.35.25-4.62-.79-6.81-.56-1.19-1.07-2.41-1.64-3.7,2.27.62,3.79,2.04,4.75,4.16.73,1.62,1.28,3.21,1.08,5.06-.15,1.32.26,2.71.12,4.03-.18,1.71-.67,3.38-1.01,5.08-.57,2.87-.13,5.65.81,8.37.59,1.71,4.34,3.37,5.82,2.37,2.94-1.98,5.45-4.4,5.83-8.26.16-1.6.37-3.19.55-4.78.13-.04.25-.08.38-.12.61.92,1.23,1.84,1.84,2.76,1.11,1.67,1.68,3.53,1.84,5.49.09,1.1-.05,2.22-.16,3.32-.13,1.33-.32,2.66-.54,3.99-.09.54-.22,1.1-.49,1.57-1.23,2.18-2.22,4.61-3.87,6.43-2.22,2.45-3.21,5.47-4.7,8.25-.55,1.03-.77,2.47-.18,3.75.08.17.23.35.21.51-.26,2.41,1.75,2.37,3.18,2.93.22.08.57-.01.79-.14,2.42-1.39,4.9-2.69,7.19-4.27.96-.66,1.5-1.94,2.25-2.92Z"/>
    <path class="cls-1" d="M366.09,61.06c-.15,1.2.1,2.22.64,3.25.48.91.82,1.89,1.32,2.78.39.69.74,1.74,1.78,1.39.87-.3,1.21-1.03.86-2.13-.24-.74-.21-1.82.17-2.46,1.05-1.76,2.31-3.41,3.59-5.02.78-.99,1.95-1.72,2.58-2.78,2.42-4.1,1.89-8.38.43-12.64-.11-.31-.63-.49-.75-.57-1.57.04-2.6,1.18-2.52,2.4.02.29,0,.69-.17.88-1.04,1.14-2.06,2.31-3.22,3.32-.97.85-1.99,1.56-2.88,2.59-1.45,1.68-1.9,3.45-1.93,5.47-.02,1.18.25,2.38.11,3.53ZM370.45,53.59c1.57-1.79,3.18-3.55,4.8-5.29.31-.33.79-.49,1.33-.82,0,1.87.22,3.51-.06,5.06-.29,1.63-1.08,3.09-2.5,4.23-1.48,1.19-2.71,2.68-4.04,4.04-.3.31-.58.65-.91,1-1.65-2.71-.3-6.34,1.37-8.24Z"/>
  </g>
  <g>
    <path class="cls-1" d="M226.39,470.17c-.42-2.23-1.7-4.31-2.7-6.41-.48-1-1.15-1.85-2.22-2.42-1.92-1.02-3.76-2.15-6.08-1.38-.48.16-1.05.06-1.58.07-1.05.02-2.27-.78-3.03.64-.06.11-.34.1-.49.18-1.8,1.03-3.6,2.06-5.4,3.09-.12.07-.21.19-.3.29-1.9,2.16-3.73,4.4-5.72,6.47-1.88,1.95-3.48,4.04-4.61,6.5-.32.7-.77,1.33-1.22,2.08-.9-1.03-1.54-1.97-2.38-2.7-1.84-1.6-3.8-3.06-5.67-4.62-1.5-1.25-2.77-2.82-4.81-3.29-.23-.05-.38-.4-.59-.59-.17-.15-.37-.28-.58-.37-.98-.43-1.96-.84-3.1-1.32-.01,0-.35.36-.54.29-1.88-.63-3.69-.13-5.49.27-1.14.25-1.98,1.14-2.53,2.08-.56.96-.9,2.11-1.04,3.22-.15,1.15.02,2.35.1,3.53.05.68-.23,1.52.81,1.81.21.06.29.54.47.81,1.16,1.8,2.14,3.74,3.53,5.34,1.7,1.95,3.74,3.59,5.62,5.38,1,.96,1.9,2.02,2.94,2.93,1.61,1.41,3.38,2.65,4.95,4.11,1.94,1.8,4.08,3.29,6.3,4.71,1.44.92,2.8,1.96,4.1,2.88.1.57.05,1.21.28,1.33.48.25,1.17.44,1.66.28.47-.15.75-.82,1.2-1.17,1.97-1.56,4-3.05,5.96-4.62,2.77-2.23,5.48-4.52,8.24-6.76,2.89-2.34,5.66-4.82,8.16-7.58.96-1.06,1.96-2.13,2.64-3.36.99-1.8,1.69-3.76,2.55-5.63.91-1.97.95-4.16.58-6.1ZM168.37,474.72c1.28.39,1.31.61.38,1.98-.14-.72-.24-1.28-.38-1.98ZM170.23,479.16c-.43-.63-.73-1.07-1.08-1.58.47-.07.86-.14,1.31-.21-.07.51-.13.98-.24,1.78ZM174.39,484.17c-.34-.29-.59-.49-.83-.7-.23-.21-.46-.42-.7-.64,1.16-.44,1.58-.11,1.53,1.35ZM173.8,481.53c.36-.79.44-1.7,1.45-2.2.07,1.2-.25,1.95-1.45,2.2ZM183.76,492.51c-.07.16-.5.18-.77.26-.07-.09-.13-.19-.2-.28.24-.42.47-.84.71-1.26.13.03.26.06.39.1-.03.4.01.83-.13,1.19ZM191.91,498.44c-.34-1.26-.14-1.6,1.15-1.98-.47.81-.81,1.39-1.15,1.98ZM192.67,488.97c.05-1-.16-2.03.92-2.71.27,1.49-.03,2.4-.92,2.71ZM195.72,486.99c-.12-.02-.23-.03-.35-.05.07-.85.15-1.7.22-2.55.14.02.28.03.42.05-.1.85-.19,1.69-.29,2.54ZM198.16,482.62c-.12-.03-.24-.05-.35-.08.17-1,.34-2.01.51-3.01.18.04.35.07.53.1-.23.99-.46,1.99-.69,2.98ZM201.75,475.22c.11.06.21.12.31.18-.44.75-.88,1.5-1.32,2.25-.11-.07-.23-.13-.34-.2.45-.74.89-1.49,1.34-2.23ZM201.41,491.84h-1.17c.33-.66.64-1.29.95-1.92.11.03.22.05.33.08-.03.6-.07,1.2-.11,1.84ZM200.71,484.64c-.38-1.19-.19-1.62.99-2.93.11.07.21.14.32.21-.44.9-.87,1.81-1.31,2.71ZM200.76,481.39c-.08-.04-.17-.08-.25-.12.39-.8.79-1.6,1.18-2.4.16.08.32.16.48.24-.47.76-.94,1.52-1.41,2.29ZM210.88,468.1v4.13c-.86-.74-1.03-2.81,0-4.13ZM210.17,474.18c.03-.29.29-.55.56-1.03,0,1.55.02,2.76-.02,3.97,0,.19-.28.38-.43.57-.1-.19-.28-.38-.28-.57.02-.98.06-1.97.16-2.94ZM205.31,487.63c.21-2.12-.18-4.3.7-6.35-.51,2.09.6,4.35-.7,6.35ZM205.29,475.79c.56-1.65-.01-3.38,1.49-4.73.3,2.94.13,3.51-1.49,4.73ZM217.79,476.81c.02.53-.28,1.1-.53,1.61-.72,1.46-1.34,3-2.28,4.31-1.17,1.64-2.6,3.09-3.95,4.6-.21.23-.57.32-.81.44-.34-.4-.59-.7-.85-1,.59-.65,1.2-1.28,1.75-1.96.22-.27.32-.64.46-.97.07-.16.04-.39.15-.48,1.33-1.13,1.47-2.86,2.15-4.31.52-1.12.75-2.4.91-3.64.1-.75-.26-1.55-.29-2.33-.06-1.4-.31-2.83.09-4.21.12-.4.63-.75,1.04-.97.15-.08.58.25.82.46.77.7,1.03,1.55,1.23,2.62.37,1.97.04,3.9.1,5.84Z"/>
    <path class="cls-1" d="M133.62,487.93c3.82-.38,7.62-.9,11.44-1.34,4.33-.5,8.66-.96,12.99-1.47.55-.06,1.08-.28,1.62-.43-.01-.12-.02-.25-.03-.37-.5-.1-1-.3-1.5-.28-3.87.12-7.74.16-11.59.46-4.41.35-8.81.96-13.21,1.43-.71.08-1.3.43-1.09,1.08.14.43.93.96,1.38.92Z"/>
    <path class="cls-1" d="M243.99,494.33c-3.11-1.07-6.27-2.01-9.43-2.91-2.58-.74-5.19-1.38-7.81-1.99-.71-.16-1.5-.03-2.25-.03-.03.1-.07.19-.1.29.22.19.41.45.66.56.96.44,1.91.94,2.91,1.24,3.25.95,6.56,1.74,9.79,2.75,2.75.86,5.61,1.55,7.99,3.33.82.61,1.59.81,2.43-.33-.26-.32-.48-.79-.85-1.03-1.08-.69-2.15-1.48-3.34-1.89Z"/>
    <path class="cls-1" d="M258.58,478.66c.37-.1.89-.68.88-1.03-.02-.72-.69-.51-1.16-.44-.95.13-1.89.29-2.84.42-6.88.93-13.76,1.85-20.64,2.8-1.25.17-2.48.52-3.71.78.01.12.03.25.04.37.16.02.32.06.47.05,1.48-.07,2.96-.11,4.43-.23,3.18-.26,6.35-.51,9.52-.87,3.19-.36,6.37-.83,9.56-1.27,1.16-.16,2.33-.29,3.45-.58Z"/>
    <path class="cls-1" d="M147.2,501.72c.55-.28.9-.43,1.22-.62.75-.45,1.45-1.04,2.25-1.37,2.81-1.14,5.68-2.16,8.49-3.29.98-.39,1.87-.99,2.79-1.52.14-.08.3-.35.26-.48-.05-.16-.28-.35-.45-.37-.35-.03-.72,0-1.05.09-2.71.8-5.46,1.49-8.11,2.47-2.04.76-3.95,1.88-5.9,2.87-.39.2-.88.49-.45,1.07.28.38.61.73.94,1.13Z"/>
    <path class="cls-1" d="M144.86,472.21c.78,0,1.56.05,2.34.14,2.69.3,5.38.63,8.07.95.02.06.03.11.05.17.55-.16,1.1-.33,1.65-.49-.49-.37-.92-.92-1.47-1.07-2.11-.57-4.25-1.02-6.38-1.5-1.51-.34-3.17.08-4.55-1.03-.27-.22-1.1.06-1.54.32-.32.2-.37.63-.17,1.21.37,1.09,1.02,1.3,2,1.3Z"/>
    <path class="cls-1" d="M234.04,470.46c.9-.13,1.79-.31,2.68-.5,3.76-.82,7.26-2.3,10.49-4.38.37-.24.45-.95.66-1.44-.53-.17-1.09-.54-1.59-.46-.54.08-1.03.55-1.52.89-2.89,2.01-6.2,3.11-9.46,4.33-.75.28-1.46.68-2.19,1.03.03.12.06.25.08.37.28.06.57.21.84.17Z"/>
  </g>
  <g>
    <path class="cls-1" d="M79.32,336.7c.1-.13.19-.28.28-.42.17-.27.35-.54.52-.81,0,.1-.03.17-.06.24-.14.3-.28.59-.41.89-.07.15.02.27.11.33.04.03.15-.02.2-.07.07-.07.1-.19.15-.28.41-.63.81-1.26,1.22-1.89.02-.03.05-.04.09-.08-.24.55-.47,1.06-.69,1.58-.13.31-.23.63-.34.95-.05.15-.03.28.11.35.14.08.18-.05.24-.15.39-.69.78-1.38,1.17-2.06.13-.22.28-.44.41-.65.01.01.03.03.04.04-.07.12-.13.24-.2.36-.34.59-.69,1.17-1.01,1.77-.32.59-.63,1.2-.91,1.82-.12.26-.17.57-.21.86-.01.09.09.24.17.3.09.07.16-.05.22-.15.35-.58.71-1.16,1.07-1.74.37-.59.76-1.16,1.14-1.75.31-.48.62-.97.94-1.44.34-.5.69-.99,1.04-1.48.19-.26.38-.51.57-.76.01.07,0,.11-.03.15-.27.49-.52,1.01-.81,1.48-.64,1-1.31,1.96-1.96,2.95-.19.28-.37.58-.55.87-.09.14-.06.25.05.36.11.11.22.12.31,0,.12-.16.23-.33.35-.5.61-.87,1.22-1.74,1.84-2.61.26-.36.54-.7.81-1.05.25-.32.5-.64.75-.96.03-.04.08-.07.12-.11-.07.19-.16.35-.25.5-.67,1.07-1.36,2.14-2.02,3.22-.24.39-.42.83-.63,1.24-.08.15,0,.26.09.34.1.09.22.11.31,0,.13-.16.24-.32.35-.49.17-.26.3-.55.48-.8.68-.95,1.37-1.89,2.07-2.82.35-.46.74-.88,1.11-1.31.02.08.01.12,0,.16-.41.72-.82,1.43-1.22,2.16-.4.72-.78,1.44-1.16,2.17-.05.1-.09.24-.09.36,0,.09.07.22.13.26.06.03.2,0,.17-.18,0-.03.02-.06.04-.09.26-.38.52-.76.78-1.13.23-.33.47-.64.72-.96.13-.16.25-.33.39-.48.19-.22.38-.44.57-.65.01.01.02.02.03.04-.03.07-.07.14-.1.2-.48.84-.85,1.78-1.4,2.56-.06.08-.08.17,0,.25.08.08.16.11.24,0,.14-.2.29-.39.45-.57.31-.36.62-.72.93-1.08.08-.1.18-.17.27-.26-.06.21-.16.39-.24.58-.04.08-.07.19-.06.28,0,.06.11.15.15.14.06-.02.1-.12.15-.19.01-.02.02-.04.02-.05.25-.44.5-.89.75-1.33h-.14c.09-.17.15-.33.24-.46.16-.21.25-.5.51-.61.13-.06.09-.23.05-.37-.05-.14-.15-.14-.23-.07-.1.09-.18.22-.27.34-.32.43-.64.86-.97,1.28-.18.22-.38.42-.57.63-.02-.02-.03-.03-.05-.05.3-.5.59-1,.89-1.49.28-.46.51-.98.9-1.32.16-.14.14-.33-.03-.51-.11-.12-.18.05-.27.11-.03.02-.05.06-.07.09-.14.18-.27.38-.42.55-.18.21-.38.41-.57.61-.39.42-.77.84-1.16,1.26-.05.05-.11.09-.16.14,0-.06.02-.11.04-.14.16-.27.31-.54.47-.81.45-.76.89-1.53,1.36-2.27.21-.34.49-.62.73-.94.04-.06.04-.17.06-.25-.08-.02-.16-.07-.23-.06-.07.02-.15.09-.2.15-.18.21-.33.46-.52.65-.74.72-1.44,1.48-2.08,2.31-.4.51-.78,1.04-1.16,1.58-.44.62-.87,1.25-1.3,1.87-.04.06-.08.11-.13.17.02-.11.06-.19.11-.27.48-.76.98-1.51,1.45-2.28.59-.96,1.17-1.93,1.76-2.89.19-.31.4-.61.6-.91.05-.08.17-.15.09-.25-.06-.07-.2-.08-.28-.04-.09.04-.16.16-.22.26-.24.37-.45.77-.72,1.11-.4.51-.85.98-1.27,1.47-.33.39-.64.8-.96,1.2-.14.17-.28.34-.43.51.01-.06.04-.1.06-.15.23-.36.47-.72.68-1.09.28-.48.56-.97.81-1.48.26-.52.48-1.06.73-1.59.06-.12.12-.26.02-.36-.06-.07-.18-.06-.27-.08-.04.35-.48,1.13-.67,1.34-.72.8-1.34,1.7-1.95,2.61-.41.61-.81,1.24-1.21,1.86-.49.77-.98,1.54-1.46,2.32-.12.18-.23.38-.34.56-.01,0-.03-.02-.04-.03.02-.08.04-.17.07-.25.29-.76.65-1.46,1.03-2.15.44-.78.91-1.54,1.36-2.32.63-1.09,1.27-2.18,1.89-3.28.03-.06.01-.18-.02-.25-.02-.04-.13-.04-.17,0-.08.07-.16.17-.21.27-.22.42-.47.81-.75,1.18-.47.62-.93,1.26-1.38,1.9-.24.33-.45.69-.67,1.04-.01,0-.02-.02-.04-.03.44-.87.77-1.81,1.32-2.66-.07-.06-.15-.17-.23-.19-.05,0-.12.12-.17.2-.13.2-.26.41-.4.6-.25.36-.52.7-.78,1.06-.21.29-.41.59-.61.89.06-.18.14-.35.21-.52.11-.32.21-.65.32-.97.05-.16-.07-.2-.15-.23-.04-.02-.14.05-.17.11-.06.1-.08.24-.14.34-.15.27-.32.53-.48.8-.23.38-.46.77-.69,1.15-.01-.06,0-.1.01-.15.12-.33.24-.66.35-1,.02-.06,0-.14-.02-.21-.06.04-.15.06-.17.12-.15.36-.3.72-.43,1.09-.08.22-.15.45-.18.68-.01.08.07.2.13.28.01.02.12-.04.16-.09Z"/>
    <path class="cls-1" d="M89.36,335.01c-.14.29-.28.58-.41.88-.03.06-.01.2.03.24.05.05.16.08.22.04.09-.05.18-.15.25-.25.21-.3.41-.62.62-.93-.04.22-.12.43-.18.63-.06.18-.12.36-.15.55-.01.08.06.23.13.26.05.03.17-.05.22-.12.24-.31.47-.64.69-.95.05.14.07.3.14.33.08.04.21-.01.3-.05.05-.02.09-.1.14-.15.14-.15.29-.3.44-.44,0,.08-.03.12-.05.17-.12.31,0,.55.29.52.21-.02.41-.06.62-.12.44-.11.88-.24,1.32-.35.14-.03.28-.03.47-.05-.2.22-.37.38-.51.56-.09.11-.17.25-.23.39-.05.14.02.23.14.19.08-.03.17-.08.24-.15.35-.32.7-.65,1.05-.97.03-.02.05-.06.06-.09.07-.21-.03-.44-.27-.44-.31,0-.45-.2-.58-.49-.04-.1-.19-.15-.3-.17-.07-.01-.15.09-.22.14.05.11.09.23.16.33.06.1.15.17.21.24-.68.18-1.36.36-2.06.54.1-.22.16-.42.27-.58.08-.13.11-.26.04-.35-.05-.06-.18-.06-.27-.04-.08.02-.16.09-.23.14-.07.05-.14.11-.22.16-.05-.25-.23-.36-.36-.24-.19.18-.38.37-.56.56-.16.16-.31.33-.5.54.03-.12.05-.2.08-.28.13-.38.26-.76.39-1.15.13-.38-.26-.25-.32-.46,0-.02-.14,0-.22,0-.01,0-.02,0-.03.02-.35.45-.7.9-1.05,1.36-.02.02-.01.07-.01.11.11-.11.22-.22.33-.34-.01.11-.05.18-.08.26Z"/>
  </g>
  <g>
    <path class="cls-1" d="M299.05,418.82c5.94-1.05,11.35-3.71,16.68-6.45,2.99-1.54,5.96-3.18,8.74-5.05,3.29-2.21,6.44-4.64,9.53-7.12,3.31-2.66,5.84-6.08,8.51-9.35,3.41-4.18,6.45-8.62,8.62-13.57,2.48-5.65,4.31-11.51,4.75-17.71.32-4.43-.04-8.82-1.41-13.06-1.6-4.95-4.11-9.3-8.24-12.71-2.57-2.12-5.44-3.51-8.51-4.49-5.64-1.8-11.32-1.28-16.94.28-1.36.38-2.7,1.04-4.07,1.08-3.03.08-5.95.53-8.77,1.64-3.17,1.25-6.12,2.88-8.46,5.4-1.65,1.78-3,3.84-4.71,5.54-3.15,3.15-6.26,6.28-8.69,10.07-1.48,2.32-3.17,4.56-5.06,6.55-4.73,4.99-8.29,10.62-10.26,17.22-.37,1.22-.5,2.52-.75,3.78.17.06.33.13.5.2,2.43-6.04,5.03-11.99,9.6-17.07-.17.57-.25.93-.38,1.26-.93,2.3-1.92,4.58-2.8,6.9-2.05,5.39-3.55,10.93-3.39,16.75.08,3.03.54,6.05.94,9.06.65,4.8,2.42,9.11,6.09,12.41,1.86,1.67,4.13,2.91,5.88,4.68,3.58,3.6,7.9,4.6,12.61,3.76ZM333.32,397.8c-6.91,6.54-15.03,11.2-23.65,15.06-3.86,1.73-7.75,3.33-11.99,3.93-2.78.39-5.36,0-7.82-1.59.15-.08.23-.17.32-.17,2.98-.14,5.97-.26,8.95-.4,4.36-.21,8.48-1.38,12.45-3.18,6.71-3.04,12.73-7.15,18.46-11.72,2.32-1.85,4.55-3.81,6.82-5.72.07.08.15.15.22.23-1.25,1.19-2.5,2.37-3.76,3.56ZM338.27,341.38c3.08.87,4.01,3.47,4.85,6.09,1.11,3.48,1.04,7.09,1.02,11.2.26,5.12-.45,10.6-2.64,15.83-1.8,4.31-4.27,8.22-7.41,11.71-1.6,1.78-3.09,3.65-4.74,5.38-2.6,2.71-5.25,5.37-7.96,7.96-1.91,1.82-3.96,3.49-5.96,5.22-2.59,2.24-5.85,3.17-8.91,4.45-1.73.73-3.56,1.19-5.32,1.84-4.01,1.49-7.51.56-10.49-2.32-2.53-2.44-4.28-5.42-5.22-8.84-.48-1.77-.9-3.56-1.52-5.28-.87-2.4-.43-4.75.11-7.08,1.99-8.61,4.84-16.95,8.74-24.87,2.84-5.77,6.69-10.85,11.77-14.97,3.62-2.93,7.58-5.28,11.52-7.69,1.99-1.22,4.19-1.1,6.36-1.11,5.39-.01,10.63,1.01,15.8,2.47ZM324.54,336.72c3.71-1.63,6.96-.78,10.25,1.48-3.54-.51-6.82-.99-10.25-1.48ZM352.24,359.26c-1.44,6.18-3.82,11.94-7.04,17.39-4.23,7.15-9.32,13.59-15.51,19.14-1.34,1.2-2.77,2.3-4.16,3.44-.15-.16-.29-.32-.44-.48.81-.71,1.71-1.35,2.43-2.14,3.65-4,7.43-7.9,10.81-12.12,2.61-3.25,4.46-7.02,5.99-10.96,2.01-5.16,2.27-10.5,2.32-15.9.04-3.57-.29-7.09-1.14-10.56-.2-.82-.52-1.62-.87-2.66,2.44,1.17,4.26,2.8,5.83,4.69,2.51,3.03,2.65,6.44,1.78,10.16ZM337.51,337.36c.09-.15.19-.3.28-.45,4.83,1.26,8.72,3.97,11.8,7.96-4.03-2.5-8.06-5.01-12.08-7.51ZM348.62,340.15c-5.05-4.26-11.03-5.98-17.49-6.56-1.7-.15-3.35-.93-5.02-1.43-.96-.29-1.91-.59-3.14-.97,11.99-3.16,22.15,2.21,25.65,8.96ZM297.71,343.79c5.44-4.29,11.49-7.59,17.85-10.31,2.56-1.1,5.04-.4,7.55.07.5.09.97.3,1.79.56-3.99,1.37-7.64,2.78-11.39,3.86-3.06.88-6.04,1.84-8.86,3.34-.81.43-1.83.49-2.74.76-2.23.65-3.48,2.55-5.05,4.03-.59.55-.97,1.31-1.45,1.97-.21-.19-.42-.37-.63-.56.96-1.25,1.72-2.76,2.92-3.7ZM296.15,349.64c3.44-3.25,7.46-5.8,11.96-7.64-2.95,2.55-5.89,4.94-8.63,7.53-3.45,3.26-6.03,7.2-8.14,11.44-3.02,6.09-5.15,12.52-7.32,18.94-.36,1.07-.6,2.18-.89,3.27-.13-.02-.26-.03-.38-.05.17-2.13.21-4.29.53-6.4.69-4.64,2.18-9.06,4.13-13.31,2.29-4.99,4.72-9.97,8.75-13.78ZM285.92,357.41c.17.09.34.18.52.26-1.67,3.2-3.33,6.39-5,9.59-.13-.07-.26-.13-.39-.2,1.63-3.22,3.25-6.43,4.88-9.65ZM285.61,410.88c-1.92-3.11-3.76-6.27-5.48-9.49-1.86-3.48-3-7.26-3.72-11.12-.7-3.81-.32-7.61,1.27-11.15,1.78-3.97,3.79-7.84,5.71-11.74.17-.34.42-.63.58-.87-.72,3.13-1.39,6.29-2.17,9.43-.91,3.66-.71,7.36-.65,11.07.04,2.69.02,5.37,0,8.06-.04,5.23,1.11,10.11,4.59,14.16,1.15,1.34,2.71,2.31,4.02,3.4-1.45.44-3.14-.09-4.16-1.74Z"/>
    <path class="cls-1" d="M316.65,373.69c1.13-3.11,2.35-6.19,3.39-9.33.24-.73-.06-1.65-.11-2.48-.65.15-1.33.25-1.95.47-.22.08-.38.46-.47.73-1.22,3.68-2.42,7.37-3.62,11.06-.13.39-.21.79-.32,1.21-2.71-.29-5.15-1.01-7.4-2.28-1.11-.63-2.19-.56-2.7.41-.64,1.22.45,1.58,1.15,1.84,2.62.99,5.29,1.85,8.36,2.9-.42,1.59-.88,3.48-1.42,5.34-.38,1.31-.9,2.58-1.3,3.88-.08.28.07.63.11.95.3-.1.68-.12.87-.32.53-.54,1.18-1.08,1.44-1.76.9-2.33,1.66-4.71,2.45-7.08.22-.68.43-1.02,1.34-.91,3.24.4,6.49.59,9.71-.21.55-.14,1.07-.44,1.6-.67-.03-.14-.07-.28-.1-.42-3.84-.37-7.69-.75-11.61-1.13.22-.9.33-1.58.57-2.22Z"/>
  </g>
  <g>
    <path class="cls-1" d="M293.17,231.81c1.21,3.33,3.26,6.22,5.11,9.21.93,1.51,2.12,2.86,3.21,4.27,2.04,2.67,4.08,5.35,6.14,8.01.6.78,1.28.57,1.87,0,.59-.58.14-.99-.33-1.36-.85-.66-1.33-1.52-1.42-2.61-.04-.49-.14-1.01-.34-1.45-.97-2.22-2.39-4.23-2.83-6.69-.44-2.47-1.05-4.91-1.59-7.36.11-.02.22-.04.33-.07.11-3.03.07-6.09,2.11-8.68.67-.85,2.61-1.9,3.63-1.81,3.51.29,5.05,2.69,5.88,5.65.39,1.39.32,2.91.44,4.38.07.83.21,1.68.1,2.49-.24,1.77-.61,3.53-.95,5.29-.49,2.52-1.16,4.95-2.59,7.16-.35.54-.35,1.51-.13,2.15.11.34,1.03.55,1.59.58,1.04.07,2.78-1.95,2.79-3.04,0-.38.14-.78.29-1.14,1.32-3.04,2.86-6,3.94-9.13.8-2.3,1.08-4.79,1.45-7.22.36-2.4.8-4.82.3-7.26-.22-1.08-.44-2.17-.72-3.23-.54-2.03-1.32-3.96-2.82-5.48-2.18-2.21-4.48-4.21-7.8-4.45-1.92-.14-3.83-.48-5.75-.5-2.98-.03-5.68,1.16-8.11,2.69-1.53.97-2.71,2.52-3.96,3.9-.46.51-.75,1.22-.95,1.89-.96,3.06-1.05,6.15-.15,9.25.44,1.51.75,3.07,1.29,4.54ZM295.7,216.61c1.59-1.6,3.22-3.02,5.31-3.95,2.2-.98,4.41-1.14,6.73-.76,1.02.17,2.05.29,3.08.36,1.48.11,2.61.82,3.81,1.66,2.03,1.42,3.45,3.26,4.15,5.51.86,2.73,1.49,5.55.94,8.48-.47,2.5-.87,5.01-1.51,7.5-.1-1.42-.18-2.85-.32-4.27-.26-2.67-1.07-5.18-2.78-7.27-1.6-1.95-3.91-2.41-6.3-2.81-1.73-.29-2.85.66-4,1.45-2.28,1.58-3.29,4.13-3.65,6.69-.38,2.75-.71,5.61.2,8.39.58,1.77,1.02,3.58,1.51,5.38.11.38.18.78.27,1.16-.13.07-.27.14-.4.21-1.16-1.82-2.34-3.64-3.49-5.47-.41-.65-.78-1.31-1.17-1.98-.72-1.24-1.54-2.43-2.12-3.73-1.46-3.25-2.63-6.61-2.62-10.23,0-2.35.55-4.53,2.34-6.33Z"/>
    <path class="cls-1" d="M311.08,259.29c-.27-.63-1.89-.48-2.49.16-1.72,1.82-3.68,3.54-3.11,6.22-.09,2.69.46,4.86,2.51,6.45,1.42,1.1,3.08,1.36,4.8,1.65,2.16.37,3.87-.5,5.28-1.8,1.08-.99,1.8-2.4,2.55-3.7,1.05-1.85.74-4.32-.64-5.96-.57-.68-1.2-1.32-1.76-2.02-1.02-1.27-4.06-2.1-5.53-1.44-.3.13-.69.53-.68.77.03.34.35.72.64.95.36.28.83.4,1.23.63,1.19.7,2.87,2.75,2.39,3.99-.5,1.27-2.84,2.7-4.12,2.15-.66-.28-1.53-1.06-1.55-1.63-.03-1.32.46-2.64.62-3.97.09-.81.17-1.74-.13-2.45ZM311.25,269.65c1.83.19,3.74.35,5.36-.89.53-.4.98-.9,1.55-1.42-.97,2.97-3.12,5.12-6.95,3.9-2.43-.78-3.9-2.94-3.21-5.29.16.45.37.79.39,1.13.13,1.79,1.41,2.43,2.86,2.58Z"/>
  </g>
  <path class="cls-1" d="M171.45,676.38c-.8-.33-1.7-.41-2.56-.61-2.19-.52-4.4-.98-6.56-1.62-1.1-.32-2.57-.71-3.04-1.54-.72-1.27-1.6-1.36-2.73-1.38-.2,0-.41-.14-.59-.25-1.79-1.2-3.58-2.38-5.34-3.61-3.62-2.52-7.22-5.06-10.82-7.61-3.07-2.17-6.26-4.08-9.84-5.37-4.01-1.44-8.02-2.14-12.17-.87-2.19.67-4.4,1.38-6.41,2.45-1.94,1.03-3.71,2.43-5.4,3.85-1.16.98-2.03,2.3-3.08,3.41-.23.24-.85.47-1.06.33-2.64-1.65-5.35-3.22-7.8-5.13-1.19-.92-1.85-2.52-2.79-3.78-.34-.45-.74-.95-1.22-1.15-.28-.11-1.09.29-1.14.55-.11.62-.14,1.47.2,1.93,2.47,3.31,5.27,6.34,9.11,8.04,2.6,1.15,3.6,3.02,3.6,5.7,0,.67.17,1.37.42,2,1.13,2.92,2.01,6,3.6,8.66,1.13,1.89,3.15,3.3,4.91,4.76,2.57,2.13,5.64,3.28,8.85,4.04,1.6.38,3.22.79,4.85.87,5.83.27,11.56-.3,17.22-1.88,2.43-.68,5-.89,7.51-1.32.07.13.13.26.19.4.39-.32.8-.63,1.18-.97.3-.27.53-.7.87-.82,2.14-.78,4.35-1.4,6.47-2.24,3.01-1.19,5.94-2.56,8.93-3.79.99-.41,2.08-.57,3.11-.91.64-.22,1.31-.48,1.8-.9.17-.14-.03-1.15-.26-1.25ZM161.09,676.54c-3.32-.38-6.61-.75-10.25-1.16,4.69-1.4,7.37-1.06,10.25,1.16ZM153.25,672.25c-1.52.38-2.93.64-4.27,1.11-.83.29-1.56.9-2.33,1.37-.3.18-.6.51-.89.5-2.98-.06-5.95-.17-8.93-.27-.04-.16-.07-.31-.11-.46,3.71-1.19,7.4-2.46,11.15-3.55,1.83-.53,3.69-.41,5.38,1.3ZM141.4,665.77c.08.02.19.04.26.01,2.92-1.36,4.11,1.34,6.14,2.52-2.08.64-4.02,1.15-5.89,1.82-2.24.81-4.44,1.71-6.62,2.66-1.2.52-2.27,1.55-3.5,1.75-1.44.23-3-.12-4.49-.34-.88-.13-1.73-.51-2.6-.78-.03-.2-.05-.39-.08-.59,3.96-2.1,7.88-4.28,11.91-6.24,1.46-.71,3.12-1.32,4.87-.81ZM135.83,660.04c.2.01.42.12.59.24,1.14.82,2.26,1.65,3.21,2.35-3.04,1.33-6.2,2.61-9.26,4.1-3.08,1.5-6.03,3.26-8.68,5.74-1.67-.55-3.55-1.16-5.81-1.9,1.91-1.59,3.57-3.15,5.41-4.45,2.31-1.63,4.68-3.2,7.18-4.51,2.25-1.18,4.76-1.71,7.35-1.56ZM127.05,656.12c.39-.12.92.11,1.36.27,1.11.4,2.21.84,3.12,1.2-2.19,1.01-4.44,1.91-6.55,3.05-1.54.83-2.95,1.94-4.36,3-2.26,1.69-4.48,3.42-6.68,5.18-.24.19-.27.66-.49,1.24-1.16-.75-2.28-1.48-3.57-2.31.5-.74.98-1.51,1.52-2.23,2.26-3,5.14-5.29,8.5-6.88,2.27-1.07,4.74-1.75,7.14-2.52ZM107.51,677.88c-1.83-3.1-3.21-6.34-3.47-10.23,1.15.55,2.01,1.01,1.66,2.3-.04.16-.09.39,0,.51,1.41,2.09.54,4.84,2.01,6.91.07.1-.02.31-.19.51ZM106.62,666.53c-.64-.22-1.26-.61-1.77-1.06-.95-.84.19-1.08.53-1.56,2.5-3.59,5.96-5.81,10.08-7.09,1.35-.42,2.68-.87,4.02-1.31.05.14.1.28.14.42-.69.29-1.44.47-2.05.88-2.58,1.73-5.27,3.34-7.19,5.86-.82,1.08-1.79,2.1-2.35,3.31-.4.88-.92.73-1.42.55ZM119.6,686.61c-1.73-.72-3.46-1.43-5.17-2.19-.17-.08-.23-.42-.35-.62-.48-.79-.98-1.56-1.44-2.37-.59-1.05-1.24-2.09-1.7-3.2-.84-2.03-1.8-3.98-1.72-6.35.04-1.17.3-.83.95-.72,2.98.47,4.13,2.46,4.78,5.18.47,1.95,1.03,3.93,2.4,5.6,1.03,1.26,1.68,2.84,2.5,4.27-.09.13-.17.26-.26.4ZM122.02,685.02c-1.85-3.36-4.53-6.34-5.13-10.32-.07-.42-.13-.85-.21-1.39,1.52.47,3.01.81,4.37,1.42.59.26,1.31,1.1,1.3,1.68-.01,2.11,1.34,3.69,1.83,5.59.51,1.99,1.89,3.27,3.44,4.43.17.12.32.27.45.44.07.09.08.23.16.49-2.59.32-4.95-.02-6.22-2.33ZM130.2,685.39c-.21-.21-.45-.4-.71-.54-2.86-1.54-3.35-4.59-4.51-7.19-.21-.46-.11-1.05-.16-1.63,1.62.33,3.24.6,4.81,1.03.44.12.92.67,1.09,1.13.64,1.77,1.76,3.18,2.98,4.56,1.08,1.22,2.07,2.52,3.09,3.77-2.49,1.23-4.63.87-6.59-1.14ZM145.2,685.07c-1.69.22-3.38.46-5.08.65-.23.03-.52-.1-.71-.25-2.68-2.1-4.49-4.92-6.32-7.72-.06-.1-.04-.25-.06-.43,1.7,0,3.41-.19,5.03.08.76.13,1.4,1.14,2.04,1.8,1.42,1.47,2.78,2.99,4.2,4.46.32.33.76.54,1.15.81-.08.2-.17.39-.25.59ZM147.91,683.37c-.78-.39-1.48-1.01-2.12-1.63-1.29-1.24-2.52-2.55-3.92-3.99,4.9-1,7.7,1.78,10.71,4.86-1.74.15-3.02,1.57-4.68.76ZM161.67,679.18c-1.66.67-3.32,1.34-4.99,1.99-.22.09-.56.17-.72.07-1.43-.9-2.83-1.83-4.22-2.77-.07-.05-.06-.22-.15-.55,3.44.35,6.77.69,10.1,1.03,0,.08,0,.16,0,.23Z"/>
  <path class="cls-1" d="M75.4,584.66c1.68.38,3.44.38,5.17.57.46.05.91.23,1.37.28,1.89.21,3.79.37,5.68.58.48.05,1,.4,1.42.3,2.04-.49,4.08.36,6.16-.13,1.57-.37,3.19-.55,4.57-1.41,2.47-1.55,4.44-3.67,6.45-5.76,2.66-2.77,5.43-5.43,8.16-8.14.09-.09.19-.2.3-.25,1.61-.7,2.47-2.22,3.65-3.38.55-.54,1.15-.74,1.84-.29.71.45,1.37,1.01,2.13,1.34.47.2,1.14.2,1.62.03.57-.21,1.03-.69.55-1.43-.08-.13-.08-.32-.07-.48.04-1.5.12-3,.11-4.49,0-1.15-.2-2.3-.21-3.46-.01-2.31.07-4.61.08-6.92,0-1.03-1.37-1.73-2.3-1.36-1.25.5-2.56.87-3.87,1.21-2.37.62-4.77,1.11-7.12,1.77-1.47.41-2.86,1.12-4.33,1.55-.97.28-1.99,1.1-2.2,2.07,1.68,1.45,3.32,2.87,5.1,4.41-.93,1.01-1.87,1.92-2.69,2.92-2.31,2.85-4.43,5.87-6.91,8.57-1.75,1.91-3.85,3.54-5.98,5.03-1,.7-2.47,1.15-3.68,1.06-3.47-.25-6.91-.87-10.37-1.27-2.56-.3-5.14-.44-7.71-.7-3.31-.33-6.11.71-8.14,3.31-2.68,3.43-5.19,6.99-7.75,10.52-.86,1.19-1.66,2.43-2.48,3.66-.76,1.15-1.53,2.3-2.27,3.46-.77,1.21-1.31,2.6-2.58,3.49.21.95.85,1.44,1.35.98.85-.79,1.71-1.57,2.51-2.41,3.11-3.25,6.1-6.62,9.33-9.73,1.93-1.86,3.98-3.68,6.61-4.61.17-.06.29-.26.46-.35.49-.26.99-.72,1.48-.71,1.52.02,3.02-.17,4.56.17ZM66.84,583.99c-1.61,1.13-3.19,2.31-4.71,3.55-.74.6-1.31,1.42-1.99,2.1-.9.91-1.84,1.78-2.89,2.59.59-.83,1.17-1.68,1.78-2.5,1.28-1.73,2.46-3.55,3.89-5.13,1.41-1.56,2.31-3.57,4.17-4.74,1.4-.88,2.89-1.47,4.55-1.43,1.86.04,3.72.12,5.56.31,2.21.22,4.41.56,6.62.87,2.42.34,4.83.8,7.27,1.03.82.08,1.76-.24,2.53-.62,1.22-.6,2.37-1.34,3.48-2.12,1.13-.8,2.22-1.67,3.24-2.6.85-.78,1.6-1.67,2.35-2.55,1.38-1.62,2.76-3.25,4.09-4.92,1.07-1.34,2.03-2.76,3.11-4.1.65-.81,1.45-1.49,2.15-2.26.27-.3.46-.69.74-1.12-.72-.58-1.11-1.47-2.3-.96-.35.15-1.1-.49-1.6-.87-.62-.47-1.16-1.04-1.86-1.67,4.85-2.62,9.99-3.79,15.48-4.29-.26,4.53.52,9.02-.31,13.47-2.03-.07-2.77-2.51-4.86-2.41-.5,2.52-2.12,4.23-4.06,5.77-1.16.92-2.12,2.09-3.2,3.1-1.09,1.01-2.27,1.93-3.33,2.96-.74.72-1.28,1.65-2.03,2.36-1.69,1.61-3.42,3.19-5.21,4.69-1.82,1.52-4.05,1.86-6.34,1.98-2.76.15-5.5-.05-8.24-.39-1.78-.22-3.55-.59-5.32-.89-.26-.04-.55-.15-.77-.08-1.44.44-2.77-.2-4.16-.3-2.67-.2-5.42-.53-7.81,1.16Z"/>
  <g>
    <path class="cls-1" d="M356.92,713.09c-.16.22-.16.57-.24.85.32-.02.7.07.93-.08.56-.36,1.02-.89,1.59-1.24,2.27-1.35,4.51-2.75,6.86-3.96,3.65-1.87,7.54-3.07,11.59-3.76,1.03-.17,2.08-.21,3.11-.32.02.08.03.16.05.23-.42.29-.83.6-1.27.87-3.26,2-6.81,3.36-10.4,4.62-2.62.92-5.28,1.73-7.89,2.68-1.3.48-2.53,1.16-3.8,1.75.02.11.03.23.05.34.24.03.5.13.73.09.63-.09,1.26-.18,1.86-.38,2.54-.82,5.08-1.67,7.6-2.54,3.93-1.35,7.85-2.76,11.54-4.69,1.16-.61,2.27-1.33,3.34-2.09.33-.23.66-.82.58-1.15-.09-.38-.61-.67-.99-.95-.16-.11-.42-.09-.64-.11-2.2-.22-4.33.23-6.46.68-4.6.96-8.87,2.78-12.94,5.09-1.93,1.1-3.88,2.2-5.23,4.05Z"/>
    <path class="cls-1" d="M371.17,742.39c-.23-.09-.46-.19-.67-.3-3.19-1.62-5.47-4.27-7.73-6.94-1.4-1.66-2.75-3.36-4.13-5.03-1.22-1.49-2.52-2.92-3.64-4.48-.4-.56-.85-.59-1.23-.44-.31.12-.64.64-.64.98,0,.3.42.63.7.91.2.2.54.27.72.48,1.57,1.88,3.12,3.78,4.66,5.68,2.3,2.83,4.55,5.7,7.42,7.99,1.36,1.08,2.72,2.21,4.5,2.49.5.08,1.16-.08,1.57-.37.52-.37.2-.93-.07-1.39-.61-1.06-1.15-2.18-1.83-3.19-1.1-1.65-2.08-3.44-3.47-4.81-3.48-3.44-7.15-6.69-10.77-9.98-.41-.37-.99-.57-1.53-.77-.2-.08-.49.07-.9.15.52.44.88.7,1.2,1,2.17,1.99,4.29,4.04,6.53,5.96,2.97,2.55,5.69,5.3,7.77,8.64.71,1.13,1.46,2.24,2.18,3.36-.06.06-.12.12-.18.18-.15-.03-.31-.05-.46-.11Z"/>
    <path class="cls-1" d="M361.36,684.18c-.55.02-1.15.18-1.64.43-2.53,1.28-4.45,3.29-6.3,5.37-1.92,2.17-3.71,4.47-4.89,7.11-1.91,4.26-3.64,8.61-5.41,12.93-.17.42-.28.97-.15,1.37.08.25.68.32,1.01.46-.14.44-.28.87-.43,1.34.85,0,1.8-.78,2.38-1.7,1.24-1.96,2.41-3.99,3.83-5.82,2.98-3.81,6.21-7.44,9.14-11.29,1.7-2.22,3.11-4.69,3.08-7.68,0-.35.2-.7.34-1.04.35-.87-.01-1.51-.96-1.48ZM360.03,688.68c-1.5,3.82-3.94,7.02-6.62,10.06-2.86,3.25-5.81,6.44-8,10.22-.05.08-.12.15-.19.23-.05-.04-.1-.07-.15-.11,1.72-3.93,3.32-7.93,5.2-11.79,1.86-3.82,4.51-7.11,7.78-9.85.89-.75,1.97-1.27,2.97-1.9.08.07.16.15.24.22-.41.97-.85,1.93-1.23,2.92Z"/>
    <path class="cls-1" d="M345.32,731.88c1.02-1.31,2.31-2.43,2.86-4.28-.28.12-.5.15-.63.27-1.44,1.46-2.96,2.85-4.28,4.42-1.84,2.19-3.54,4.5-5.25,6.8-1.41,1.9-2.71,3.88-4.12,5.79-.65.89-1.44,1.67-2.16,2.51-.1-.06-.19-.12-.29-.17-.04-.16-.08-.32-.11-.47-.02-.13-.04-.27-.04-.41-.03-1.68.58-3.17,1.29-4.64,1.77-3.66,4.54-6.56,7.26-9.48,1.58-1.7,3.39-3.17,5.08-4.78.18-.17.19-.53.27-.8-.32-.07-.64-.18-.96-.2-.13,0-.29.14-.41.26-1,.94-2.01,1.85-2.97,2.83-1.32,1.36-2.62,2.74-3.89,4.15-2.33,2.58-4.58,5.22-6.03,8.44-.68,1.51-1.12,3.05-1.01,4.72.09,1.4,1.18,2.23,2.3,1.69.43-.2.81-.58,1.1-.97,1.85-2.42,3.66-4.88,5.51-7.31,2.14-2.8,4.3-5.58,6.46-8.36Z"/>
    <path class="cls-1" d="M334.85,718.83c.3-.2.8-.24,1.18-.17,1.08.2,1.1.22,1.3-.91-.28-.15-.51-.37-.77-.39-.95-.11-1.9-.14-2.85-.23-1.9-.19-3.8-.41-5.71-.59-.66-.06-1.33-.05-1.99-.02-1.37.08-2.75.32-4.11.27-1.55-.06-3.06.09-4.46.68-1.58.67-3.25,1.36-3.39,3.48,0,.04,0,.09,0,.08.15.13.26.24.38.34.76.63,1.5,1.19,2.64.96,1.51-.3,3.04-.47,4.57-.64,2.02-.22,4.05-.45,6.08-.57,2.59-.15,4.97-.85,7.14-2.3ZM319.73,720.5c-.9.09-1.79.35-2.69.43-.33.03-.71-.24-1.03-.44-.06-.04,0-.48.13-.58,1.72-1.31,3.65-1.87,5.83-1.82,1.64.04,3.29-.21,4.94-.28.63-.03,1.26.07,1.89.14,1.41.15,2.81.33,4.22.49.02.06.05.12.07.18-1.39.34-2.76.83-4.17,1.01-3.06.37-6.14.57-9.21.87Z"/>
    <path class="cls-1" d="M330.43,694.32c.79.76,1.57,1.54,2.34,2.32,1.84,1.87,3.04,4.19,4.38,6.4.9,1.48,1.69,3.02,2.58,4.5.23.38.66.65.99.98.03-.52.21-1.09.05-1.54-.36-.99-.85-1.95-1.37-2.87-1.1-1.95-2.07-4.01-3.43-5.77-1.5-1.93-3.35-3.6-5.1-5.33-.5-.49-1.28-.92-1.92-.51-.47.3-.68,1.03-.96,1.6-.09.18-.06.43-.05.65.11,2.38.82,4.5,2.44,6.33.95,1.06,1.7,2.28,2.56,3.42.46.61.92,1.21,1.43,1.77,1.18,1.29,2.39,2.55,3.6,3.81.17.18.37.36.59.45.19.07.44.02.66.02,0-.23.09-.53-.03-.67-.78-.93-1.6-1.84-2.43-2.74-.5-.54-1.11-.99-1.56-1.56-1.35-1.73-2.67-3.48-3.96-5.25-.58-.79-1.17-1.61-1.55-2.5-.53-1.26-.81-2.61-.17-4.09.37.24.67.38.9.6Z"/>
    <path class="cls-1" d="M374.16,722.76c-.34-.2-.65-.52-1.02-.59-2.21-.44-4.44-.81-6.66-1.24-2.92-.57-5.84-1.17-8.76-1.76-.77-.15-1.54-.29-2.3-.43-.03.07-.07.15-.1.22.19.16.35.38.56.46,1.6.63,3.19,1.33,4.84,1.81,1.94.57,3.94.95,5.93,1.37,1.75.37,3.52.63,5.26,1.07,1.32.33,1.41.38,2.26-.92Z"/>
    <path class="cls-1" d="M338.68,723.77c.38-.29.65-.74,1.05-1.22-1.1-.25-1.85.11-2.53.58-2.21,1.54-4.4,3.13-6.6,4.69-1.19.85-2.37,1.71-3.59,2.51-.68.45-.92.96-.51,1.61.47.74.98.25,1.4-.04,1.07-.74,2.1-1.53,3.13-2.31,2.55-1.93,5.11-3.86,7.64-5.82Z"/>
    <path class="cls-1" d="M365.75,695.82c-1.23,1.05-2.48,2.1-3.59,3.28-1.81,1.92-3.54,3.92-5.25,5.94-.49.58-.77,1.35-1.15,2.03.07.04.14.08.21.11.63-.38,1.34-.67,1.86-1.17,1.27-1.21,2.43-2.53,3.68-3.76,1.72-1.69,3.46-3.35,5.23-4.97.59-.54.84-1.2.34-1.75-.53-.58-.99-.01-1.33.28Z"/>
    <path class="cls-1" d="M321.81,707.39c.62.25,1.3.38,1.91.64,4.08,1.79,8.15,3.61,12.23,5.41.27.12.6.12.9.18.02-.07.04-.15.06-.22-.09-.1-.15-.23-.26-.3-1.52-.92-3.02-1.87-4.58-2.73-1.73-.95-3.5-1.82-5.27-2.71-1.38-.69-2.76-1.38-4.17-2.02-.57-.26-1.18.13-1.41.77-.2.57.18.82.58.99Z"/>
    <path class="cls-1" d="M351.7,730.71c-.04-.25-.2-.47-.3-.71-.09,0-.19,0-.28,0-.09.24-.26.48-.26.72,0,1.26-.05,2.52.06,3.77.22,2.38.56,4.75.78,7.14.1,1.08.05,2.18.08,3.26.01.57.61,1.1,1.16.96.54-.13.92-.43.67-1.12-.11-.3-.07-.65-.1-.97-.19-2-.32-4.01-.6-5.99-.33-2.36-.8-4.71-1.22-7.06Z"/>
    <path class="cls-1" d="M344.43,705.61c.08-.16.27-.38.26-.57-.1-1.65-.1-3.32-.4-4.93-.32-1.75-.97-3.43-1.38-5.17-.37-1.54-.61-3.11-.92-4.67-.15-.76-.78-.6-1.25-.54-.15.02-.38.56-.32.8.67,2.85,1.35,5.7,2.1,8.52.58,2.17,1.26,4.32,1.92,6.56Z"/>
    <path class="cls-1" d="M321.17,734.39c-.06.51.53,1.16,1.01,1.17.51.02,1.25-.76,1.27-1.32.02-.51-.63-1.03-1.44-1.03-.56.07-.78.58-.85,1.18Z"/>
    <path class="cls-1" d="M370.09,694.16c.4-.13,1.09-.09.92-.91-.09-1.19-.23-1.42-.88-1.38-.5.03-1.18.79-1.17,1.32,0,.46.69,1.12,1.12.97Z"/>
    <path class="cls-1" d="M340.19,684.72c0-.37-.75-1.1-1.01-.92-.43.29-1.22.17-1.25.97-.03.72.4,1.13,1.17,1.13.56,0,1.09-.58,1.09-1.18Z"/>
    <path class="cls-1" d="M352.21,750.26c.06.73.65.86,1.48,1.02.19-.18.63-.4.74-.73.13-.44-.8-1.42-1.21-1.43-.56,0-1.06.52-1,1.14Z"/>
    <path class="cls-1" d="M316.96,704.85c.57.15,1.5-.63,1.42-1.16-.05-.33-.38-.63-.49-.8-.96-.03-2.1.74-1.93,1.18.14.35.61.68,1,.78Z"/>
    <path class="cls-1" d="M379.2,724.09c-.28-.05-.8.3-.94.6-.32.72.03,1.3.76,1.68.48-.43,1.44-.55,1.19-1.49-.09-.35-.62-.72-1.01-.79Z"/>
  </g>
  <g>
    <path class="cls-1" d="M209.7,296.81c.43.18,1.04.26,1.5.16.77-.16,1.49-.47,2.22-.75,2.9-1.16,5.8-2.32,8.68-3.51,3.24-1.33,6.43-2.78,9.72-4.02,2.84-1.07,5.79-1.9,8.69-2.85.35-.11.68-.27,1.01-.42.69-.3,1.47-.52,2.04-.94,1.82-1.34,5.12-.7,6.04-3.22.01-.03.05-.05.08-.07,1.13-.86,1.22-1.51.43-2.59-.15-.21-.24-.47-.3-.71-.27-1.23-.54-2.47-.77-3.7-.22-1.23-.35-2.47-.58-3.7-.25-1.33-.57-2.66-.83-3.99-.07-.36,0-.75-.08-1.11-.34-1.6-.75-3.19-1.07-4.79-.28-1.39-.41-2.8-.72-4.18-.38-1.7-1.01-3.36-.59-5.09-.31-.18-.57-.35-.84-.49-.89-.48-3.19.5-3.41,1.35-.28,1.07-.61,2.12-1.51,3.02-.72.72-1.17,1.65-1.63,2.53-.58,1.1-1.03,2.26-1.57,3.38-.19.4-.52.75-.71,1.15-.71,1.56-1.35,3.15-2.1,4.7-.42.88-1.01,1.7-1.48,2.48-.99-.68-2.06-1.39-3.1-2.13-1.88-1.34-3.74-2.69-5.6-4.05-1.72-1.26-3.46-2.51-5.15-3.8-2.41-1.84-4.8-3.7-7.17-5.58-.49-.39-.86-.89-1.26-1.34-.34-.38-2.08-.67-2.28-.29-.47.87-.92,1.77-1.09,2.7-.16.89.07,1.83.09,2.75.06,3.48.12,6.95.15,10.43.01,1.29-.11,2.58-.07,3.87.09,2.79.31,5.57.35,8.36.03,1.64-1.02,2.82-2.77,2.9-2.63.12-5.28.93-7.91,0-.17-.06-.37-.03-.56-.05-1.87-.12-3.74-.24-5.62-.35-1.24-.07-2.49-.16-3.73-.13-.4,0-1.1.35-1.1.55,0,.44.18,1.06.56,1.3,1.16.76,2.45,1.4,3.7,2.07,1.88,1.01,3.78,2,5.67,3,2.78,1.46,5.53,2.95,8.35,4.35,2.05,1.01,4.18,1.91,6.31,2.8ZM241.69,255.56c.11.01.22.02.33.03.18.51.37,1.01.57,1.57-.78.18-1.37.31-2.3.53.56-.86.98-1.5,1.4-2.13ZM193.58,287.06c-1.24-.67-2.44-1.39-3.66-2.09.04-.1.08-.21.13-.31,1.26.18,2.51.44,3.78.53,1.81.13,3.63.18,5.44.19,1.65.01,3.31-.13,4.96-.1,1.69.03,2.75-.91,3.95-1.65.17-.11.23-.4.26-.61.38-2.37.61-4.73.31-7.14-.19-1.56,0-3.15-.02-4.73,0-.64-.15-1.28-.16-1.92-.04-2.27-.03-4.54-.08-6.81-.04-1.77-.14-3.53-.18-5.3,0-.38.14-.77.26-1.42.88.72,1.53,1.23,2.16,1.75,1.67,1.37,3.35,2.73,5,4.12,2.43,2.06,4.71,4.25,7.29,6.17,2.15,1.6,3.97,3.54,6.6,4.68,1.63.71,2.8.53,3.54-.91.74-1.44,1.32-2.93,2.03-4.38,1.11-2.29,2.27-4.56,3.42-6.84.1-.19.29-.42.5-.48,1.19-.31,2.41-.57,3.75-.88.08.47.32,1.02.22,1.51-.07.32-.6.63-1.01.81-.74.33-1.58.5-2.3.85-.9.44-.31,1.06.12,1.31.41.23,1.15.21,1.68.1.58-.13,1.09-.49,1.81-.84.1,1.02.17,1.76.25,2.61-.46.1-1.03.17-1.56.33-1.06.34-2.12.68-3.12,1.12-.33.14-.75.66-.66.85.2.4.63.81,1.09,1.01.29.13.81-.11,1.22-.21.95-.22,1.89-.54,2.85-.64.23-.02.65.65.82,1.05.14.34.03.75.03,1.13-1.67.1-3.29.39-4.68,1.21-.4.24-.68.77-.76,1.2-.05.22.41.71.7.74.51.06,1.37,0,1.52-.26.41-.7,1.14-.52,1.74-.69.56-.16,1.13-.3,1.75-.45.07.75.17,1.65.27,2.67-2.38-.16-4.28.53-5.77,1.98.68,1.06,1.44,1.17,2.7.65,1.09-.45,2.28-.72,3.53-1.11.16.84.28,1.51.41,2.19-1.63.08-3.28.47-4.68,1.36-.38.24-.8.91-.66,1.16.21.36.92.73,1.39.72.73-.02,1.51-.28,2.14-.61,1.04-.54,1.86-.57,2.59.07-1.26,1.77-3.63,2.19-5.54,3.14-1.48.73-3.24,1.04-4.84,1.62-2.09.75-4.14,1.58-6.2,2.38-3.02,1.18-6.05,2.34-9.05,3.55-1.48.6-2.89,1.32-4.37,1.92-1.24.5-2.5,1.16-3.82,1.31-2.07.23-4.16-.09-6.03-.99-2.18-1.04-4.36-2.08-6.51-3.17-2.2-1.12-4.37-2.28-6.54-3.45Z"/>
    <path class="cls-1" d="M218.04,278.98c.54.94,1.26,1.82,1.96,2.69.69.87,1.41,1.72,2.19,2.53.54.56,1.36.96,1.77,1.56.72,1.06,1.7.56,2.39.26.41-.18.69-1.03.58-1.51-.3-1.25-.85-2.45-1.29-3.68-.28-.8-.37-1.7-.84-2.4-.75-1.12-1.08-2.38-2.19-3.4-.87-.81-1.73-1.11-2.54-1.24-2,.01-3.39,1.15-3.11,2.43.21.94.6,1.89,1.09,2.75ZM219.55,275.84c1.68-.16,2.11,1.06,2.54,1.84.91,1.66,1.44,3.46,2.13,5.21-.16.06-.33.12-.49.18-.71-.92-1.43-1.84-2.13-2.78-.27-.37-.47-.78-.72-1.16-.5-.75-1.09-1.46-1.5-2.24-.15-.28.1-.71.16-1.05Z"/>
  </g>
  <path class="cls-1" d="M405.69,139.88c-.25-3.03-.85-5.76-4.39-7.04-2.95-1.07-5.73-3.28-8.96-.56-.44.37-1.28.3-1.78.64-2.43,1.62-5.2,2.98-7.12,5.03-3.95,4.2-5.23,9.51-5.62,14.99-.28,3.98-.53,7.97-.81,12.27-.67-.12-1.12-.14-1.53-.29-5.31-1.96-10.8-3.58-15.85-6.01-5.45-2.62-10.54-1.23-15.62.23-3.83,1.1-5.18,6.29-2.2,8.64,3.67,2.9,7.74,5.46,11.95,7.62,4.92,2.52,10.18,4.46,15.3,6.64.5.21,1,.42,1.52.57,5.56,1.5,11.13,3.01,16.7,4.47.48.13,1.21.19,1.52-.06,2.28-1.79,5.67-2.88,4.83-6.74-.2-.91.26-2.02.65-2.96,1.29-3.12,2.8-6.16,4-9.31,1.5-3.96,2.69-8.02,4.19-11.99,1.96-5.23,3.7-10.47,3.23-16.12ZM390.13,171.03c-1.19,2.85-2.01,5.84-3.29,8.65-.56,1.24-1.52,2.58-3.6,1.84-5.25-1.87-10.93-2.4-15.93-5.18-3.86-2.14-8.39-3.18-12.35-5.2-2.77-1.41-5.17-3.54-7.52-5.57-1.12-.97-1.3-2.26.96-2.52,1.35-.16,2.68-.53,4.82-.97,1.54.71,3.61,1.64,5.66,2.61.72.34,1.34.87,2.07,1.16,4.73,1.93,9.43,3.95,14.26,5.64,1.56.55,3.79.78,5.16.13,1.94-.92,2.36-2.89,2.05-5.2-.42-3.16-.41-6.47.09-9.63.66-4.16,1.46-8.42,3.14-12.28,1.54-3.56,3.84-7.08,8.72-7.82,3.54-.54,5.38,1.39,5.32,4.73-.18,10.76-5.52,19.97-9.56,29.6Z"/>
  <path class="cls-1" d="M203.88,159.06c.93.04,2.08-.47,2.81-1.12.78-.69,1.04-1.95,1.79-2.71,1.89-1.93,3.95-3.69,5.89-5.56,2.96-2.85,5.94-5.68,8.79-8.64,2.3-2.39,4.76-4.75,6.54-7.51,2.4-3.72,4.62-7.66,5.29-12.18.25-1.67.42-3.4.27-5.07-.13-1.43-.62-2.89-1.26-4.2-1.12-2.31-2.56-4.44-5.33-5.04-2.66-.58-5.3.1-7.65,1.05-4.79,1.92-9.36,4.36-12.72,8.44-.89-2.14-1.72-4.18-2.58-6.21-2.18-5.14-5.96-8.38-11.44-9.56-2.23-.48-4.56-.34-6.17,1.23-1.44,1.4-2.55,3.3-3.34,5.18-2.22,5.31-2.26,10.77-.19,16.14,1.18,3.08,2.47,6.15,4.06,9.04,2.13,3.89,4.57,7.6,6.92,11.37,1.05,1.69,2.13,3.37,3.34,4.95,1.46,1.91,3.09,3.68,4.59,5.55.57.71.53,1.4-.37,1.94-.29.17-.69.71-.62.86.39.77.89,2.04,1.4,2.06ZM206.41,123.02c.15.03.3.05.45.08,0,2.66.14,5.34-.06,7.99-.1,1.41-.85,2.76-1.2,4.17-.31,1.27-.84,1.09-1.61.4-.99-.89-1.54-1.87-1.07-3.26.9-2.63,1.71-5.28,2.6-7.91.18-.53.58-.98.87-1.47ZM200.62,146.51c-3.12-4.46-6.37-8.86-9.04-13.59-2.22-3.93-4.19-8.15-5.38-12.48-1.26-4.59-1.02-9.47,1.4-13.82,1.34-2.41,3.02-4.39,7.05-3.23,2.78.8,4.69,2.33,6.39,4.58,2.4,3.18,3.62,6.76,4.41,10.56.12.57-.08,1.38-.44,1.83-2.04,2.62-3.11,5.65-4.02,8.79-.61,2.1-.83,4.15-.06,6.22.18.48.56.89.88,1.31.44.56.86,1.17,1.4,1.63.6.51,1.32,1.24,1.98,1.23.68-.02,1.4-.74,1.98-1.29.48-.46.72-1.17,1.17-1.68,1.67-1.91,1.35-4.36,1.46-6.53.16-3.07-.41-6.17-.61-9.27-.03-.52.07-1.25.4-1.57,1.71-1.61,3.45-3.21,5.31-4.64,1.47-1.13,3.02-2.32,4.73-2.93,2.51-.89,5.17-1.52,7.81-1.78.97-.1,2.46.92,3.05,1.84,2.14,3.36,2.18,7.04,1.13,10.84-1.84,6.65-5.58,12.08-10.44,16.84-2.56,2.51-5.11,5.02-7.71,7.48-1.84,1.74-3.78,3.39-5.64,5.12-.49.45-.85,1.05-1.5,1.87-2-2.55-3.98-4.86-5.72-7.35Z"/>
  <path class="cls-1" d="M297.71,654.71c-1-.19-2.01-.29-3.02-.4-1.9-.22-3.8-.43-5.7-.66-1.35-.17-2.75-.22-4.04-.6-1.32-.39-2.55-1.1-3.81-1.69-.51-.24-.71-.67-.68-1.25.09-1.36.86-2.38,1.66-3.37,1.27-1.59,2.6-3.13,3.89-4.7.84-1.02,1.67-2.06,2.57-3.16-.29-.87-.7-1.02-1.59-.46-.65.41-1.32.79-1.94,1.23-3.12,2.18-6.22,4.38-9.34,6.56-.28.19-.61.31-.91.46-.08-.14-.12-.18-.12-.22,0-.09,0-.19.01-.28.34-3.06,1.68-5.74,3.14-8.38,1.65-2.98,3.39-5.93,4.85-9,1.14-2.4,1.92-4.97,2.88-7.45.38-.98.83-1.94,1.15-2.94.1-.3,0-.85-.22-1.04-.39-.34-.85-.18-1.16.28-.39.58-.74,1.19-1.18,1.71-2.7,3.2-5.45,6.37-8.13,9.59-1.8,2.16-3.55,4.36-5.23,6.61-1.25,1.67-2.35,3.46-3.53,5.19-.11.16-.36.41-.42.38-.22-.1-.48-.29-.55-.5-.22-.61-.42-1.24-.5-1.88-.42-3.13-.78-6.28-1.22-9.41-.03-.23-.51-.49-.82-.56-.34-.08-.61.11-.64.58-.03.59-.12,1.2-.28,1.77-.59,2.08-1.23,4.14-1.84,6.21-.43,1.45-.65,2.99-1.6,4.23-.71.92-1.12,1.26-1.98.33-.48-.52-.96-1.06-1.31-1.67-.53-.93-.93-1.94-1.39-2.91-1.13-2.37-2.33-4.7-3.39-7.1-1.64-3.7-3.18-7.44-4.76-11.16-.2-.48-.31-1.01-.56-1.46-.17-.31-.5-.53-.75-.79-.21.32-.6.65-.58.96.05,1.38.22,2.76.35,4.14.25,2.58.22,5.19.85,7.73.51,2.07.88,4.18,1.37,6.26.46,1.93,1.01,3.85,1.49,5.78.09.34.07.7.12,1.2-.42-.25-.7-.38-.95-.56-1.49-1.08-2.98-2.17-4.47-3.27-1-.74-2.02-1.45-3-2.23-.91-.73-1.78-1.52-2.66-2.28-.37-.33-.78-.45-1.11-.01-.32.42-.1.8.27,1.12.56.49,1.14.97,1.61,1.54,2.27,2.71,3.95,5.8,5.55,8.94.1.2.16.42.26.71-.32.03-.54.1-.74.06-1.22-.23-2.44-.43-3.64-.76-1.89-.52-3.76-1.12-5.63-1.72-.42-.13-.92-.27-.8-.92.01-.06-.08-.17-.15-.22-.3-.22-1.29-.09-1.55.26-.25.33-.48.71.02,1.08.11.08.09.32.17.45.43.71.74,1.56,1.34,2.09.55.49.75,1.04,1.14,1.86-.77-.07-1.36-.08-1.92-.19-1.08-.22-2.14-.53-3.22-.75-1.88-.38-3.78-.72-5.67-1.1-.78-.15-1.55-.34-2.32-.53-.73-.18-.74.52-1.07.84.22.19.41.42.66.56.39.22.82.36,1.23.55,1.64.74,3.25,1.54,4.92,2.2,2.5.99,5.05,1.85,7.55,2.84,1.96.78,3.88,1.66,5.81,2.51.28.12.51.36.77.55-2.45.69-4.8,1.34-7.15,2.02-1.64.47-3.25,1.07-4.91,1.45-2.24.5-4.52.83-6.78,1.26-.53.1-.71.52-.62,1.01.1.55.49.37.85.3.52-.09,1.04-.22,1.56-.21,2.41.07,4.82.19,7.24.26,1.97.05,3.94.09,5.91.06,1.11-.01,2.2-.08,3.25.36.65.28.9.67.59,1.21-.66,1.13-1.43,2.2-2.09,3.33-.14.25-.05.67.03.98.03.12.36.27.51.23.34-.09.72-.22.97-.46,1-.98,2.23-1.16,3.52-1.08.2.01.55.44.54.65-.04.49-.21.99-.41,1.45-1.49,3.28-3.01,6.55-4.49,9.83-.72,1.6-1.43,3.2-2.07,4.83-.46,1.18-.81,2.4-1.18,3.61-.11.34-.22.77-.1,1.06.07.18.58.18.87.26.18-.38.26-.62.4-.83.33-.5.68-1,1.05-1.47,2-2.54,3.97-5.11,6.04-7.6,1.45-1.75,3.03-3.41,4.57-5.09.84-.91,1.7-1.81,2.58-2.69.72-.71,1.89-.5,2.19.41.2.63.33,1.3.34,1.96.05,3.14.06,6.28.04,9.42,0,1.17-.17,2.33-.22,3.5-.01.28.13.56.2.85.32-.2.8-.32.94-.6.35-.7.51-1.48.8-2.21.96-2.4,1.95-4.79,2.9-7.19.68-1.71,1.29-3.45,1.99-5.16.33-.81.69-.9,1.56-.71,1.2.27,1.8,1.22,2.38,2.15.6.97,1.06,2.02,1.6,3.02.25.46.64.57,1.1.3.43-.24.56-.54.26-1.01-.12-.18-.08-.46-.09-.7-.05-1.15-.08-2.3-.13-3.46-.02-.48-.1-.96-.17-1.56.23.16.35.23.45.32,1.65,1.45,3.14,3.04,4.46,4.8,1.34,1.79,2.78,3.49,4.09,5.3,1.27,1.75,2.44,3.59,3.63,5.4.15.23.09.58.24.81.46.72.95.66,1.72-.17-.16-.29-.39-.56-.47-.87-.49-1.98-.94-3.97-1.42-5.95-.46-1.89-.95-3.77-1.43-5.66-.44-1.75-.88-3.49-1.32-5.24-.12-.49.06-.7.57-.58.59.13,1.18.26,1.76.41,2.28.61,4.4,1.6,6.51,2.67,2.24,1.14,4.61,2.03,6.54,3.73.11.1.43.07.58-.01.54-.3.49-.9,0-1.36-1.76-1.65-3.51-3.31-5.25-4.99-1.7-1.66-3.39-3.33-5.06-5.02-1.03-1.04-2.12-2.01-2.73-3.4-.2-.46-.1-.69.3-.85.96-.37,1.91-.83,2.9-1.05,3.42-.77,6.86-1.5,10.3-2.15,1.22-.23,2.44-.76,3.74-.34.69.23.96-.28.96-.77,0-.21-.56-.53-.91-.59ZM289.84,656.37c-2.98.67-5.95,1.38-8.92,2.08-.21.05-.41.15-.6.24-1.16.56-1.32,1.38-.7,2.53.85,1.58,2.18,2.69,3.44,3.89,1.4,1.34,2.72,2.76,4.09,4.14,1.18,1.19,2.37,2.37,3.5,3.67-1.52-.78-3.04-1.56-4.55-2.34-2.73-1.41-5.59-2.44-8.57-3.16-.31-.07-.82-.03-.98.16-.18.23-.15.7-.08,1.05.22,1.23.46,2.46.76,3.66,1.03,4.03,2.09,8.05,3.14,12.08.01.04-.02.09-.08.28-.53-.77-1.01-1.46-1.48-2.15-.8-1.19-1.56-2.41-2.41-3.57-1.01-1.39-2.05-2.77-3.16-4.09-1.24-1.47-2.56-2.88-3.87-4.3-.56-.61-1.17-1.17-1.79-1.73-.15-.13-.47-.26-.6-.18-.2.11-.45.4-.43.59.1,1.14.28,2.28.4,3.42.07.67.07,1.35.1,2.03-.08.03-.15.06-.23.08-.25-.44-.54-.87-.75-1.32-.72-1.52-1.76-2.66-3.47-3.05-.72-.16-1.41.12-1.81.72-.91,1.35-1.57,2.79-1.88,4.4-.12.63-.43,1.22-.67,1.83-.77,1.98-1.55,3.97-2.34,5.95-.08.2-.2.38-.39.72,0-.89.01-1.6,0-2.32-.02-1.44-.07-2.87-.09-4.31-.02-1.68,0-3.36-.02-5.05-.02-1.62-1.14-2.76-2.69-2.48-.7.13-1.39.74-1.91,1.3-1.78,1.89-3.51,3.84-5.2,5.81-2.21,2.57-4.38,5.18-6.54,7.79-.45.55-.81,1.17-1.21,1.76-.06-.03-.13-.06-.19-.09.63-1.56,1.21-3.14,1.9-4.68.87-1.96,1.83-3.89,2.74-5.84,1.11-2.37,2.21-4.74,3.3-7.12.16-.34.28-.71.36-1.08.18-.8-.26-1.35-1.09-1.45-1.37-.17-2.68,0-3.99.62.46-.86.9-1.72,1.37-2.57.5-.9.3-1.47-.55-2.04-.92-.61-1.96-.72-2.97-.63-2.76.25-5.52.07-8.28-.04-1-.04-2,0-3,0,0-.07,0-.13-.01-.2.65-.16,1.31-.29,1.95-.47,3.19-.91,6.37-1.87,9.57-2.74,1.23-.33,2.51-.47,3.75-.74.31-.07.57-.34.85-.51-.2-.28-.34-.63-.6-.82-2.41-1.72-5.19-2.64-7.93-3.65-3.06-1.13-6.09-2.33-9.12-3.5-.21-.08-.4-.23-.56-.49.91.17,1.82.32,2.72.52,1.56.36,3.12.74,4.68,1.13.35.09.69.2,1.03.33.54.2,1.28-.02,1.58-.5.27-.44.52-.88.75-1.26-.48-.97-.94-1.89-1.39-2.81.07-.05.14-.11.2-.16.32.06.66.1.97.18,1.94.52,3.89,1.04,5.82,1.59,1.1.31,2.19.51,3.33.32.27-.04.67-.15.75-.34.1-.23-.03-.6-.16-.86-.37-.71-.79-1.4-1.19-2.1-.59-1.03-1.17-2.06-1.79-3.07-.54-.89-1.12-1.76-1.57-2.76.33.21.67.39.98.62,1.82,1.38,3.61,2.78,5.45,4.14.5.37,1.09.65,1.68.82.33.1.79-.07,1.12-.24.09-.05-.03-.56-.1-.85-.28-1.19-.56-2.37-.86-3.55-.5-1.97-1.02-3.93-1.51-5.9-.33-1.37-.56-2.77-.92-4.13-.78-2.9-.66-5.89-1.04-8.83,0-.06.05-.12.14-.32.64,1.45,1.23,2.8,1.81,4.15,1.46,3.42,2.88,6.85,4.38,10.25.93,2.11,1.92,4.2,2.98,6.26.54,1.05,1.36,1.92,2.51,2.37.63.25,1.87-.34,2.41-1.09.91-1.26,1.3-2.72,1.7-4.19.56-2.04,1.15-4.08,1.88-6.11.23,1.35.45,2.7.68,4.05.29,1.68.61,3.34.89,5.02.13.79.72,1.09,1.36,1.2.72.13,1.22-.34,1.55-.94,1.4-2.53,3.03-4.9,4.95-7.08,1.05-1.19,1.95-2.5,2.96-3.72,1.21-1.46,2.49-2.87,3.71-4.33,1.17-1.4,2.31-2.83,3.47-4.23.39-.47.83-.92,1.24-1.38.08.05.15.09.23.14-.94,2.41-1.72,4.9-2.85,7.21-1.75,3.59-3.76,7.06-5.63,10.6-1.2,2.28-2.37,4.58-2.63,7.21-.06.55-.36,1.17.24,1.57.69.47,1.44.23,2.04-.16,1.83-1.2,3.6-2.47,5.4-3.71,1.52-1.05,3.04-2.08,4.66-3.05-.51.7-.99,1.43-1.54,2.1-1.17,1.41-2.43,2.73-3.54,4.19-.61.81-1.1,1.76-1.43,2.72-.44,1.27.16,2.16,1.45,2.91,2.93,1.7,6.11,2.2,9.43,2.29,1.4.04,2.8.35,4.2.54,0,.08,0,.15,0,.23-1.56.31-3.12.58-4.67.93Z"/>
  <path class="cls-1" d="M169.15,385.48c.22.1.76-.11.9-.33.55-.88,1-1.83,1.33-2.44-1.08-2.33-3.18-2.38-4.94-3.06-.27-.1-.51-.28-.74-.47-2.17-1.81-4.27-3.73-6.56-5.39-.5-.36-1.91-.1-2.47.38-.71.6-.06,1.43.6,1.95,1.18.92,2.38,1.82,3.58,2.72.88.66,1.77,1.32,2.66,1.98-.05.17-.11.34-.16.51-1.66.16-3.32.32-4.98.48-2.8.27-5.63.32-8.38.85-6.29,1.2-12.55,2.57-18.8,4-2.93.68-5.82,1.56-8.66,2.56-4.22,1.5-8.32,3.32-12.55,4.75-5.51,1.86-10.92,3.93-16,6.77-5.07,2.83-10.09,5.75-15.09,8.71-2.37,1.4-4.65,2.94-6.93,4.49-2.72,1.85-5.55,3.61-6.99,6.77-.21.46-.03,1.09-.04,1.64.51-.13,1.09-.17,1.52-.43.39-.23.58-.78.94-1.07,2.62-2.11,5.19-4.29,7.92-6.25,3.07-2.21,6.21-4.37,9.48-6.25,4.52-2.6,9.18-4.99,13.83-7.35,3.22-1.63,6.46-3.24,9.82-4.54,4.11-1.59,8.31-2.97,12.54-4.23,6.61-1.97,13.23-3.97,19.94-5.56,4.78-1.14,9.7-1.74,14.58-2.38,2.64-.35,5.34-.29,8.01-.42-2.4,2.48-4.94,4.55-7.39,6.73-.43.38-.76,1.27-.63,1.78.15.54.88,1.21,1.42,1.27.52.06,1.17-.51,1.67-.93.41-.33.61-.9,1.01-1.26,1.7-1.55,3.33-3.23,5.21-4.52,1.21-.83,2.42-2.33,4.32-1.46Z"/>
</svg>